<?xml version="1.0" encoding="utf-8"?>
<!-- Generator: Adobe Illustrator 26.1.0, SVG Export Plug-In . SVG Version: 6.00 Build 0)  -->
<svg version="1.1" id="Layer_1" xmlns="http://www.w3.org/2000/svg" xmlns:xlink="http://www.w3.org/1999/xlink" x="0px" y="0px"
	 viewBox="0 0 387 355" style="enable-background:new 0 0 387 355;" xml:space="preserve">
<style type="text/css">
	.st0{fill:#EDEDED;}
</style>
<g>
	<path class="st0" d="M155.38959,130.01117l-12.93646,36.91565h26.28125l-12.9278-36.87653
		C155.66162,130.05029,155.53522,130.01117,155.38959,130.01117z"/>
	<path class="st0" d="M194.12891,0.39111c-106.6123,0-193.03119,68.31689-193.03119,152.60205
		c0,54.85645,36.61755,102.93164,91.57367,129.83002c-4.03711,15.07623-14.61816,54.6123-16.74371,63.06738
		c-2.61224,10.49902,3.8526,10.35742,8.08405,7.53033c3.31787-2.21002,52.89648-35.90924,74.2876-50.45703
		c11.60699,1.71973,23.58252,2.63379,35.82959,2.63379c106.6084,0,193.03131-68.33307,193.03131-152.60449
		C387.16022,68.70801,300.7373,0.39111,194.12891,0.39111z M99.11823,194.87109c0,2.47461-1.00592,4.87891-2.76221,6.63092
		c-1.72809,1.73425-4.12939,2.73529-6.58789,2.73529H87.7168c-2.46729,0-4.87891-1.00104-6.60059-2.73932
		c-1.76068-1.75189-2.7627-4.16992-2.7627-6.62689v-67.62158H60.00293c-5.30511,0-9.60254-4.29834-9.60254-9.60254
		c0-5.30029,4.29742-9.59906,9.60254-9.59906h56.44916c5.31012,0,9.6084,4.29877,9.6084,9.59906
		c0,5.30426-4.29828,9.60254-9.6084,9.60254H99.11823V194.87109z M191.52692,203.74121
		c-4.85992,1.70996-10.18799-0.85449-11.89703-5.71191l-4.78418-13.66412h-38.50238l-4.78571,13.66412
		c-1.7085,4.85742-7.0434,7.42188-11.90332,5.71191c-4.84961-1.70514-7.40967-7.02832-5.70172-11.89844l27.6626-74.1958
		c0.15436-0.44489,0.34625-0.85651,0.53815-1.26471c1.12836-5.49219,6.80859-9.68799,13.67627-9.68799
		c6.19189,0,11.37793,3.41754,13.18109,8.10449c0.0274,0.02405,0.09381,0.08606,0.09381,0.08606l28.13184,76.95795
		C198.94427,196.71289,196.38232,202.03607,191.52692,203.74121z M252.1084,203.6123h-38.36328
		c-4.8252,0-8.71191-3.9043-8.71191-8.72461c0-0.55859,0.05859-1.12402,0.16211-1.66113
		c-0.08978-0.54688-0.16211-1.08984-0.16211-1.66699V117.1167c0-5.75934,4.66107-10.42242,10.41498-10.42242
		c5.75201,0,10.41315,4.66309,10.41315,10.42242v69.06396h26.24707c4.8252,0,8.71094,3.90521,8.71094,8.70703
		C260.81934,199.70801,256.93359,203.6123,252.1084,203.6123z M334.13672,202.39447c-4.10638,3.10352-9.9599,2.25983-13.039-1.85449
		l-27.66901-36.30951l-5.94818,5.94141v23.67383c0,5.76367-4.66022,10.41699-10.41211,10.41699
		c-5.75494,0-10.41803-4.65332-10.41803-10.41699v-76.729c0-5.75928,4.66309-10.42242,10.41803-10.42242
		c5.75189,0,10.41211,4.66315,10.41211,10.42242v27.12891l32.71869-32.71924c3.5899-3.57715,9.39648-3.57715,12.97168,0
		c3.57623,3.57861,3.57623,9.3891-0.00391,12.96143l-26.42871,26.44043l29.25293,38.41846
		C339.0791,193.46088,338.25104,199.30566,334.13672,202.39447z"/>
</g>
</svg>
