<?xml version="1.0" encoding="utf-8"?>
<!-- Generator: Adobe Illustrator 26.1.0, SVG Export Plug-In . SVG Version: 6.00 Build 0)  -->
<svg version="1.1" id="Layer_1" xmlns="http://www.w3.org/2000/svg" xmlns:xlink="http://www.w3.org/1999/xlink" x="0px" y="0px"
	 viewBox="0 0 387 355" style="enable-background:new 0 0 387 355;" xml:space="preserve">
<style type="text/css">
	.st0{fill:#AA8453;}
	.st1{fill:#FFFFFF;}
</style>
<g>
	<path class="st0" d="M194.12889,0.3911C87.51659,0.3911,1.0977,68.708,1.0977,152.99319
		c0,54.8564,36.6176,102.93161,91.57369,129.83002c-4.0371,15.0762-14.61819,54.61227-16.7437,63.06738
		c-2.6123,10.49899,3.8526,10.35739,8.084,7.5303c3.3179-2.20999,52.89649-35.90921,74.28762-50.457
		c11.60699,1.7197,23.58249,2.63379,35.82959,2.63379c106.6084,0,193.03131-68.33307,193.03131-152.60449
		C387.16019,68.708,300.7373,0.3911,194.12889,0.3911"/>
	<g>
		<path class="st1" d="M116.4521,108.0479H60.0029c-5.3051,0-9.6025,4.29881-9.6025,9.59911c0,5.3042,4.2974,9.60249,9.6025,9.60249
			h18.3506v67.6216c0,2.457,1.002,4.875,2.7627,6.62691c1.7217,1.7383,4.1333,2.7393,6.6006,2.7393h2.0513
			c2.4585,0,4.8598-1.00101,6.58791-2.73531c1.75629-1.752,2.76219-4.1563,2.76219-6.63091v-67.6216h17.3339
			c5.3101,0,9.6084-4.29829,9.6084-9.60249C126.06049,112.3467,121.76219,108.0479,116.4521,108.0479z"/>
		<path class="st1" d="M252.1084,186.18069h-26.2471v-69.064c0-5.7593-4.6611-10.4224-10.4131-10.4224
			c-5.75391,0-10.41501,4.6631-10.41501,10.4224v74.44291c0,0.5771,0.07231,1.1201,0.16211,1.66699
			c-0.1035,0.53711-0.16211,1.10251-0.16211,1.6611c0,4.8203,3.8867,8.72461,8.7119,8.72461h38.36331
			c4.8252,0,8.71091-3.90431,8.71091-8.72461C260.81931,190.08591,256.93359,186.18069,252.1084,186.18069z"/>
		<path class="st1" d="M335.99118,189.34669l-29.2529-38.41849l26.42871-26.44041c3.58011-3.5723,3.58011-9.3828,0.00391-12.9614
			c-3.5752-3.57719-9.38181-3.57719-12.97171,0l-32.71869,32.71922V117.1167c0-5.7593-4.66022-10.4224-10.41211-10.4224
			c-5.75491,0-10.418,4.6631-10.418,10.4224v76.729c0,5.7637,4.66309,10.41699,10.418,10.41699
			c5.75189,0,10.41211-4.65329,10.41211-10.41699v-23.6738l5.94818-5.94141l27.66901,36.30949
			c3.0791,4.1143,8.93262,4.95801,13.039,1.85451C338.25101,199.30569,339.0791,193.46091,335.99118,189.34669z"/>
		<path class="st1" d="M197.2363,191.8428l-28.13181-76.958c0,0-0.06639-0.062-0.0938-0.08601
			c-1.80321-4.687-6.9892-8.1045-13.18111-8.1045c-6.86769,0-12.5479,4.1958-13.6763,9.688
			c-0.19189,0.4082-0.38379,0.8198-0.5381,1.2647L113.9526,191.8428c-1.708,4.8701,0.8521,10.1933,5.7017,11.89839
			c4.8599,1.71001,10.19479-0.85449,11.90331-5.7119l4.78569-13.66409h38.5024l4.78421,13.66409
			c1.709,4.85741,7.03711,7.42191,11.897,5.7119C196.38229,202.0361,198.94429,196.71291,197.2363,191.8428z M142.45309,166.9268
			l12.93649-36.9156c0.14561,0,0.272,0.03909,0.41701,0.03909l12.9278,36.87651H142.45309z"/>
	</g>
</g>
</svg>
