<?xml version="1.0" encoding="utf-8"?>
<!-- Generator: Adobe Illustrator 26.1.0, SVG Export Plug-In . SVG Version: 6.00 Build 0)  -->
<svg version="1.1" id="레이어_1" xmlns="http://www.w3.org/2000/svg" xmlns:xlink="http://www.w3.org/1999/xlink" x="0px"
	 y="0px" viewBox="0 0 784.99677 230.3183" style="enable-background:new 0 0 784.99677 230.3183;" xml:space="preserve">
<style type="text/css">
	.st0{fill:#FFFFFF;}
</style>
<g>
	<g>
		<g>
			<path class="st0" d="M277.28656,76.10356h33.86865V60.69849h-31.46506c-1.42062,0-3.16788-1.20181-3.16788-3.38676
				c0-1.8581,1.63794-3.16801,3.16788-3.16801h35.61606c2.73187,0,3.93353,1.63813,3.93353,4.47934v18.46357
				c0,3.27734-1.52988,5.57154-4.80719,5.57154h-26.439v13.22012c0,1.85688,1.20184,2.8398,2.83981,2.8398h32.0119
				c2.0755,0,3.27734,1.85815,3.27734,3.38681c0,1.63936-1.20184,3.27871-3.27734,3.27871h-36.38159
				c-4.26041,0-6.44537-2.62246-6.44537-6.99214v-12.6747c0-3.05859-1.09253-3.93218-3.6055-4.69654
				c-0.98306-0.32822-2.40369-0.65625-2.40369-2.62245C274.00912,76.64912,275.53781,76.10356,277.28656,76.10356z
				 M349.72177,45.18399v30.48202h17.69928c1.63797,0,2.94925,1.20185,2.94925,3.38663c0,1.85811-1.31128,3.16801-2.83994,3.16801
				h-17.80859v42.17211c0,7.10157-2.29437,10.26958-5.89975,10.26958h-2.07562V51.30268c0-4.26054-2.18491-5.24364-5.79031-5.89989
				c-3.1694-0.54542-4.26181-1.31118-4.26181-2.62232c0-1.63808,1.52994-2.51313,3.49609-2.51313h10.26965
				C348.08243,40.26734,349.72177,42.56295,349.72177,45.18399z"/>
			<path class="st0" d="M430.56848,62.77398h-31.68387v29.06128c0,1.74882,1.20187,2.73188,2.62241,2.73188h32.99503
				c2.18497,0,3.27734,1.74741,3.27734,3.27734c0,1.74877-1.09238,3.38676-3.16803,3.38676h-36.16287
				c-3.05997,0-7.53912-1.20185-7.53912-7.21107V68.23624c0-4.91529-0.10928-6.00782-3.71478-7.1002
				c-1.52866-0.43755-2.7305-0.98451-2.7305-2.51299c0-1.96757,1.52863-2.51313,3.05853-2.51313h42.60834
				c1.52994,0,3.05997,1.96616,3.05997,3.49605C433.19092,61.13603,431.87964,62.77398,430.56848,62.77398z M462.03345,45.18399
				v79.31819c0,7.10162-2.40372,10.26949-6.00925,10.26949h-1.96616v-83.469c0-4.26054-2.18478-5.24364-5.79028-5.89989
				c-3.168-0.54542-4.26041-1.31118-4.26041-2.62232c0-1.63808,1.63794-2.51313,3.49606-2.51313h10.16016
				C460.28601,40.26734,462.03345,42.56295,462.03345,45.18399z"/>
			<path class="st0" d="M490.87592,70.31309c0-12.23701,10.70718-21.41411,23.271-21.41411
				c12.56525,0,23.1629,8.95835,23.1629,21.41411c0,12.78262-10.59766,21.41284-23.1629,21.41284
				C501.5831,91.72593,490.87592,82.43941,490.87592,70.31309z M499.28885,70.31309c0,8.63027,6.77338,14.96753,14.85806,14.96753
				c8.08466,0,14.75-6.22797,14.75-14.96753c0-8.30342-6.66534-14.96753-14.75-14.96753
				C506.06223,55.34556,499.28885,61.57212,499.28885,70.31309z M516.005,120.35112c0-11.47148,10.0509-21.41425,22.83344-21.41425
				c12.45581,0,22.83472,9.94277,22.83472,21.41425c0,11.36197-10.37891,21.30338-22.83472,21.30338
				C526.27466,141.6545,516.005,131.71309,516.005,120.35112z M524.19904,120.35112c0,7.75645,6.88281,14.52998,14.6394,14.52998
				c7.64844,0,14.64075-6.77353,14.64075-14.52998c0-7.75786-6.99231-14.64072-14.64075-14.64072
				C531.08185,105.7104,524.19904,112.59326,524.19904,120.35112z M563.85809,45.18399v21.74233h17.69928
				c1.638,0,2.94928,1.20185,2.94928,3.27748c0,1.8567-1.31128,3.2773-2.83984,3.2773h-17.80872v14.31251
				c0,6.88286-2.29425,10.16029-5.89978,10.16029h-2.07544V51.30268c0-4.36987-2.18494-5.24364-5.79047-5.89989
				c-3.16925-0.54542-4.26178-1.31118-4.26178-2.62232c0-1.74741,1.53003-2.51313,3.49609-2.51313h10.26959
				C562.21875,40.26734,563.85809,42.56295,563.85809,45.18399z"/>
			<path class="st0" d="M662.51471,109.75341c-5.57153,2.83985-17.91797,4.47916-27.42328,4.47916h-33.86865
				c-2.29419,0-3.49603-1.63931-3.49603-3.2773c0-1.63936,1.31116-3.27748,3.60553-3.27748h33.43237
				c9.17725,0,18.02606,0,26.76703-2.07686C665.46399,104.83676,665.46399,108.33281,662.51471,109.75341z M604.71887,72.38858
				c0-12.67315,10.4884-21.85025,22.61609-21.85025c12.12756,0,22.7254,9.1771,22.7254,21.85025
				c0,13.11079-10.59784,21.74106-22.7254,21.74106C615.09918,94.12964,604.71887,84.95258,604.71887,72.38858z M612.91302,72.38858
				c0,9.17719,6.66534,15.40503,14.42194,15.40503c7.64722,0,14.53131-6.22784,14.53131-15.40503
				c0-9.06763-6.88409-15.29561-14.53131-15.29561C619.46906,57.09297,612.91302,63.21148,612.91302,72.38858z M676.17114,45.18399
				v79.31819c0,7.10162-2.51312,10.26949-6.00922,10.26949h-2.0755v-83.469c0-4.26054-2.18488-5.24364-5.89972-5.89989
				c-3.05853-0.54542-4.26044-1.31118-4.26044-2.62232c0-1.63808,1.74731-2.51313,3.60541-2.51313h10.26959
				C674.31427,40.26734,676.17114,42.56295,676.17114,45.18399z"/>
			<path class="st0" d="M766.3056,89.21298c-5.68103,2.73174-19.11987,4.26163-28.62518,4.26163h-2.51172v3.82427
				c0,7.20966-2.73175,10.59643-5.68225,10.59643h-2.40369v-14.4207h-22.06909c-2.29425,0-3.49609-1.52988-3.49609-3.16788
				c0-1.53002,1.31116-3.38812,3.60553-3.38812h32.23053c9.17719,0,19.11859,0,27.85956-1.85674
				C769.03607,84.29752,769.03607,87.68433,766.3056,89.21298z M709.38477,62.88345c0-10.59784,8.95844-19.33739,21.85034-19.33739
				c12.34509,0,21.74109,8.5208,21.74109,19.33739c0,11.03516-8.9585,19.22916-21.74109,19.22916
				C718.23376,82.1126,709.38477,73.26235,709.38477,62.88345z M717.46942,62.88345c0,6.77339,5.35297,12.8919,13.76569,12.78257
				c8.30347,0.10933,13.65643-5.79043,13.65643-12.78257c0-6.88286-5.57172-12.78262-13.65643-12.89208
				C722.82239,50.10083,717.46942,55.67237,717.46942,62.88345z M730.57886,131.05824v-8.41293
				c0-4.15231-1.52869-4.80719-5.13403-5.68101c-3.16803-0.65625-3.93378-1.31114-3.93378-3.05991
				c0-1.63799,1.96759-2.29424,3.60553-2.29424h9.06781c2.51294,0,4.37103,2.07549,4.37103,4.91666v14.6395
				c0,1.85809,0.54565,2.62227,2.29443,2.62227h36.92719c2.18494,0,3.60553,1.53008,3.60553,3.27748
				c0,1.52989-1.31128,3.38799-3.49622,3.38799h-36.27234C734.18439,140.45404,730.47076,138.59595,730.57886,131.05824z
				 M780.50879,45.18399v59.76205c0,7.10161-2.513,10.26962-6.00909,10.26962h-2.07562v-9.72266h-21.30475
				c-1.31116,0-2.6225-1.4206-2.6225-3.38813c0-1.9662,1.31134-3.27734,2.73193-3.27734h21.19531V51.30268
				c0-4.36987-2.1861-5.24364-5.89972-5.89989c-3.06-0.65489-4.26178-1.42047-4.26178-2.73174
				c0-1.63799,1.74878-2.40371,3.60553-2.40371h10.26959C778.65063,40.26734,780.50879,42.45366,780.50879,45.18399z"/>
		</g>
		<g>
			<path class="st0" d="M334.50684,191.64413h-3.65887v-26.64577h9.64526c1.35522,0,2.56247,0.18549,3.62216,0.55501
				c1.05911,0.36952,1.94617,0.875,2.66116,1.51526c0.7142,0.64021,1.26178,1.40456,1.64395,2.29161
				c0.3822,0.88564,0.57288,1.85947,0.57288,2.91859v0.96165c0,1.50334-0.38803,2.83316-1.16379,3.99107
				c-0.77634,1.15773-1.87936,2.02074-3.30798,2.58638l5.28482,11.82619h-3.95425l-4.80399-11.12323h-6.54135V191.64413z
				 M334.50684,177.41565h5.10013c2.06946,0,3.54141-0.38698,4.41577-1.16319c0.87439-0.77635,1.31195-1.81676,1.31195-3.12267
				v-0.74026c0-1.30455-0.43091-2.33958-1.29327-3.1039c-0.86301-0.76312-2.21765-1.14587-4.06509-1.14587h-5.46948V177.41565z"/>
			<path class="st0" d="M385.02567,191.64413h-3.84354l-2.80853-7.83389h-10.20026l-2.80847,7.83389h-3.73288l9.90472-26.64577
				h3.54755L385.02567,191.64413z M369.28256,180.6689h7.98245l-2.21744-6.24664c-0.19748-0.54138-0.36951-1.01637-0.51752-1.42183
				c-0.14755-0.40683-0.28351-0.80038-0.40625-1.18318c-0.12408-0.38152-0.25342-0.78157-0.38815-1.20044
				c-0.13614-0.41887-0.29013-0.93639-0.46216-1.5527c-0.19748,0.61632-0.35754,1.13924-0.48022,1.56996
				c-0.12408,0.43228-0.24683,0.83247-0.36951,1.20186c-0.12396,0.36952-0.25348,0.75768-0.38821,1.16451
				c-0.13596,0.40546-0.302,0.88045-0.49884,1.42183L369.28256,180.6689z"/>
			<path class="st0" d="M406.86664,164.99837c3.67087,0,6.45471,0.97911,8.35275,2.93863
				c1.89682,1.95818,2.84521,4.78596,2.84521,8.48091v3.80687c0,3.69617-0.92377,6.52269-2.77182,8.48209
				c-1.84747,1.95816-4.65659,2.93727-8.42615,2.93727h-8.8324v-26.64577H406.86664z M401.69312,188.39209h4.84143
				c1.1824,0,2.25418-0.1534,3.21536-0.46144c0.96027-0.30814,1.77933-0.79498,2.45688-1.46063
				c0.67767-0.66431,1.20123-1.5273,1.57074-2.58638c0.37015-1.05908,0.55484-2.34096,0.55484-3.84294v-3.43748
				c0-1.50185-0.18469-2.78372-0.55484-3.84294c-0.36951-1.05908-0.89307-1.92871-1.57074-2.60641
				c-0.67755-0.67757-1.49661-1.16977-2.45688-1.47795c-0.96118-0.308-2.03296-0.4614-3.21536-0.4614h-4.84143V188.39209z"/>
			<path class="st0" d="M436.35815,164.99837v26.64577h-3.65887v-26.64577H436.35815z"/>
			<path class="st0" d="M472.75983,191.64413h-3.84354l-2.80853-7.83389h-10.20023l-2.80856,7.83389h-3.73282l9.90469-26.64577
				h3.54758L472.75983,191.64413z M457.01672,180.6689h7.9826l-2.21759-6.24664c-0.19748-0.54138-0.36951-1.01637-0.51752-1.42183
				c-0.1474-0.40683-0.28351-0.80038-0.40622-1.18318c-0.12411-0.38152-0.25345-0.78157-0.38821-1.20044
				c-0.13596-0.41887-0.2901-0.93639-0.46216-1.5527c-0.19745,0.61632-0.35748,1.13924-0.48022,1.56996
				c-0.12411,0.43228-0.2468,0.83247-0.36954,1.20186c-0.1239,0.36952-0.25342,0.75768-0.388,1.16451
				c-0.13611,0.40546-0.30212,0.88045-0.49902,1.42183L457.01672,180.6689z"/>
			<path class="st0" d="M489.98166,164.99837l10.3476,17.96092c0.27072,0.44412,0.57288,1.00436,0.9057,1.68188
				c0.3327,0.67769,0.65891,1.41133,0.97906,2.19958v-21.84239h3.40005v26.64577H501.401l-10.34763-17.88599
				c-0.27145-0.49362-0.57288-1.07249-0.9057-1.73819c-0.33282-0.66425-0.65964-1.39111-0.9791-2.1795v21.80368h-3.40002v-26.64577
				H489.98166z"/>
			<path class="st0" d="M526.60529,191.64413v-23.50438h-8.13v-3.14139h19.91968v3.14139h-8.1308v23.50438H526.60529z"/>
			<path class="st0" d="M589.02509,188.65092c-1.33057,1.28183-2.78442,2.16751-4.36108,2.66112
				c-1.5766,0.49208-3.26465,0.73891-5.06281,0.73891c-1.60187,0-3.05511-0.24005-4.36102-0.72028
				c-1.30597-0.48021-2.427-1.21384-3.36273-2.19954c-0.93713-0.98447-1.66339-2.20499-2.18091-3.65886
				c-0.51691-1.45268-0.77563-3.16542-0.77563-5.13681v-4.02843c0-1.94612,0.25873-3.64542,0.77563-5.09932
				c0.51752-1.45392,1.25055-2.67317,2.19891-3.65887c0.94843-0.98573,2.0755-1.72478,3.38202-2.21686
				c1.30524-0.49361,2.74652-0.74045,4.32373-0.74045c1.84808,0,3.46155,0.22816,4.84143,0.68434
				c1.37915,0.45618,2.69769,1.17659,3.95422,2.16228l-1.8847,2.99321c-1.20728-0.98575-2.35962-1.638-3.45538-1.95818
				c-1.09656-0.32002-2.24908-0.48143-3.45557-0.48143c-1.01038,0-1.94012,0.1734-2.79047,0.51752
				c-0.84961,0.34549-1.58862,0.875-2.21686,1.59001c-0.62836,0.71486-1.11517,1.62595-1.4599,2.73438
				c-0.34546,1.10857-0.51764,2.42633-0.51764,3.95358v3.06801c0,1.52866,0.17218,2.8452,0.51764,3.95499
				c0.34473,1.10843,0.83154,2.01952,1.4599,2.73451c0.62823,0.71483,1.36725,1.24438,2.21686,1.58865
				c0.85034,0.34547,1.78009,0.51752,2.79047,0.51752c1.28064,0,2.5625-0.19612,3.84357-0.59091
				c1.28064-0.39355,2.47583-1.13387,3.58484-2.21822L589.02509,188.65092z"/>
			<path class="st0" d="M606.43237,164.99837v23.50438h12.74994v3.14139h-16.40875v-26.64577H606.43237z"/>
			<path class="st0" d="M635.84918,164.99837v26.64577h-3.65887v-26.64577H635.84918z"/>
			<path class="st0" d="M655.36182,164.99837l10.34766,17.96092c0.27069,0.44412,0.57281,1.00436,0.90564,1.68188
				c0.33289,0.67769,0.65894,1.41133,0.97906,2.19958v-21.84239h3.40002v26.64577h-4.21301l-10.3476-17.88599
				c-0.27136-0.49362-0.57294-1.07249-0.90576-1.73819c-0.33264-0.66425-0.65948-1.39111-0.97906-2.1795v21.80368h-3.40002
				v-26.64577H655.36182z"/>
			<path class="st0" d="M689.95349,164.99837v26.64577h-3.65887v-26.64577H689.95349z"/>
			<path class="st0" d="M724.54376,188.65092c-1.33057,1.28183-2.78448,2.16751-4.36127,2.66112
				c-1.5766,0.49208-3.26465,0.73891-5.06262,0.73891c-1.60205,0-3.0553-0.24005-4.36127-0.72028
				c-1.30573-0.48021-2.42694-1.21384-3.36267-2.19954c-0.93701-0.98447-1.66327-2.20499-2.18079-3.65886
				c-0.51691-1.45268-0.77576-3.16542-0.77576-5.13681v-4.02843c0-1.94612,0.25885-3.64542,0.77576-5.09932
				c0.51752-1.45392,1.25043-2.67317,2.19879-3.65887c0.94836-0.98573,2.07562-1.72478,3.38214-2.21686
				c1.30511-0.49361,2.7464-0.74045,4.32379-0.74045c1.84808,0,3.46136,0.22816,4.84125,0.68434
				c1.37933,0.45618,2.69788,1.17659,3.95441,2.16228l-1.88477,2.99321c-1.20728-0.98575-2.35974-1.638-3.45557-1.95818
				c-1.09637-0.32002-2.2489-0.48143-3.45532-0.48143c-1.01044,0-1.94012,0.1734-2.79053,0.51752
				c-0.84973,0.34549-1.58862,0.875-2.21698,1.59001c-0.62817,0.71486-1.11505,1.62595-1.4599,2.73438
				c-0.34546,1.10857-0.51752,2.42633-0.51752,3.95358v3.06801c0,1.52866,0.17206,2.8452,0.51752,3.95499
				c0.34485,1.10843,0.83173,2.01952,1.4599,2.73451c0.62836,0.71483,1.36725,1.24438,2.21698,1.58865
				c0.8504,0.34547,1.78009,0.51752,2.79053,0.51752c1.28046,0,2.56232-0.19612,3.84351-0.59091
				c1.28052-0.39355,2.47571-1.13387,3.5849-2.21822L724.54376,188.65092z"/>
		</g>
	</g>
	<g>
		<path class="st0" d="M176.23605,157.36035c-0.0484,0.0611-0.08946,0.11041-0.13661,0.16942
			c-2.84697,4.43536-5.89513,8.23338-9.10428,11.3159c-0.14211,0.14088-0.32063,0.30713-0.54854,0.51114
			c-1.78217,1.65587-3.59489,3.07692-5.41736,4.24303c-8.94533,6.20224-20.66942,7.4015-27.20181,2.63185
			c-9.7496-7.11879-12.14736-20.32198-3.5255-36.58064c7.24739-13.666,5.15942-21.37984,2.51945-24.84031
			c-0.00203-0.00246-0.00378-0.00392-0.00589-0.00647c-0.84918-1.05298-1.78323-1.64737-3.12494-2.30976
			c-1.34174-0.66241-0.79826-1.97011-0.79826-1.97011s0.18629-0.74355,0.93245-1.01527
			c0.02731-0.01077,0.05594-0.01831,0.08397-0.02748c0.05705-0.01701,0.11029-0.03683,0.17366-0.04788
			c0.06918-0.01373,0.14102-0.01759,0.21281-0.02208l0.7915-0.08108c4.1427-0.6042,31.81245-5.69665,34.65363-33.84956
			c1.15361-11.42853-2.79781-20.48196-11.74408-26.90892c-7.11093-5.10835-14.74266-6.74832-18.03827-7.33333
			c-3.54503-0.58109-6.03006-0.88023-8.63298-1.03926c-10.5539-0.38559-35.9285,1.02857-54.14931,20.91782
			c9.16734,7.34554,12.55839,12.32426,12.7783,12.64402c0.09235,0.13428,1.118,1.56745,1.27233,1.85095
			c11.90738,17.59947,1.06017,33.95353-0.28997,35.8637c-0.63834,1.0269-6.60387,10.10365-19.35754,12.57204
			c-8.0357,1.55619-15.77807-1.20731-20.71111-7.39038c-6.40865-6.80599-13.21873-32.81371,16.24561-58.79512
			C54.98798,52.68431,43.5585,47.22808,28.8728,44.49583C13.08978,63.72957,3.61417,88.33702,3.61417,115.15913
			c0,21.29285,5.97307,41.18914,16.33046,58.11073c11.47458,5.11446,26.2033,9.15181,39.58085,5.10741
			c27.0525-8.1786,36.90884-34.39229,40.0545-45.2972c3.14566-10.90496,7.33987-35.02148,18.03503-53.05656
			c2.92966-4.94009,6.01458-8.58643,8.95135-11.28678c7.78474-7.15809,14.5226-7.62932,14.5226-7.62932
			c0.89104-0.15229,1.5851,0.711,1.5851,1.58518c0,0.86341-0.7025,1.57441-1.59105,1.5854
			c-0.17577,0.00697-4.37318,0.21593-9.97385,4.60231l-0.20023,0.16158c-5.31549,4.63974-14.974,16.27628-19.93684,42.08252
			c-0.45641,2.37349-0.89016,4.86038-1.34912,7.49318c-3.6235,20.77801-9.65058,50.40285-32.27773,65.81628
			c-9.76771,6.65372-21.97125,11.39355-36.78474,13.6171c19.74727,17.76613,45.87268,28.58142,74.5269,28.58142
			c54.81279,0,100.38507-39.56139,109.72206-91.6881c-2.38388-0.3736-4.97939-0.65695-7.82384-0.81012
			C190.02664,132.68251,176.23605,157.36035,176.23605,157.36035z"/>
		<path class="st0" d="M131.86752,37.38728c3.16521,0.321,6.37997,0.77829,9.64609,1.38146
			c28.72849,5.30352,40.28511,25.53619,38.76625,40.20315c-0.85747,8.28367-5.2063,16.24947-13.27206,22.81149
			c-9.17644,7.46557-20.16743,9.33192-28.90402,10.50173l-2.01035,0.20403c0,0,7.58443,5.36592,9.03606,13.55729
			c1.45164,8.19138-0.41479,15.03481-4.4586,24.3668c-2.74736,6.34016-3.21431,16.90117,0.82957,20.94507
			c0.22238,0.22249,0.41855,0.43289,0.5975,0.63493c0.5856,0.49687,1.22932,0.9254,1.93874,1.26746
			c10.60178,5.11121,23.87624-7.45262,31.72804-21.30011c0.23576-0.42714,5.89296-10.56125,16.7135-18.98607
			c7.7128-6.00528,19.21652-11.87884,33.84467-10.61726c0.15179-2.3806,0.23767-4.77915,0.23767-7.19811
			c0-61.56495-49.90823-111.47318-111.47319-111.47318c-33.41507,0-63.39155,14.70662-83.82265,37.99539
			c14.7917,3.02112,26.28459,8.70361,34.42192,14.01263C91.98574,34.23589,123.43544,36.34505,131.86752,37.38728z"/>
		<path class="st0" d="M69.52197,65.48745c-15.94909,20.95654-16.73901,33.88997-14.59314,41.04994
			c1.51346,5.05023,5.09927,8.90138,9.83774,10.56597c10.66406,3.74549,19.22781-7.00938,19.59995-7.48527
			c0.50363-0.6735,12.16754-16.67905-0.94272-33.86502c-1.72931-2.18823-5.83017-6.96587-12.36234-12.19839
			C70.54204,64.18439,70.02684,64.82406,69.52197,65.48745z"/>
	</g>
</g>
</svg>
