<?xml version="1.0" encoding="utf-8"?>
<!-- Generator: Adobe Illustrator 26.2.1, SVG Export Plug-In . SVG Version: 6.00 Build 0)  -->
<svg version="1.1" id="Outline" xmlns="http://www.w3.org/2000/svg" xmlns:xlink="http://www.w3.org/1999/xlink" x="0px" y="0px"
	 viewBox="0 0 512 512" style="enable-background:new 0 0 512 512;" xml:space="preserve">
<style type="text/css">
	.st0{fill:#707070;}
	.st1{fill:#AA8453;}
</style>
<g>
	<g>
		<path class="st0" d="M189,101.7c6.2-3.5,9.9-10,9.9-17v-33c0-3.4-2.8-6.2-6.2-6.2c-3.4,0-6.2,2.8-6.2,6.2v32.9
			c0,2.6-1.4,5-3.6,6.4l-56.4,32c-24.3,13.7-43.2,34.6-54.4,60.3c-1.4,3.1,0.1,6.7,3.2,8.1c0.8,0.4,1.7,0.6,2.4,0.6
			c2.3,0,4.7-1.4,5.6-3.7c10.2-23.2,27.1-42.1,49.2-54.5L189,101.7z"/>
		<path class="st0" d="M74.5,248.7c-1.5-12.1-1-24.5,1.3-36.6c0.7-3.4-1.5-6.5-4.9-7.2c-3.4-0.7-6.5,1.5-7.2,4.9
			c-2.6,13.4-3.2,27-1.5,40.5l3,24.3v124.4c0,3.4,2.8,6.2,6.2,6.2s6.2-2.8,6.2-6.2V274.2c0-0.3,0-0.5,0-0.7L74.5,248.7z"/>
		<path class="st0" d="M151.5,417.5c-3.4-0.2-6.4,2.3-6.5,5.7l-2.5,36.6c-0.3,3.4,2.3,6.4,5.7,6.5c0.2,0,0.3,0,0.5,0
			c3.2,0,5.9-2.5,6.2-5.7l2.5-36.6C157.3,420.7,154.8,417.8,151.5,417.5L151.5,417.5z"/>
		<path class="st0" d="M154.1,336.5c-4-16.7-6-51.2-6-51.2v-56.6c0-3.4-2.8-6.2-6.2-6.2c-3.4,0-6.2,2.8-6.2,6.2v88.5
			c0,11.9-2.5,23.4-7.4,34.2c-1.4,3.1,0,6.7,3.1,8.1c0.8,0.4,1.7,0.6,2.5,0.6c2.3,0,4.6-1.3,5.6-3.6c1.6-3.5,2.9-6.9,4-10.6l0.6,2.2
			c3,12.7,4.1,25.8,3.2,38.9l-0.7,10c-0.3,3.4,2.3,6.4,5.7,6.5c0.2,0,0.3,0,0.5,0c3.2,0,5.9-2.5,6.2-5.7l0.7-10
			c1-14.3-0.2-28.6-3.5-42.5L154.1,336.5z"/>
		<path class="st0" d="M323,101.7l32.9,18.6c0.9,0.6,2,0.8,3,0.8c2.1,0,4.2-1.1,5.3-3.2c1.7-3,0.7-6.7-2.3-8.4L329,90.9
			c-2.2-1.3-3.6-3.7-3.6-6.4V51.7c0-3.4-2.8-6.2-6.2-6.2c-3.4,0-6.2,2.8-6.2,6.2v32.9C313,91.7,316.9,98.2,323,101.7L323,101.7z"/>
		<path class="st0" d="M385.6,122.9l-0.7-0.4c-3-1.7-6.7-0.7-8.4,2.3c-1.7,3-0.7,6.7,2.3,8.4l0.7,0.4c41,23.2,63.7,68.4,58,115.1
			l-3.1,24.7c0,0.3-0.1,0.5-0.1,0.7v124.8c0,3.4,2.8,6.2,6.2,6.2s6.2-2.8,6.2-6.2V274.6l3-24.3C456.1,198.5,430.9,148.5,385.6,122.9
			L385.6,122.9z"/>
		<path class="st0" d="M369,449.6c-0.3-3.4-3.2-6-6.5-5.7c-3.4,0.3-6,3.2-5.7,6.5l0.7,10.4c0.2,3.3,2.9,5.7,6.2,5.7
			c0.2,0,0.3,0,0.5,0c3.4-0.3,6-3.2,5.7-6.5L369,449.6z"/>
		<path class="st0" d="M364,285.3c0,17.2-2.1,34.5-6,51.2l-2.1,8.8c-1.3,5.7-2.3,11.5-3,17.4c-0.4,3.4,2.1,6.4,5.4,6.8
			c0.2,0,0.5,0,0.7,0c3.1,0,5.8-2.3,6.1-5.5c0.6-5.3,1.5-10.7,2.7-15.9l0.6-2.2c1.1,3.6,2.4,7.1,4,10.6c1,2.2,3.3,3.6,5.6,3.6
			c0.8,0,1.7-0.2,2.5-0.6c3.1-1.4,4.5-5,3.1-8.1c-4.9-10.8-7.4-22.3-7.4-34.2v-88.5c0-3.4-2.8-6.2-6.2-6.2s-6.2,2.8-6.2,6.2
			L364,285.3L364,285.3z"/>
		<path class="st0" d="M216.1,156.9c-3.4,0-6.2,2.8-6.2,6.2v31.5c0,11-2.4,22.1-7,32.1l-4.9,10.6c-1.4,3.1-0.1,6.7,3,8.2
			c0.8,0.4,1.7,0.6,2.6,0.6c2.3,0,4.6-1.3,5.6-3.6l4.9-10.6c5.3-11.6,8.2-24.5,8.2-37.3v-31.5C222.3,159.7,219.5,156.9,216.1,156.9
			L216.1,156.9z"/>
		<path class="st0" d="M302.8,242.4c1,2.2,3.3,3.6,5.6,3.6c0.8,0,1.8-0.2,2.6-0.6c3.1-1.4,4.5-5,3-8.2l-4.9-10.6
			c-4.6-10-7-21.1-7-32.1v-31.5c0-3.4-2.8-6.2-6.2-6.2s-6.2,2.8-6.2,6.2v31.5c0,12.8,2.8,25.7,8.2,37.3L302.8,242.4z"/>
	</g>
	<path class="st1" d="M246.6,131.7c10.3,0,18.6-8.3,18.6-18.6s-8.3-18.6-18.6-18.6s-18.6,8.3-18.6,18.6S236.3,131.7,246.6,131.7z
		 M246.6,106.8c3.5,0,6.3,2.8,6.3,6.3c0,3.5-2.8,6.3-6.3,6.3s-6.3-2.8-6.3-6.3C240.3,109.6,243.1,106.8,246.6,106.8z"/>
	<path class="st1" d="M189,205.8c0-9.8-8-17.8-17.8-17.8c-9.8,0-17.8,8-17.8,17.8c0,9.8,8,17.8,17.8,17.8
		C181,223.6,189,215.6,189,205.8z M171.2,211.3c-3.1,0-5.5-2.4-5.5-5.5s2.4-5.5,5.5-5.5s5.5,2.4,5.5,5.5
		C176.7,208.8,174.3,211.3,171.2,211.3z"/>
	<path class="st1" d="M335.5,276.3c0-9-7.3-16.3-16.3-16.3c-9,0-16.3,7.3-16.3,16.3c0,9,7.3,16.3,16.3,16.3
		C328.2,292.6,335.5,285.3,335.5,276.3z M319.2,280.3c-2.1,0-3.9-1.8-3.9-3.9c0-2.1,1.8-3.9,3.9-3.9c2.1,0,3.9,1.8,3.9,3.9
		C323.1,278.5,321.4,280.3,319.2,280.3z"/>
	<path class="st1" d="M242.3,318.1c10.9,0,19.9-9,19.9-19.9s-9-19.9-19.9-19.9s-19.9,9-19.9,19.9
		C222.4,309.1,231.4,318.1,242.3,318.1L242.3,318.1z M242.3,290.6c4.2,0,7.6,3.4,7.6,7.6s-3.4,7.6-7.6,7.6c-4.2,0-7.6-3.4-7.6-7.6
		S238.1,290.6,242.3,290.6L242.3,290.6z"/>
	<path class="st1" d="M195.5,362.8c-9.9,0-17.9,8-17.9,17.9c0,9.9,8,17.9,17.9,17.9s17.9-8,17.9-17.9S205.4,362.8,195.5,362.8z
		 M195.5,386.2c-3.1,0-5.6-2.5-5.6-5.6c0-3.1,2.5-5.6,5.6-5.6s5.6,2.5,5.6,5.6C201.1,383.8,198.6,386.2,195.5,386.2z"/>
	<path class="st1" d="M290.4,326.6c-9.9,0-17.9,8-17.9,17.9s8,17.9,17.9,17.9c9.9,0,17.9-8,17.9-17.9S300.3,326.6,290.4,326.6z
		 M290.4,350.2c-3.1,0-5.6-2.5-5.6-5.6c0-3.1,2.5-5.6,5.6-5.6c3.1,0,5.6,2.5,5.6,5.6C296,347.6,293.5,350.2,290.4,350.2z"/>
	<path class="st1" d="M293,417h-0.8c-0.2-2.1-0.7-4.3-1.7-6.2l1.5-1.5c1.8-1.8,1.8-4.6,0-6.4s-4.6-1.8-6.4,0l-1.2,1.2
		c-1.2-0.7-2.6-1.4-4.1-1.8v-1.5c0-2.4-2-4.5-4.5-4.5c-2.4,0-4.5,2-4.5,4.5v1.6c-1.5,0.4-2.8,1-4.1,1.8l-1.2-1.2
		c-1.8-1.8-4.6-1.8-6.4,0s-1.8,4.6,0,6.4l1.5,1.5c-0.9,1.9-1.5,3.9-1.7,6.2h-0.8c-2.4,0-4.5,2-4.5,4.5s2,4.5,4.5,4.5h0.8
		c0.2,2.1,0.7,4.3,1.7,6.2l-1.5,1.5c-1.8,1.8-1.8,4.6,0,6.4c0.8,0.8,2.1,1.3,3.2,1.3c1.1,0,2.2-0.5,3.2-1.3l1.2-1.2
		c1.2,0.7,2.6,1.4,4.1,1.8v1.6c0,2.4,2,4.5,4.5,4.5c2.4,0,4.5-2,4.5-4.5v-1.6c1.5-0.4,2.8-1,4.1-1.8l1.2,1.2
		c0.8,0.8,2.1,1.3,3.2,1.3s2.2-0.5,3.2-1.3c1.8-1.8,1.8-4.6,0-6.4l-1.5-1.5c0.9-1.9,1.5-3.9,1.7-6.2h0.8c2.4,0,4.5-2,4.5-4.5
		S295.6,417,293,417L293,417z M275.9,432.1c-4.1,0-7.4-3.4-7.4-7.4v-6.4c0-4.1,3.4-7.4,7.4-7.4c4.1,0,7.4,3.4,7.4,7.4v6.4
		C283.3,428.8,280,432.1,275.9,432.1z"/>
	<path class="st1" d="M374.2,400.9h-3.9c-0.5-1.7-1.1-3.3-2-4.8l2.8-2.8c1.8-1.8,1.8-4.6,0-6.4s-4.6-1.8-6.4,0l-2.8,2.8
		c-1.5-0.8-3.1-1.5-4.8-2v-3.9c0-2.4-2-4.5-4.5-4.5c-2.5,0-4.5,2-4.5,4.5v3.9c-1.7,0.5-3.3,1.1-4.8,2l-2.8-2.8
		c-1.8-1.8-4.6-1.8-6.4,0s-1.8,4.6,0,6.4l2.8,2.8c-0.8,1.5-1.5,3.1-2,4.8h-3.9c-2.4,0-4.5,2-4.5,4.5s2,4.5,4.5,4.5h3.9
		c0.5,1.7,1.1,3.3,2,4.8l-2.8,2.8c-1.8,1.8-1.8,4.6,0,6.4c0.8,0.8,2.1,1.3,3.2,1.3s2.2-0.5,3.2-1.3l2.8-2.8c1.5,0.8,3.1,1.5,4.8,2
		v3.9c0,2.4,2,4.5,4.5,4.5c2.5,0,4.5-2,4.5-4.5V423c1.7-0.5,3.3-1.1,4.8-2l2.8,2.8c0.8,0.8,2.1,1.3,3.2,1.3s2.2-0.5,3.2-1.3
		c1.8-1.8,1.8-4.6,0-6.4l-2.8-2.8c0.8-1.5,1.5-3.1,2-4.8h3.9c2.4,0,4.5-2,4.5-4.5S376.8,400.9,374.2,400.9L374.2,400.9z
		 M352.8,396.2c5,0,9.2,4.1,9.2,9.2c0,5-4.1,9.2-9.2,9.2c-5,0-9.2-4.1-9.2-9.2C343.7,400.3,347.8,396.2,352.8,396.2z"/>
</g>
</svg>
