<?xml version="1.0" encoding="utf-8"?>
<!-- Generator: Adobe Illustrator 26.2.1, SVG Export Plug-In . SVG Version: 6.00 Build 0)  -->
<svg version="1.1" id="Outline" xmlns="http://www.w3.org/2000/svg" xmlns:xlink="http://www.w3.org/1999/xlink" x="0px" y="0px"
	 viewBox="0 0 512 512" style="enable-background:new 0 0 512 512;" xml:space="preserve">
<style type="text/css">
	.st0{fill:#707070;}
	.st1{fill:#AA8453;}
</style>
<g>
	<g>
		<g>
			<path class="st0" d="M288,435.4l-77.8-61.5c-8.9-7-14.2-17.7-14.3-29.1c-0.5-50.7-8.1-143.8-19.9-211.5c-0.6-3.4-3.8-5.6-7.1-5.1
				c-3.4,0.6-5.6,3.8-5.1,7.1c11.7,67.1,19.2,159.1,19.7,209.4c0.2,15.1,7,29.2,19,38.6l77.8,61.5c1.7,1.4,2.4,3.7,1.8,5.8
				c-0.7,2.3-2.8,4-5.3,4c-0.6,0-1.2-0.1-1.8-0.3c-17.1-6.1-49-17.3-70.4-23.4c-13.5-4-24.8-5-35.9-6c-7.5-0.7-14.5-1.4-22.1-2.8
				c-5.7-1.1-8.4-6.2-9.7-10.2c-3.1-9.5-1.5-24.9,9.2-36.6c0.8-0.9,1.4-2,1.5-3.3c1.9-12.2-9.5-78-25.8-107.3
				c-27.3-49.1-33.5-80.2-21.4-111.2c0.9-2.5,0.2-5.5-2-7.1s-5.2-1.7-7.4-0.1c-6.2,4.6-26.6,19.7-42.2,31.3c-2.7,2-3.4,5.9-1.2,8.6
				c2,2.7,5.9,3.4,8.6,1.2c8.8-6.5,19.1-14.2,27.6-20.5c-6.2,33.6,6.4,66.3,27.2,103.7c15.3,27.2,24.7,85.4,24.5,97.7
				c-11.1,13.2-15.3,31.9-10.3,47.1c3.3,10,10.1,16.7,19,18.5c8.2,1.6,15.9,2.3,23.4,3.1c10.4,0.9,21.1,2,33.6,5.6
				c21,6,52.7,17.1,69.5,23.2c1.9,0.7,4,1,6,1c7.9,0,15-5.3,17.2-13C296.1,447.3,293.7,439.9,288,435.4z"/>
		</g>
	</g>
	<g>
		<g>
			<path class="st0" d="M171.4,108.6c-8.6-40.4-15.9-50-20.5-53.9c-20-16.3-54.5-10.1-99.9,4.1c-3.3,1-5.1,4.5-4.1,7.7
				c1,3.3,4.5,5.1,7.7,4.1c36.1-11.3,71.8-19.8,88.6-6.3c1.7,1.4,8.1,8.9,16.3,46.9c0.6,2.8,3.3,4.9,6,4.9c0.4,0,0.9-0.1,1.3-0.2
				C169.9,115.3,172.1,112,171.4,108.6z"/>
		</g>
	</g>
	<g>
		<g>
			<path class="st1" d="M384.2,208.6l-11.9-32.7c-1.1-3.3-4.7-4.9-7.9-3.7c-3.3,1.1-4.9,4.7-3.7,7.9l11.9,32.7
				c0.9,2.5,3.4,4.1,5.8,4.1c0.7,0,1.4-0.1,2.1-0.3C383.7,215.3,385.4,211.7,384.2,208.6z"/>
		</g>
	</g>
	<g>
		<g>
			<path class="st1" d="M349.6,208.6l-11.9-32.7c-1.1-3.3-4.7-4.9-7.9-3.7c-3.3,1.1-4.9,4.7-3.7,7.9l11.9,32.7
				c0.9,2.5,3.4,4.1,5.8,4.1c0.7,0,1.4-0.1,2.1-0.3C349.1,215.3,350.7,211.7,349.6,208.6z"/>
		</g>
	</g>
	<g>
		<g>
			<path class="st1" d="M459.6,401h-2.2c-14.5,0-27.3-9.5-31.7-23.3c11.8-5.7,18.7-18.9,15.7-32.5l-20.8-91.3
				c-0.9-3.8,0.2-7.6,2.8-10.5l29.5-30.9c6.3-6.6,6.5-16.9,0.7-23.7c-33.9-39.8-51.8-51.4-61-54.2c-10.7-3.4-29.7-3.8-58.2-1.3
				c-3.4,0.3-5.9,3.4-5.7,6.7c0.2,3.4,3.4,5.9,6.7,5.7c32.9-2.7,47.3-1.1,53.6,0.8c10.4,3.2,30.9,22.1,55.1,50.4
				c1.7,2.1,1.6,5.2-0.2,7.1L414.4,235c-5.5,5.8-7.7,13.9-6,21.8l10.4,45.3c-5.7,15.7-14.4,29.1-25.1,38.9l-10.5-45.9l0,0l-5.1-22.2
				l-3.4-14.5c-1.8-7.8-8.6-13.3-16.8-13.3h-93.1c-3.2,0-5.8-2.5-5.8-5.8v-13.9v-56.2v-8.6c0-2.7,2-5.2,4.8-5.7
				c11.2-1.8,28.4-4.5,47-6.7c3.4-0.4,5.8-3.5,5.4-6.9c-0.4-3.4-3.5-5.8-6.9-5.4c-18.9,2.2-36.3,5-47.5,6.8
				c-8.8,1.5-15.1,8.9-15.1,17.9v2.2H232c-6.2,0-11.3,5.1-11.3,11.3v46.3c0,6.2,5.1,11.3,11.3,11.3h14.6v7.7
				c0,10,8.1,18.1,18.1,18.1h93c2.2,0,4.2,1.5,4.7,3.8l0.8,3.5h-2.7c-10.5,0-19,8.5-19,19c0,10.5,8.5,19,19,19h11.4
				c13.3,58.3,12.9,57.5,14.8,61.5c4.8,10.1,15.1,16.7,26.6,16.5c5.7,19.3,23.6,32.7,43.8,32.7h2.2c3.4,0,6.2-2.7,6.2-6.2
				C465.7,403.9,463,401,459.6,401z M246.8,219.3h-13.5v-44.1h13.5V219.3z M360.6,290.3c-3.7,0-6.6-2.9-6.6-6.6
				c0-3.7,2.9-6.6,6.6-6.6h5.6l0.1,0.3l2.9,12.9H360.6L360.6,290.3z M407.7,367.5c-5.3-1.7-9.6-6.2-11-12l-0.2-0.9
				c10.6-8.2,19.6-19.3,26.6-32.3l5.9,25.9c0.1,0.5,0.3,1,0.3,1.6C430.9,361.8,419.2,371.4,407.7,367.5z"/>
		</g>
	</g>
</g>
</svg>
