<?xml version="1.0" encoding="utf-8"?>
<!-- Generator: Adobe Illustrator 26.2.1, SVG Export Plug-In . SVG Version: 6.00 Build 0)  -->
<svg version="1.1" id="Outline" xmlns="http://www.w3.org/2000/svg" xmlns:xlink="http://www.w3.org/1999/xlink" x="0px" y="0px"
	 viewBox="0 0 512 512" style="enable-background:new 0 0 512 512;" xml:space="preserve">
<style type="text/css">
	.st0{fill:#707070;}
	.st1{fill:#AA8453;stroke:#AA8453;stroke-width:4.666;stroke-miterlimit:10;}
	.st2{fill:#AA8453;stroke:#AA8453;stroke-width:3.3368;stroke-miterlimit:10;}
</style>
<g>
	<g>
		<path class="st0" d="M256,317.3c-23.1,0-31.3-5.4-38.8-10.9c-1.4-1.4-2.7-2-4.8-3.4c-12.3-4.1-34.7-21.8-42.9-63.3
			c-9.5-3.4-22.5-13.6-22.5-38.1c0-19.1,8.8-25.2,9.5-25.9c3.4-2,7.5-1.4,9.5,2c2,3.4,1.4,7.5-2,9.5s-4.1,3.4-4.1,15
			c0,23.1,14.3,25.9,15.7,25.9c2.7,0.7,5.4,2.7,6.1,5.4c6.1,40.2,27.2,55.1,34.7,57.2c0.7,0,1.4,0.7,1.4,0.7c2,1.4,4.1,2.7,6.1,4.1
			c6.8,4.8,12.3,8.8,31.3,8.8s24.5-4.1,31.3-8.8c2-1.4,4.1-2.7,6.1-4.1c0.7,0,0.7-0.7,1.4-0.7c7.5-2,28.6-17,34.7-57.2
			c0.7-3.4,2.7-5.4,6.1-5.4c1.4,0,15.7-2.7,15.7-25.9c0-11.6-4.1-15-4.1-15c-3.4-2-4.1-6.1-1.4-9.5c2-3.4,6.8-4.1,9.5-1.4
			c0.7,0.7,9.5,7.5,9.5,25.9c0,24.5-12.9,34.7-22.5,38.1c-7.5,41.5-30.6,59.2-42.9,63.3c-2,1.4-3.4,2-4.8,3.4
			C287.3,311.8,279.1,317.3,256,317.3L256,317.3z"/>
	</g>
	<g>
		<path class="st0" d="M351.3,187.9c-1.4,0-2.7,0-3.4-1.4c-21.8-13.6-21.8-32.7-22.5-49c-0.7-14.3-0.7-27.9-12.9-40.2
			c-7.5-7.5-26.5-11.6-56.5-11.6s-49,4.1-56.5,11.6c-12.3,12.3-12.3,25.9-12.9,40.2c-0.7,17-0.7,36.1-22.5,49c-3.4,2-7.5,0.7-9.5-2
			c-2-3.4-0.7-7.5,2-9.5c15-9.5,15.7-21.8,16.3-38.1c0.7-15.7,0.7-33.4,17-49.7c10.9-10.2,31.3-15,66-15s55.1,4.8,66,15.7
			c15.7,15.7,16.3,34,17,49.7s0.7,28.6,16.3,38.1c3.4,2,4.1,6.1,2,9.5C356.1,186.6,353.3,187.9,351.3,187.9z"/>
	</g>
	<g>
		<path class="st0" d="M311.1,327.5c-3.4,0-6.1-2-6.8-5.4c-0.7-2.7-0.7-4.8-0.7-7.5v-25.9c0-4.1,2.7-6.8,6.8-6.8
			c4.1,0,6.8,2.7,6.8,6.8v25.9c0,1.4,0,2.7,0.7,4.8c0.7,3.4-1.4,7.5-4.8,8.2C312.5,327.5,311.8,327.5,311.1,327.5L311.1,327.5z"/>
	</g>
	<g>
		<path class="st0" d="M202.2,327.5c-0.7,0-1.4,0-1.4,0c-3.4-0.7-6.1-4.8-4.8-8.2c0.7-1.4,0.7-3.4,0.7-4.8v-25.2
			c0-4.1,2.7-6.8,6.8-6.8s6.8,2.7,6.8,6.8v25.2c0,2.7,0,5.4-0.7,7.5C207.7,325.4,205,327.5,202.2,327.5L202.2,327.5z"/>
	</g>
	<g>
		<path class="st0" d="M460.2,467c-4.1,0-6.8-2.7-6.8-6.8c0-33.4-20.4-51-59.9-73.5c-16.3-8.8-39.5-21.8-41.5-22.5
			c-0.7-0.7-1.4-0.7-2-1.4c-1.4-1.4-2-2.7-2-4.8s0.7-4.1,2-4.8c0.7-1.4,2-2,3.4-1.4c2,0,4.1,0.7,5.4,1.4c6.1,2.7,18.4,9.5,40.8,21.8
			c43.6,24.5,67.4,44.9,67.4,85.1C467,464.3,464.3,467,460.2,467z"/>
	</g>
	<g>
		<path class="st0" d="M51.8,467c-4.1,0-6.8-2.7-6.8-6.8c0-40.2,23.8-60.6,66.7-85.1c22.5-12.9,34-19.1,40.8-21.8
			c1.4-1.4,3.4-2,5.4-1.4c2,0,2.7,0.7,3.4,1.4c1.4,1.4,2,2.7,2,4.8s-0.7,3.4-2,4.8c-0.7,0.7-1.4,1.4-2,1.4
			c-2,0.7-25.2,13.6-41.5,22.5c-38.8,22.5-59.2,40.2-59.2,73.5C58.6,464.3,55.9,467,51.8,467z"/>
	</g>
	<g>
		<path class="st0" d="M353.3,190c-0.7,0-1.4,0-2.7-0.7c-3.4-1.4-5.4-5.4-4.1-8.8c4.8-11.6,4.8-26.5,4.8-39.5
			c0-55.1-31.3-82.4-95.3-82.4s-95.3,27.2-95.3,83c0,12.9,0,27.2,4.8,39.5c1.4,3.4-0.7,7.5-4.1,8.8c-3.4,1.4-7.5-0.7-8.8-4.1
			c-5.4-14.3-5.4-31.3-5.4-44.2c0-64,36.8-96.7,108.9-96.7s108.9,32.7,108.9,96.7c0,12.9,0,29.9-5.4,44.2
			C358.8,187.9,356.1,190,353.3,190z"/>
	</g>
	<g>
		<path class="st0" d="M256,412.5c-2.7,0-4.8-1.4-6.1-3.4c-7.5-12.9-18.4-25.9-29.3-37.4c-17.7-20.4-32.7-37.4-25.9-53.8
			c1.4-3.4,5.4-5.4,8.8-3.4c3.4,1.4,5.4,5.4,3.4,8.8c-3.4,8.2,10.2,23.8,23.8,38.8c8.2,9.5,17.7,19.7,25.2,30.6
			c7.5-10.9,16.3-21.1,25.2-30.6c13.6-15,27.2-30.6,23.8-38.8c-1.4-3.4,0-7.5,3.4-8.8c3.4-1.4,7.5,0,8.8,3.4
			c6.8,16.3-8.8,33.4-26.5,53.1c-10.9,12.3-21.8,24.5-29.3,37.4C260.8,411.2,258.7,412.5,256,412.5L256,412.5z"/>
	</g>
	<g>
		<path class="st0" d="M330.9,398.9C330.2,398.9,330.2,398.9,330.9,398.9c-2.7,0-4.8-1.4-5.4-2.7c-9.5-14.3-19.7-23.1-27.9-23.8
			c-4.1,0-7.5,1.4-11.6,5.4c-2.7,2.7-6.8,2.7-9.5,0c-2.7-2.7-2.7-6.8,0-9.5c8.2-8.8,17-10.2,22.5-9.5c12.9,1.4,24.5,11.6,33.4,23.1
			c7.5-8.2,14.3-17,16.3-21.1c-8.8-9.5-27.2-27.9-38.8-33.4c-3.4-1.4-4.8-5.4-3.4-8.8c1.4-3.4,5.4-4.8,8.8-3.4
			c18.4,8.2,44.9,38.1,46.3,39.5c1.4,1.4,2,2.7,2,4.8c0,10.2-16.3,28.6-26.5,38.8C334.3,398.3,332.2,398.9,330.9,398.9L330.9,398.9z
			"/>
	</g>
	<g>
		<path class="st0" d="M181.1,398.9c-2,0-3.4-0.7-4.8-2c-9.5-10.2-26.5-28.6-26.5-38.8c0-1.4,0.7-3.4,2-4.8s27.2-30.6,46.3-39.5
			c3.4-1.4,7.5,0,8.8,3.4s0,7.5-3.4,8.8c-12.3,5.4-30.6,23.8-38.8,33.4c2,4.1,8.2,12.9,16.3,21.1c8.8-10.9,20.4-21.8,33.4-23.1
			c5.4-0.7,14.3,0.7,22.5,9.5c2.7,2.7,2.7,6.8,0,9.5s-6.8,2.7-9.5,0c-3.4-4.1-7.5-5.4-11.6-5.4c-8.2,0.7-18.4,9.5-27.9,23.8
			C185.9,397.6,183.9,398.9,181.1,398.9C181.8,398.9,181.8,398.9,181.1,398.9L181.1,398.9z"/>
	</g>
	<g>
		<path class="st0" d="M256,467c-1.4,0-3.4-0.7-4.1-1.4c-27.2-23.1-50.4-50.4-66.7-81.7c-2-3.4-0.7-7.5,2.7-9.5s7.5-0.7,9.5,2.7
			c15,28.6,35.4,53.1,59.2,74.2c24.5-21.1,44.2-45.6,59.2-74.2c2-3.4,6.1-4.8,9.5-2.7s4.8,6.1,2.7,9.5c-17,31.3-39.5,59.2-66.7,81.7
			C259.4,466.3,257.4,467,256,467L256,467z"/>
	</g>
</g>
<path class="st1" d="M171.7,278.5c0,0-2-0.7-4.7-1.6c-9.4-3.1-16.9-10.6-20-20c-0.9-2.7-1.6-4.7-1.6-4.7c-0.4-1.2-1.5-2-2.8-2
	c-1.3,0-2.4,0.8-2.8,2c0,0-0.7,2-1.6,4.7c-3.1,9.4-10.6,16.9-20,20c-2.7,0.9-4.7,1.6-4.7,1.6c-1.2,0.4-2,1.5-2,2.8s0.8,2.4,2,2.8
	c0,0,2,0.7,4.7,1.6c9.4,3.1,16.9,10.6,20,20c0.9,2.7,1.6,4.7,1.6,4.7c0.4,1.2,1.5,2,2.8,2l0,0c1.3,0,2.4-0.8,2.8-2
	c0,0,0.7-2,1.6-4.7c3.1-9.4,10.6-16.9,20-20c2.7-0.9,4.7-1.6,4.7-1.6c1.2-0.4,2-1.5,2-2.8S172.9,279,171.7,278.5L171.7,278.5z
	 M150.6,289.2c-3.3,3.3-6,7.2-7.9,11.5c-1.9-4.3-4.6-8.2-7.9-11.5s-7.2-6-11.5-7.9c4.3-1.9,8.2-4.6,11.5-7.9s6-7.2,7.9-11.5
	c1.9,4.3,4.6,8.2,7.9,11.5s7.2,6,11.5,7.9C157.8,283.2,153.9,285.8,150.6,289.2z"/>
<path class="st2" d="M136.9,219.8c0,0-1.4-0.5-3.4-1.1c-6.7-2.2-12.1-7.6-14.3-14.3c-0.6-2-1.1-3.4-1.1-3.4c-0.3-0.9-1.1-1.4-2-1.4
	s-1.7,0.6-2,1.4c0,0-0.5,1.4-1.1,3.4c-2.2,6.7-7.6,12.1-14.3,14.3c-2,0.6-3.4,1.1-3.4,1.1c-0.9,0.3-1.4,1.1-1.4,2s0.6,1.7,1.4,2
	c0,0,1.4,0.5,3.4,1.1c6.7,2.2,12.1,7.6,14.3,14.3c0.6,2,1.1,3.4,1.1,3.4c0.3,0.9,1.1,1.4,2,1.4l0,0c0.9,0,1.7-0.6,2-1.4
	c0,0,0.5-1.4,1.1-3.4c2.2-6.7,7.6-12.1,14.3-14.3c2-0.6,3.4-1.1,3.4-1.1c0.9-0.3,1.4-1.1,1.4-2S137.8,220.1,136.9,219.8L136.9,219.8
	z M121.8,227.4c-2.4,2.4-4.3,5.2-5.6,8.2c-1.3-3.1-3.3-5.9-5.6-8.2c-2.4-2.4-5.2-4.3-8.2-5.6c3.1-1.3,5.9-3.3,8.2-5.6
	c2.4-2.4,4.3-5.2,5.6-8.2c1.3,3.1,3.3,5.9,5.6,8.2c2.4,2.4,5.2,4.3,8.2,5.6C127,223.1,124.1,225.1,121.8,227.4z"/>
</svg>
