<?xml version="1.0" encoding="utf-8"?>
<!-- Generator: Adobe Illustrator 26.2.1, SVG Export Plug-In . SVG Version: 6.00 Build 0)  -->
<svg version="1.1" id="Outline" xmlns="http://www.w3.org/2000/svg" xmlns:xlink="http://www.w3.org/1999/xlink" x="0px" y="0px"
	 viewBox="0 0 512 512" style="enable-background:new 0 0 512 512;" xml:space="preserve">
<style type="text/css">
	.st0{fill:#707070;}
	.st1{fill:#AA8453;stroke:#AA8453;stroke-width:4.666;stroke-miterlimit:10;}
	.st2{fill:#AA8453;stroke:#AA8453;stroke-width:3.3368;stroke-miterlimit:10;}
</style>
<g>
	<g>
		<path class="st0" d="M60.2,410.3c-3.7,0-6.6-3-6.6-6.6c0-32.9,26.8-59.7,59.7-59.7c3.7,0,6.6,3,6.6,6.6c0,3.7-3,6.6-6.6,6.6
			c-25.6,0-46.5,20.9-46.5,46.5C66.8,407.3,63.9,410.3,60.2,410.3z"/>
	</g>
	<g>
		<path class="st0" d="M352.2,410.3c-3.7,0-6.6-3-6.6-6.6c0-25.6-20.9-46.5-46.5-46.5c-3.7,0-6.6-3-6.6-6.6s3-6.6,6.6-6.6
			c32.9,0,59.7,26.8,59.7,59.7C358.8,407.3,355.9,410.3,352.2,410.3z"/>
	</g>
	<g>
		<path class="st0" d="M159.7,357.2l-46.4,0c-3.7,0-6.6-3-6.6-6.6c0-3.7,3-6.6,6.6-6.6l46.4,0c3.7,0,6.6,3,6.6,6.6
			C166.4,354.2,163.4,357.2,159.7,357.2z"/>
	</g>
	<g>
		<path class="st0" d="M299.1,357.2l-46.5,0c-3.7,0-6.6-3-6.6-6.6c0-3.7,3-6.6,6.6-6.6l46.5,0c3.7,0,6.6,3,6.6,6.6
			C305.7,354.2,302.8,357.2,299.1,357.2z"/>
	</g>
	<g>
		<path class="st0" d="M60.2,463.4c-3.7,0-6.6-3-6.6-6.6l0-53.1c0-3.7,3-6.6,6.6-6.6c3.7,0,6.6,3,6.6,6.6l0,53.1
			C66.9,460.4,63.9,463.4,60.2,463.4z"/>
	</g>
	<g>
		<path class="st0" d="M352.2,463.4c-3.7,0-6.6-3-6.6-6.6v-53.1c0-3.7,3-6.6,6.6-6.6c3.7,0,6.6,3,6.6,6.6v53.1
			C358.8,460.4,355.9,463.4,352.2,463.4z"/>
	</g>
	<g>
		<path class="st0" d="M159.7,357.2c-3.7,0-6.6-3-6.6-6.6v-38c0-3.7,3-6.6,6.6-6.6s6.6,3,6.6,6.6v38
			C166.4,354.2,163.4,357.2,159.7,357.2z"/>
	</g>
	<g>
		<path class="st0" d="M252.7,357.2c-3.7,0-6.6-3-6.6-6.6v-38c0-3.7,3-6.6,6.6-6.6c3.7,0,6.6,3,6.6,6.6v38
			C259.3,354.2,256.3,357.2,252.7,357.2z"/>
	</g>
	<g>
		<path class="st0" d="M206.2,330.7C147.7,330.7,100,283,100,224.5c0-3.7,3-6.6,6.6-6.6s6.6,3,6.6,6.6c0,51.2,41.7,92.9,92.9,92.9
			s92.9-41.7,92.9-92.9c0-3.7,3-6.6,6.6-6.6c3.7,0,6.6,3,6.6,6.6C312.4,283,264.7,330.7,206.2,330.7z"/>
	</g>
	<g>
		<path class="st0" d="M305.7,178c-3.7,0-6.6-3-6.6-6.6c0-51.2-41.7-92.9-92.9-92.9s-92.9,41.7-92.9,92.9c0,3.7-3,6.6-6.6,6.6
			c-3.7,0-6.6-3-6.6-6.6c0-58.5,47.6-106.2,106.2-106.2c58.5,0,106.2,47.6,106.2,106.2C312.4,175.1,309.4,178,305.7,178z"/>
	</g>
	<g>
		<path class="st0" d="M106.7,231.1c-3.7,0-6.6-3-6.6-6.6v-26.6c0-3.7,3-6.6,6.6-6.6s6.6,3,6.6,6.6v26.6
			C113.3,228.2,110.3,231.1,106.7,231.1z"/>
	</g>
	<g>
		<path class="st0" d="M305.7,231.1c-3.7,0-6.6-3-6.6-6.6v-26.6c0-3.7,3-6.6,6.6-6.6c3.7,0,6.6,3,6.6,6.6v26.6
			C312.4,228.2,309.4,231.1,305.7,231.1z"/>
	</g>
	<g>
		<path class="st0" d="M319,204.6H93.4c-3.7,0-6.6-3-6.6-6.6s3-6.6,6.6-6.6H319c3.7,0,6.6,3,6.6,6.6S322.7,204.6,319,204.6z"/>
	</g>
	<g>
		<path class="st0" d="M319,204.6c-1.8,0-3.6-0.7-4.9-2.2c-0.2-0.2-24.2-24.4-107.9-24.4s-107.7,24.2-108,24.4
			c-2.5,2.6-6.7,2.8-9.4,0.3c-2.7-2.5-2.9-6.6-0.4-9.3c1.1-1.2,27.1-28.7,117.7-28.7s116.7,27.5,117.7,28.7c2.5,2.7,2.3,6.9-0.5,9.4
			C322.2,204,320.6,204.6,319,204.6z"/>
	</g>
	<g>
		<path class="st0" d="M305.7,195.7c-3.7,0-6.6-3-6.6-6.6v-17.6c0-3.7,3-6.6,6.6-6.6c3.7,0,6.6,3,6.6,6.6V189
			C312.4,192.7,309.4,195.7,305.7,195.7z"/>
	</g>
	<g>
		<path class="st0" d="M106.7,195.7c-3.7,0-6.6-3-6.6-6.6v-17.6c0-3.7,3-6.6,6.6-6.6s6.6,3,6.6,6.6V189
			C113.3,192.7,110.3,195.7,106.7,195.7z"/>
	</g>
	<g>
		<path class="st0" d="M206.2,78.5c-3.7,0-6.6-3-6.6-6.6v-6.6c0-3.7,3-6.6,6.6-6.6c3.7,0,6.6,3,6.6,6.6v6.6
			C212.8,75.5,209.9,78.5,206.2,78.5z"/>
	</g>
	<g>
		<path class="st0" d="M206.3,390.5c-3.7,0-6.7-3-6.7-6.6c0-3.7,2.9-6.6,6.6-6.6h0.1c3.7,0,6.6,3,6.6,6.6
			C213,387.5,210,390.5,206.3,390.5z"/>
	</g>
	<g>
		<path class="st0" d="M206.3,410.4c-3.7,0-6.7-3-6.7-6.6c0-3.7,2.9-6.6,6.6-6.6h0.1c3.7,0,6.6,3,6.6,6.6
			C213,407.4,210,410.4,206.3,410.4z"/>
	</g>
	<g>
		<path class="st0" d="M186.2,370.6c-1,0-2-0.2-3-0.7l-26.5-13.3c-3.3-1.6-4.6-5.6-3-8.9c1.6-3.3,5.6-4.6,8.9-3l26.5,13.3
			c3.3,1.6,4.6,5.6,3,8.9C191,369.2,188.6,370.6,186.2,370.6z"/>
	</g>
	<g>
		<path class="st0" d="M186.2,370.6c-2.8,0-5.4-1.8-6.3-4.5c-1.2-3.5,0.7-7.2,4.2-8.4L204,351c3.5-1.2,7.2,0.7,8.4,4.2
			c1.2,3.5-0.7,7.2-4.2,8.4l-19.9,6.6C187.6,370.4,186.9,370.6,186.2,370.6z"/>
	</g>
	<g>
		<path class="st0" d="M226,370.6c-0.7,0-1.4-0.1-2.1-0.4l-19.9-6.6c-3.5-1.2-5.4-4.9-4.2-8.4c1.2-3.5,4.9-5.4,8.4-4.2l19.9,6.6
			c3.5,1.2,5.4,4.9,4.2,8.4C231.4,368.8,228.8,370.6,226,370.6z"/>
	</g>
	<g>
		<path class="st0" d="M226,370.6c-2.4,0-4.8-1.3-5.9-3.7c-1.6-3.3-0.3-7.3,3-8.9l26.5-13.3c3.3-1.6,7.3-0.3,8.9,3
			c1.6,3.3,0.3,7.3-3,8.9L229,369.8C228,370.3,227,370.6,226,370.6z"/>
	</g>
	<g>
		<path class="st0" d="M206.1,450.2c-1.3,0-2.7-0.4-3.8-1.2c-3-2.1-3.7-6.3-1.5-9.3l66.4-92.9c2.1-3,6.3-3.7,9.3-1.5
			c3,2.1,3.7,6.3,1.5,9.3l-66.4,92.9C210.2,449.2,208.2,450.2,206.1,450.2z"/>
	</g>
	<g>
		<path class="st0" d="M206.1,450.2c-2.1,0-4.1-1-5.4-2.8l-66.4-92.9c-2.1-3-1.4-7.1,1.5-9.3c3-2.1,7.1-1.4,9.3,1.5l66.4,92.9
			c2.1,3,1.4,7.1-1.5,9.3C208.8,449.8,207.5,450.2,206.1,450.2z"/>
	</g>
	<g>
		<g>
			<g>
				<path class="st0" d="M378.8,324c-3.7,0-6.6-3-6.6-6.6c0-25.6,20.9-46.5,46.5-46.5c3.7,0,6.6,3,6.6,6.6c0,3.7-3,6.6-6.6,6.6
					c-18.3,0-33.2,14.9-33.2,33.2C385.4,321.1,382.4,324,378.8,324z"/>
			</g>
			<g>
				<path class="st0" d="M458.4,310.7c-3.7,0-6.6-3-6.6-6.6c0-11-8.9-19.9-19.9-19.9c-3.7,0-6.6-3-6.6-6.6c0-3.7,3-6.6,6.6-6.6
					c18.3,0,33.2,14.9,33.2,33.2C465,307.8,462.1,310.7,458.4,310.7z"/>
			</g>
			<g>
				<path class="st0" d="M431.9,284.2h-13.3c-3.7,0-6.6-3-6.6-6.6c0-3.7,3-6.6,6.6-6.6h13.3c3.7,0,6.6,3,6.6,6.6
					C438.5,281.2,435.5,284.2,431.9,284.2z"/>
			</g>
			<g>
				<path class="st0" d="M445.1,330.7c-3.7,0-6.6-3-6.6-6.6c0-3.7,3-6.6,6.6-6.6c3.7,0,6.6-3,6.6-6.6c0-3.7,3-6.6,6.6-6.6
					c3.7,0,6.6,3,6.6,6.6C465,321.7,456.1,330.7,445.1,330.7z"/>
			</g>
			<g>
				<path class="st0" d="M445.1,330.7h-53.1c-3.7,0-6.6-3-6.6-6.6c0-3.7,3-6.6,6.6-6.6h53.1c3.7,0,6.6,3,6.6,6.6
					C451.8,327.7,448.8,330.7,445.1,330.7z"/>
			</g>
			<g>
				<path class="st0" d="M378.8,343.9c-3.7,0-6.6-3-6.6-6.6c0-11,8.9-19.9,19.9-19.9c3.7,0,6.6,3,6.6,6.6c0,3.7-3,6.6-6.6,6.6
					c-3.7,0-6.6,3-6.6,6.6C385.4,341,382.5,343.9,378.8,343.9z"/>
			</g>
			<g>
				<path class="st0" d="M378.8,463.4c-3.7,0-6.6-3-6.6-6.6V317.4c0-3.7,3-6.6,6.6-6.6c3.7,0,6.6,3,6.6,6.6v139.4
					C385.4,460.4,382.4,463.4,378.8,463.4z"/>
			</g>
			<g>
				<path class="st0" d="M458.4,317.4c-3.7,0-6.6-3-6.6-6.6v-6.6c0-3.7,3-6.6,6.6-6.6c3.7,0,6.6,3,6.6,6.6v6.6
					C465,314.4,462.1,317.4,458.4,317.4z"/>
			</g>
		</g>
		<g>
			<path class="st0" d="M431.9,463.4c-18.3,0-33.2-14.9-33.2-33.2c0-18.3,14.9-33.2,33.2-33.2s33.2,14.9,33.2,33.2
				C465,448.5,450.2,463.4,431.9,463.4z M431.9,410.3c-11,0-19.9,8.9-19.9,19.9c0,11,8.9,19.9,19.9,19.9c11,0,19.9-8.9,19.9-19.9
				C451.8,419.2,442.8,410.3,431.9,410.3z"/>
		</g>
		<g>
			<g>
				<path class="st0" d="M418.8,450.1c-3.7,0-6.7-3-6.7-6.6c0-3.7,2.9-6.6,6.6-6.6h0.1c3.7,0,6.6,3,6.6,6.6
					C425.4,447.2,422.4,450.1,418.8,450.1z"/>
			</g>
			<g>
				<path class="st0" d="M418.8,423.6c-3.7,0-6.7-3-6.7-6.6c0-3.7,2.9-6.6,6.6-6.6h0.1c3.7,0,6.6,3,6.6,6.6
					C425.4,420.7,422.4,423.6,418.8,423.6z"/>
			</g>
			<g>
				<path class="st0" d="M432,436.9c-3.7,0-6.7-3-6.7-6.6c0-3.7,2.9-6.6,6.6-6.6h0.1c3.7,0,6.6,3,6.6,6.6
					C438.7,433.9,435.7,436.9,432,436.9z"/>
			</g>
			<g>
				<path class="st0" d="M445.3,450.1c-3.7,0-6.7-3-6.7-6.6c0-3.7,2.9-6.6,6.6-6.6h0.1c3.7,0,6.6,3,6.6,6.6
					C451.9,447.2,449,450.1,445.3,450.1z"/>
			</g>
			<g>
				<path class="st0" d="M445.3,423.6c-3.7,0-6.7-3-6.7-6.6c0-3.7,2.9-6.6,6.6-6.6h0.1c3.7,0,6.6,3,6.6,6.6
					C451.9,420.7,449,423.6,445.3,423.6z"/>
			</g>
		</g>
	</g>
</g>
<path class="st1" d="M122.3,303c0,0-2-0.7-4.7-1.6c-9.4-3.1-16.9-10.6-20-20c-0.9-2.7-1.6-4.7-1.6-4.7c-0.4-1.2-1.5-2-2.8-2
	c-1.3,0-2.4,0.8-2.8,2c0,0-0.7,2-1.6,4.7c-3.1,9.4-10.6,16.9-20,20c-2.7,0.9-4.7,1.6-4.7,1.6c-1.2,0.4-2,1.5-2,2.8s0.8,2.4,2,2.8
	c0,0,2,0.7,4.7,1.6c9.4,3.1,16.9,10.6,20,20c0.9,2.7,1.6,4.7,1.6,4.7c0.4,1.2,1.5,2,2.8,2h0c1.3,0,2.4-0.8,2.8-2c0,0,0.7-2,1.6-4.7
	c3.1-9.4,10.6-16.9,20-20c2.7-0.9,4.7-1.6,4.7-1.6c1.2-0.4,2-1.5,2-2.8C124.3,304.5,123.5,303.4,122.3,303L122.3,303z M101.2,313.6
	c-3.3,3.3-6,7.2-7.9,11.5c-1.9-4.3-4.6-8.2-7.9-11.5c-3.3-3.3-7.2-6-11.5-7.9c4.3-1.9,8.2-4.6,11.5-7.9c3.3-3.3,6-7.2,7.9-11.5
	c1.9,4.3,4.6,8.2,7.9,11.5c3.3,3.3,7.2,6,11.5,7.9C108.4,307.6,104.5,310.3,101.2,313.6z"/>
<path class="st2" d="M87.5,244.2c0,0-1.4-0.5-3.4-1.1c-6.7-2.2-12.1-7.6-14.3-14.3c-0.6-2-1.1-3.4-1.1-3.4c-0.3-0.9-1.1-1.4-2-1.4
	c-0.9,0-1.7,0.6-2,1.4c0,0-0.5,1.4-1.1,3.4c-2.2,6.7-7.6,12.1-14.3,14.3c-2,0.6-3.4,1.1-3.4,1.1c-0.9,0.3-1.4,1.1-1.4,2
	s0.6,1.7,1.4,2c0,0,1.4,0.5,3.4,1.1c6.7,2.2,12.1,7.6,14.3,14.3c0.6,2,1.1,3.4,1.1,3.4c0.3,0.9,1.1,1.4,2,1.4h0c0.9,0,1.7-0.6,2-1.4
	c0,0,0.5-1.4,1.1-3.4c2.2-6.7,7.6-12.1,14.3-14.3c2-0.6,3.4-1.1,3.4-1.1c0.9-0.3,1.4-1.1,1.4-2S88.4,244.5,87.5,244.2L87.5,244.2z
	 M72.4,251.8c-2.4,2.4-4.3,5.2-5.6,8.2c-1.3-3.1-3.3-5.9-5.6-8.2c-2.4-2.4-5.2-4.3-8.2-5.6c3.1-1.3,5.9-3.3,8.2-5.6
	c2.4-2.4,4.3-5.2,5.6-8.2c1.3,3.1,3.3,5.9,5.6,8.2c2.4,2.4,5.2,4.3,8.2,5.6C77.6,247.5,74.7,249.5,72.4,251.8z"/>
</svg>
