<?xml version="1.0" encoding="utf-8"?>
<!-- Generator: Adobe Illustrator 26.2.1, SVG Export Plug-In . SVG Version: 6.00 Build 0)  -->
<svg version="1.1" id="Outline" xmlns="http://www.w3.org/2000/svg" xmlns:xlink="http://www.w3.org/1999/xlink" x="0px" y="0px"
	 viewBox="0 0 512 512" style="enable-background:new 0 0 512 512;" xml:space="preserve">
<style type="text/css">
	.st0{fill:#AA8453;}
	.st1{fill:#707070;}
</style>
<path class="st0" d="M174.7,382.2h-1.5c-0.3-3.7-1.3-7.5-2.9-10.7l2.6-2.6c3.1-3.1,3.1-8,0-11.1s-8-3.1-11.1,0l-2.1,2.1
	c-2.1-1.3-4.6-2.4-7.2-3.1v-2.6c0-4.2-3.4-7.8-7.8-7.8c-4.2,0-7.8,3.4-7.8,7.8v2.8c-2.6,0.7-4.9,1.8-7.2,3.1l-2.1-2.1
	c-3.1-3.1-8-3.1-11.1,0s-3.1,8,0,11.1l2.6,2.6c-1.6,3.3-2.6,6.8-2.9,10.7h-1.5c-4.2,0-7.8,3.4-7.8,7.8s3.4,7.8,7.8,7.8h1.5
	c0.3,3.7,1.3,7.5,2.9,10.7l-2.6,2.6c-3.1,3.1-3.1,8,0,11.1c1.5,1.5,3.6,2.3,5.5,2.3s3.9-0.8,5.5-2.3l2.1-2.1
	c2.1,1.3,4.6,2.4,7.2,3.1v2.8c0,4.2,3.4,7.8,7.8,7.8c4.2,0,7.8-3.4,7.8-7.8v-2.8c2.6-0.7,4.9-1.8,7.2-3.1l2.1,2.1
	c1.5,1.5,3.6,2.3,5.5,2.3c2,0,3.9-0.8,5.5-2.3c3.1-3.1,3.1-8,0-11.1l-2.6-2.6c1.6-3.3,2.6-6.8,2.9-10.7h1.5c4.2,0,7.8-3.4,7.8-7.8
	S179.1,382.2,174.7,382.2L174.7,382.2z M144.9,408.6c-7.2,0-12.9-5.9-12.9-12.9v-11.2c0-7.2,5.9-12.9,12.9-12.9
	c7.2,0,12.9,5.9,12.9,12.9v11.2C157.8,402.7,152.1,408.6,144.9,408.6z"/>
<path class="st0" d="M99.2,293.4h-6.8c-0.8-2.9-2-5.7-3.4-8.3l4.9-4.9c3.1-3.1,3.1-8,0-11.1s-8-3.1-11.1,0l-4.9,4.9
	c-2.6-1.5-5.4-2.6-8.3-3.4v-6.8c0-4.2-3.4-7.8-7.8-7.8s-7.8,3.4-7.8,7.8v6.8c-2.9,0.8-5.7,2-8.3,3.4l-4.9-4.9c-3.1-3.1-8-3.1-11.1,0
	s-3.1,8,0,11.1l4.9,4.9c-1.5,2.6-2.6,5.4-3.4,8.3h-6.8c-4.2,0-7.8,3.4-7.8,7.8s3.4,7.8,7.8,7.8h6.8c0.8,2.9,2,5.7,3.4,8.3l-4.9,4.9
	c-3.1,3.1-3.1,8,0,11.1c1.5,1.5,3.6,2.3,5.5,2.3c2,0,3.9-0.8,5.5-2.3l4.9-4.9c2.6,1.5,5.4,2.6,8.3,3.4v6.8c0,4.2,3.4,7.8,7.8,7.8
	s7.8-3.4,7.8-7.8v-6.8c2.9-0.8,5.7-2,8.3-3.4l4.9,4.9c1.5,1.5,3.6,2.3,5.5,2.3s3.9-0.8,5.5-2.3c3.1-3.1,3.1-8,0-11.1l-4.9-4.9
	c1.5-2.6,2.6-5.4,3.4-8.3H99c4.2,0,7.8-3.4,7.8-7.8S103.6,293.4,99.2,293.4L99.2,293.4z M62,285.3c8.8,0,15.9,7.2,15.9,15.9
	s-7.2,15.9-15.9,15.9s-16-7.1-16-15.9C46,292.4,53.2,285.3,62,285.3z"/>
<g>
	<g>
		<g>
			<path class="st1" d="M349.3,208.2c-4,0-7.2,3.2-7.2,7.2s3.2,7.2,7.2,7.2s7.2-3.2,7.2-7.2S353.2,208.2,349.3,208.2z"/>
		</g>
	</g>
	<g>
		<g>
			<path class="st1" d="M486.9,391.8l-96.6-96.6c15.7-23.7,24-51.1,24-79.8c0-79.8-64.9-144.7-144.7-144.7s-144.7,64.9-144.7,144.7
				s64.9,144.7,144.7,144.7c28.6,0,56.1-8.3,79.8-24l26.7,26.7l0,0l69.9,69.9c5.5,5.5,12.7,8.5,20.5,8.5c7.7,0,15-3,20.5-8.5
				s8.5-12.7,8.5-20.5C495.4,404.6,492.4,397.3,486.9,391.8z M346,320.9L346,320.9c-22.3,16.2-48.7,24.8-76.4,24.8
				c-71.8,0-130.3-58.4-130.3-130.3S197.8,85.2,269.7,85.2S400,143.6,400,215.5c0,27.6-8.6,54-24.8,76.4
				C367,303,357.2,312.8,346,320.9z M361.2,327.5c7.5-6.1,14.3-13,20.5-20.5l20.5,20.5c-6.2,7.4-13.1,14.2-20.5,20.5L361.2,327.5z
				 M476.7,422.5c-2.7,2.7-6.4,4.2-10.2,4.2c-3.9,0-7.5-1.5-10.2-4.2L392,358.3c7.3-6.3,14.2-13.1,20.5-20.5l64.3,64.3
				c2.7,2.7,4.2,6.4,4.2,10.2S479.5,419.8,476.7,422.5z"/>
		</g>
	</g>
	<g>
		<g>
			<path class="st1" d="M269.7,99.7c-63.8,0-115.8,51.9-115.8,115.8s51.9,115.8,115.8,115.8s115.8-51.9,115.8-115.8
				S333.5,99.7,269.7,99.7z M269.7,316.8c-55.9,0-101.3-45.4-101.3-101.3s45.4-101.3,101.3-101.3S371,159.6,371,215.5
				S325.5,316.8,269.7,316.8z"/>
		</g>
	</g>
	<g>
		<g>
			<path class="st1" d="M350.7,184.4c-6.2-16.2-17.1-30.1-31.4-40.1c-14.6-10.3-31.8-15.7-49.7-15.7c-4,0-7.2,3.2-7.2,7.2
				s3.2,7.2,7.2,7.2c29.7,0,56.9,18.7,67.6,46.5c1.1,2.9,3.8,4.6,6.8,4.6c0.9,0,1.7-0.2,2.6-0.5
				C350.3,192.3,352.2,188.1,350.7,184.4z"/>
		</g>
	</g>
</g>
<ellipse transform="matrix(0.1602 -0.9871 0.9871 0.1602 6.5017 442.8419)" class="st0" cx="263.5" cy="217.6" rx="12.3" ry="12.3"/>
<circle class="st0" cx="214.3" cy="220.5" r="12.3"/>
<circle class="st0" cx="253.9" cy="261.4" r="12.3"/>
<ellipse transform="matrix(0.1602 -0.9871 0.9871 0.1602 52.0037 408.723)" class="st0" cx="266.2" cy="173.8" rx="12.3" ry="12.3"/>
<circle class="st0" cx="305.9" cy="214.7" r="12.3"/>
</svg>
