<?xml version="1.0" encoding="utf-8"?>
<!-- Generator: Adobe Illustrator 26.2.1, SVG Export Plug-In . SVG Version: 6.00 Build 0)  -->
<svg version="1.1" id="Outline" xmlns="http://www.w3.org/2000/svg" xmlns:xlink="http://www.w3.org/1999/xlink" x="0px" y="0px"
	 viewBox="0 0 512 512" style="enable-background:new 0 0 512 512;" xml:space="preserve">
<style type="text/css">
	.st0{fill:#707070;}
	.st1{fill:#AA8453;}
	.st2{fill:#E55C89;}
	.st3{fill:none;stroke:#AA8453;stroke-width:12;stroke-miterlimit:10;}
</style>
<path class="st0" d="M256,321.3c-7.1-0.2-13.9-3.1-19.1-8c-2.2-2.2-2.2-5.7,0-7.9c2-2,5-2.2,7.3-0.5c8.2,7,15.5,7,23.7,0
	c2.5-1.8,6-1.3,7.8,1.2c1.6,2.2,1.4,5.3-0.5,7.3C269.9,318.2,263.1,321,256,321.3z"/>
<path class="st0" d="M299,346.3c-1.2-2-3.7-2.8-5.8-1.6l-0.8,0.4c-0.9,0.4-1.9,0.7-2.9,0.9c-1.4,0.2-2.9,0.3-4.3,0.4
	c-3.1,0.1-6.2-0.1-9.2-0.6c-0.7-0.1-4.3-1-4.7-1.1c-3.3-0.7-6.8,0.1-9.6,2.1c-1.7,1.1-3.7,1.8-5.8,2c-2-0.2-4-0.9-5.8-2
	c-2.7-2-6.2-2.8-9.6-2.1c-0.4,0.1-4,1-4.7,1.1c-3,0.5-6.1,0.7-9.2,0.6c-1.4,0-2.9-0.2-4.3-0.4c-1-0.1-2-0.4-2.9-0.9l-0.8-0.4
	c-2-1.2-4.6-0.5-5.8,1.6c-1,1.7-0.7,3.8,0.7,5.2c1.8,1.7,3.9,2.9,6.2,3.6c1.9,0.7,3.8,1.1,5.8,1.4c3.7,0.7,7.5,0.8,11.3,0.5
	c1.8-0.4,3.6-0.5,5.4-0.5c1.2,0.3,2,1.3,3.1,1.9c1.1,0.7,2.3,1.2,3.6,1.6c4.5,1.4,9.3,1.4,13.8,0c1.3-0.4,2.5-0.9,3.6-1.6
	c1.1-0.6,1.8-1.6,3.1-1.9c1.8,0,3.6,0.1,5.4,0.5c3.8,0.3,7.6,0.1,11.3-0.5c2-0.3,3.9-0.7,5.8-1.4c2.3-0.7,4.4-1.9,6.2-3.6
	C299.7,350.1,300,348,299,346.3L299,346.3z"/>
<path class="st0" d="M256.2,382.5c-3.4,0-6.7-0.8-9.7-2.3c-2.9-1.6-4-5.2-2.4-8.1c1.5-2.7,4.8-3.9,7.6-2.7c2.8,1.5,6.1,1.5,8.9,0
	c3.1-1.3,6.6,0.1,7.9,3.2c1.2,2.8,0.1,6.1-2.7,7.6C262.8,381.7,259.5,382.5,256.2,382.5z"/>
<path class="st0" d="M224.1,223.1c-6.8-0.5-13.8-0.9-20.7-1.5c-7-0.5-13.9-1-20.9-1.9c0,0-7.8-1-10.5-1.2c-3.2-0.2-6.4-0.3-9.6-0.2
	c-6.6,0.9-12.9,3-18.8,6.1l-0.2,0.1c-1.3,0.7-2.9,0.2-3.6-1.2c-0.6-1.2-0.3-2.6,0.8-3.4c6.1-4.5,13-7.8,20.3-9.7
	c1.9-0.4,8.8-1.2,8.8-1.2l2.7-0.1l10.7-0.1c7.1,0,14.3,0.4,21.3,1.3c7.2,0.7,14.3,2,21.3,3.8c2.5,0.7,3.9,3.2,3.3,5.6
	C228.4,221.9,226.4,223.3,224.1,223.1L224.1,223.1z"/>
<path class="st0" d="M208.7,259.6c-2.6,0.1-5.3,0-7.9,0c-5.1,0-10.2-0.5-15.3-1.4c-4.8-0.8-9.5-2.3-13.8-4.4c0,0-1.9-1-2.5-1.2
	c-1.1-0.4-2.2-0.7-3.3-0.8c-2-0.1-4,0.2-5.9,1.1c-2.2,1.1-4.5,2.1-6.8,3h-0.1c-1.4,0.4-2.1,1.9-1.7,3.3c0.3,0.8,0.9,1.5,1.7,1.7
	c3.1,0.8,6.3,0.8,9.4,0.1c0.7-0.2,1.5-0.2,2.3,0.1c0.2,0.1,1.7,1.2,1.7,1.2c5.1,3.5,10.9,5.9,17,7c5.8,1.1,11.8,1.4,17.7,0.9
	c5.9-0.3,11.8-1.4,17.4-3.3c2.1-0.8,3.1-3.1,2.3-5.1c-0.6-1.7-2.4-2.8-4.2-2.6C216.6,259.2,211.3,259.6,208.7,259.6L208.7,259.6z"/>
<path class="st0" d="M286.3,214.1c7-1.8,14.1-3.1,21.3-3.8c7.1-0.9,14.2-1.3,21.3-1.3l10.7,0.1l5.7,0.2c2,0.2,3.9,0.5,5.8,1
	c7.3,1.9,14.2,5.2,20.3,9.7c1.2,0.9,1.5,2.5,0.6,3.7c-0.8,1.1-2.2,1.4-3.4,0.8l-0.2-0.1c-5.8-3.1-12.2-5.2-18.8-6.1
	c-1.6-0.2-3.1-0.2-4.7-0.2l-4.9,0.4l-10.5,1.2c-7,0.9-13.9,1.4-20.9,1.9c-6.9,0.6-13.9,1-20.7,1.5h-0.1c-2.5,0.2-4.8-1.7-5-4.2
	C282.7,216.7,284.1,214.7,286.3,214.1L286.3,214.1z"/>
<path class="st0" d="M303.3,259.6c2.6,0.1,5.3,0,7.9,0c5.1,0,10.2-0.5,15.3-1.4c4.8-0.8,9.5-2.3,13.8-4.4c0,0,1.9-1,2.5-1.2
	c1.1-0.4,2.2-0.7,3.3-0.8c2-0.1,4,0.2,5.9,1.1c2.2,1.1,4.5,2.1,6.8,3h0.1c1.4,0.4,2.1,1.9,1.7,3.3c-0.3,0.8-0.9,1.5-1.7,1.7
	c-3.1,0.8-6.3,0.8-9.4,0.1c-0.7-0.2-1.5-0.2-2.3,0.1c-0.2,0.1-1.7,1.2-1.7,1.2c-5.1,3.5-10.9,5.9-17,7c-5.8,1.1-11.8,1.4-17.7,0.9
	c-5.9-0.3-11.8-1.4-17.4-3.3c-2.1-0.8-3.1-3.1-2.3-5.1c0.6-1.7,2.4-2.8,4.2-2.6C295.4,259.2,300.7,259.6,303.3,259.6L303.3,259.6z"
	/>
<path class="st1" d="M320.7,323.2c-1.6,0-3.1-0.6-4.2-1.8L309,314c-2.3-2.3-2.3-6.1,0-8.5c2.3-2.3,6.1-2.3,8.5,0l7.4,7.4
	c2.3,2.3,2.3,6.1,0,8.5C323.8,322.5,322.3,323.2,320.7,323.2L320.7,323.2z"/>
<path class="st1" d="M315.4,336.2h-10.5c-3.3,0-6-2.7-6-6s2.7-6,6-6h10.5c3.3,0,6,2.7,6,6S318.7,336.2,315.4,336.2z"/>
<path class="st1" d="M333.7,317.8c-3.3,0-6-2.7-6-6v-10.5c0-3.3,2.7-6,6-6s6,2.7,6,6v10.5C339.7,315.1,337,317.8,333.7,317.8z"/>
<path class="st1" d="M320.7,323.2c-1.6,0-3.1-0.6-4.2-1.8L309,314c-2.3-2.3-2.3-6.1,0-8.5c2.3-2.3,6.1-2.3,8.5,0l7.4,7.4
	c2.3,2.3,2.3,6.1,0,8.5C323.8,322.5,322.3,323.2,320.7,323.2L320.7,323.2z"/>
<path class="st1" d="M315.4,336.2h-10.5c-3.3,0-6-2.7-6-6s2.7-6,6-6h10.5c3.3,0,6,2.7,6,6S318.7,336.2,315.4,336.2z"/>
<path class="st1" d="M333.7,317.8c-3.3,0-6-2.7-6-6v-10.5c0-3.3,2.7-6,6-6s6,2.7,6,6v10.5C339.7,315.1,337,317.8,333.7,317.8z"/>
<path class="st1" d="M320.7,323.2c-1.6,0-3.1-0.6-4.2-1.8L309,314c-2.3-2.3-2.3-6.1,0-8.5c2.3-2.3,6.1-2.3,8.5,0l7.4,7.4
	c2.3,2.3,2.3,6.1,0,8.5C323.8,322.5,322.3,323.2,320.7,323.2L320.7,323.2z"/>
<path class="st1" d="M315.4,336.2h-10.5c-3.3,0-6-2.7-6-6s2.7-6,6-6h10.5c3.3,0,6,2.7,6,6S318.7,336.2,315.4,336.2z"/>
<path class="st1" d="M333.7,317.8c-3.3,0-6-2.7-6-6v-10.5c0-3.3,2.7-6,6-6s6,2.7,6,6v10.5C339.7,315.1,337,317.8,333.7,317.8z"/>
<path class="st1" d="M343.9,327c-3.3,0-6-2.7-6-6c0-1.9,0.9-3.7,2.4-4.8l8.4-6.3c2.7-2,6.4-1.5,8.4,1.2s1.5,6.4-1.2,8.4l0,0
	l-8.4,6.3C346.5,326.5,345.2,327,343.9,327L343.9,327z"/>
<path class="st1" d="M317.8,355.2c-3.3,0-6-2.7-6-6c0-1.3,0.4-2.6,1.2-3.6l6.3-8.4c2-2.7,5.7-3.2,8.4-1.2c2.7,2,3.2,5.7,1.2,8.4l0,0
	l-6.3,8.4C321.5,354.3,319.7,355.2,317.8,355.2L317.8,355.2z"/>
<path class="st0" d="M492.6,447.4l-102-98l0,0c-3.2-3-6.7-5.4-10.6-7.3c1.3-3.7,2.6-7.5,3.8-11.5c23.5-0.1,46.8-24.9,50.7-48
	c2.5-14.9-0.9-28.2-9.4-37.4c-0.3-0.3-0.6-0.5-0.9-0.8c6.5-36.6,6.2-102.3-11.3-138.5C384.4,46.9,318.5,4.1,256.1,4.1H256
	c-62.4,0-128.4,42.8-156.8,101.8c-17.5,36.2-17.7,101.8-11.3,138.5c-0.3,0.3-0.6,0.5-0.9,0.8c-8.5,9.3-11.9,22.6-9.4,37.4
	c3.8,23.1,27.1,47.9,50.7,48c8,27.1,19.9,48.9,35.5,64c11.7,11.8,24.9,22,39.2,30.5c-2,17.4-10.2,57.7-43.9,71.2
	c-3.1,1.2-4.6,4.7-3.3,7.8c0.9,2.3,3.1,3.8,5.6,3.8c0.8,0,1.5-0.1,2.2-0.4c36.8-14.8,47.6-55.1,50.7-76.4
	c9.7,4.6,19.9,8.2,30.4,10.6c7.5,1.8,15.2,1.8,22.7,0c10.5-2.5,20.7-6,30.4-10.6c3.1,21.3,13.9,61.6,50.7,76.4
	c3.1,1.2,6.6-0.3,7.8-3.3l0,0c1.2-3.1-0.3-6.6-3.3-7.8c-33.7-13.5-41.9-53.8-43.9-71.2c14.3-8.5,27.4-18.7,39.2-30.5
	c1.9-1.8,3.7-3.8,5.5-5.9l96.8,100.7c3.7,4.2,8.9,6.8,14.5,7h0.2c9.1,0,17.1-6.9,22.3-12.1s12.2-13.3,12.1-22.5
	C499.4,456.3,496.9,451,492.6,447.4L492.6,447.4z M422.6,280.6c-2.7,16.3-19.5,35.2-35.6,37.7c2.9-12.4,5-25,6.3-37.8
	c3.5-3.9,8.6-5.8,13.7-5.3c3.3,0.3,6.2-2.1,6.5-5.4s-2.1-6.2-5.4-6.6l0,0c-4.7-0.4-9.3,0.4-13.6,2.1c0.4-6.7,0.7-13.7,0.7-20.8
	c7.8-0.1,15.4,3,20.9,8.6C422.4,260.9,424.8,271,422.6,280.6L422.6,280.6z M89.4,280.6c-2.2-9.6,0.1-19.7,6.4-27.3
	c5.5-5.5,13-8.6,20.9-8.6c0.1,7.1,0.3,14,0.7,20.7c-4.3-1.7-9-2.4-13.6-2.1c-3.3,0.3-5.7,3.3-5.4,6.6c0.3,3.3,3.2,5.7,6.5,5.4
	c5.2-0.5,10.2,1.4,13.7,5.3c1.3,12.7,3.4,25.3,6.3,37.7C108.9,315.7,92.1,296.9,89.4,280.6z M122.9,161.9c-3.2-0.2-6,2.2-6.2,5.5
	c-0.2,3.2,2.2,6,5.5,6.2c0.1,0,0.2,0,0.3,0c0.4,0,0.8,0,1.2,0c-3.5,17.5-5.7,35.2-6.8,52.9c-0.1,2.1,0,4.2-0.1,6.2
	c-6.2,0.1-12.3,1.5-17.9,4c-5.1-35.2-4.2-93.9,11.1-125.6c26.6-55,87.9-95,146-95h0.1c58.1,0,119.5,39.9,146,95
	c15.3,31.8,16.2,90.4,11.1,125.6c-5.6-2.5-11.7-3.9-17.9-4c0-2.1,0-4.1-0.1-6.2c-0.5-17.1-2.8-34.1-6.9-50.8
	c1.3,0.3,2.5,0.5,3.9,0.7c0.3,0,0.6,0.1,0.9,0.1c3.2,0.1,5.9-2.4,6-5.6c0.1-3-2.1-5.6-5.2-6c-9.9-1.1-19.1-5.9-25.5-13.5
	c-3.2-3.9-6.1-8.1-8.8-12.4c-7.1-10.9-15.2-23.3-30.2-28.6c-3.6-1.1-7.4-1.7-11.2-1.6c-1.1,0-2.4-0.1-3.7-0.1
	c-0.7-0.1-1.3-0.6-1.7-1.2c-11.4-18.1-31-29.4-52.4-29.9c-24.7-0.5-48.1,11.4-62.1,31.8C181,133.5,159.6,163.4,122.9,161.9
	L122.9,161.9z M338.5,353.3c0.2,1,0.4,2.1,0.6,3.2c1.2,7.8,3.6,15.4,7.2,22.5c-2,2.4-4.2,4.8-6.4,7c-18.5,17.9-40.4,35.7-75.3,44
	c-5.6,1.3-11.5,1.3-17.1,0c-34.9-8.3-56.8-26.1-75.3-44c-30-29.1-45.4-85.6-43.3-159.1c1.1-18.2,3.5-36.2,7.2-54.1
	c34.6-5.1,55.9-34.4,71.8-56.6c11.7-17.3,31.4-27.4,52.3-26.9c17.5,0.3,33.7,9.5,42.9,24.4c2.3,3.9,6.4,6.4,10.9,6.7
	c1.4,0.1,2.8,0.1,4,0.2c2.6-0.1,5.2,0.2,7.7,0.9c11.2,3.9,17.5,13.6,24.3,23.9c2.9,4.7,6.1,9.2,9.6,13.5c4.2,5,9.3,9.1,15.1,12
	c5.2,18.2,8.1,37,8.7,55.9c1.2,43.8-3.8,81.5-14.4,111c-3.4-0.9-6.5-1.6-9.3-2.2L357,335c-8.2-1.9-16.4,3.1-18.4,11.3
	C337.9,348.7,337.9,351.1,338.5,353.3L338.5,353.3z M361.2,379.2c-7.1-7.4-8.9-17.1-10.4-24.9c-0.2-1.2-0.4-2.3-0.7-3.4
	c-0.3-1.2,0-2.4,0.8-3.2c0.6-0.6,1.5-0.9,2.3-0.9c0.3,0,0.6,0,1,0.1l2.8,0.6c7.5,1.5,17.8,3.6,25.2,10.7l0.2,0.2l-21.2,21.1
	L361.2,379.2z M484.3,456c1.9,1.4,3.1,3.6,3.2,6c0,3.5-2.8,8.1-8.6,13.8l0,0c-5.7,5.7-10.3,8.6-13.8,8.6H465c-2.4-0.2-4.6-1.3-6-3.3
	L369.5,388l21.5-21.5"/>
<g>
	<circle class="st2" cx="317" cy="287.1" r="8.9"/>
	<circle class="st2" cx="321" cy="366.5" r="8.9"/>
	<circle class="st2" cx="292" cy="312.5" r="8.9"/>
	<circle class="st2" cx="352.7" cy="291.8" r="8.9"/>
	<circle class="st2" cx="177.3" cy="363.2" r="8.9"/>
	<circle class="st2" cx="366.2" cy="324.2" r="8.9"/>
	<circle class="st2" cx="206" cy="392.8" r="8.9"/>
</g>
<path class="st1" d="M390.4,349.6c-3.2-3-38.6,41.5-36.8,39.4l96.8,100.7c3.7,4.2,8.9,6.8,14.5,7h0.2c9.1,0,17.1-6.9,22.3-12.1
	s12.2-13.3,12.1-22.5c-0.3-5.6-2.8-10.9-7.1-14.5l0,0 M484.1,456.2c1.9,1.4,3.1,3.6,3.2,6c0,3.5-2.8,8.1-8.6,13.8l0,0
	c-5.7,5.7-10.3,8.6-13.8,8.6h-0.1c-2.4-0.2-4.6-1.3-6-3.3l-89.5-93.1l21.5-21.5"/>
<path class="st3" d="M358.7,385.2c0,0-20-24.5-13.5-44.1c0,0,23.8-3.4,45.9,16.4"/>
<path class="st1" d="M348.7,352.6c-1.7,0-3.4-0.7-4.6-2l-18.5-18.8c-2.6-2.5-2.6-6.7-0.1-9.4c2.5-2.7,6.6-2.7,9.2-0.1l0.1,0.1
	l18.5,18.8c2.5,2.5,2.5,6.7,0,9.4C352.1,351.9,350.3,352.6,348.7,352.6L348.7,352.6z"/>
</svg>
