<?xml version="1.0" encoding="utf-8"?>
<!-- Generator: Adobe Illustrator 26.2.1, SVG Export Plug-In . SVG Version: 6.00 Build 0)  -->
<svg version="1.1" id="Outline" xmlns="http://www.w3.org/2000/svg" xmlns:xlink="http://www.w3.org/1999/xlink" x="0px" y="0px"
	 viewBox="0 0 512 512" style="enable-background:new 0 0 512 512;" xml:space="preserve">
<style type="text/css">
	.st0{fill:#707070;}
	.st1{fill:#AA8453;}
</style>
<path class="st0" d="M256,321.3c-7.1-0.2-13.9-3.1-19.1-8c-2.2-2.2-2.2-5.7,0-7.9c2-2,5-2.2,7.3-0.5c8.2,7,15.5,7,23.7,0
	c2.5-1.8,6-1.3,7.8,1.2c1.6,2.2,1.4,5.3-0.5,7.3C269.9,318.2,263.1,321,256,321.3z"/>
<path class="st0" d="M299,346.3c-1.2-2-3.7-2.8-5.8-1.6l-0.8,0.4c-0.9,0.4-1.9,0.7-2.9,0.9c-1.4,0.2-2.9,0.3-4.3,0.4
	c-3.1,0.1-6.2-0.1-9.2-0.6c-0.7-0.1-4.3-1-4.7-1.1c-3.3-0.7-6.8,0.1-9.6,2.1c-1.7,1.1-3.7,1.8-5.8,2c-2-0.2-4-0.9-5.8-2
	c-2.7-2-6.2-2.8-9.6-2.1c-0.4,0.1-4,1-4.7,1.1c-3,0.5-6.1,0.7-9.2,0.6c-1.4,0-2.9-0.2-4.3-0.4c-1-0.1-2-0.4-2.9-0.9l-0.8-0.4
	c-2-1.2-4.6-0.5-5.8,1.6c-1,1.7-0.7,3.8,0.7,5.2c1.8,1.7,3.9,2.9,6.2,3.6c1.9,0.7,3.8,1.1,5.8,1.4c3.7,0.7,7.5,0.8,11.3,0.5
	c1.8-0.4,3.6-0.5,5.4-0.5c1.2,0.3,2,1.3,3.1,1.9c1.1,0.7,2.3,1.2,3.6,1.6c4.5,1.4,9.3,1.4,13.8,0c1.3-0.4,2.5-0.9,3.6-1.6
	c1.1-0.6,1.8-1.6,3.1-1.9c1.8,0,3.6,0.1,5.4,0.5c3.8,0.3,7.6,0.1,11.3-0.5c2-0.3,3.9-0.7,5.8-1.4c2.3-0.7,4.4-1.9,6.2-3.6
	C299.7,350.1,300,348,299,346.3L299,346.3z"/>
<path class="st0" d="M256.2,382.5c-3.4,0-6.7-0.8-9.7-2.3c-2.9-1.6-4-5.2-2.4-8.1c1.5-2.7,4.8-3.9,7.6-2.7c2.8,1.5,6.1,1.5,8.9,0
	c3.1-1.3,6.6,0.1,7.9,3.2c1.2,2.8,0.1,6.1-2.7,7.6C262.8,381.7,259.5,382.5,256.2,382.5z"/>
<path class="st0" d="M224.1,223.1c-6.8-0.5-13.8-0.9-20.7-1.5c-7-0.5-13.9-1-20.9-1.9c0,0-7.8-1-10.5-1.2c-3.2-0.2-6.4-0.3-9.6-0.2
	c-6.6,0.9-12.9,3-18.8,6.1l-0.2,0.1c-1.3,0.7-2.9,0.2-3.6-1.2c-0.6-1.2-0.3-2.6,0.8-3.4c6.1-4.5,13-7.8,20.3-9.7
	c1.9-0.4,8.8-1.2,8.8-1.2l2.7-0.1l10.7-0.1c7.1,0,14.3,0.4,21.3,1.3c7.2,0.7,14.3,2,21.3,3.8c2.5,0.7,3.9,3.2,3.3,5.6
	C228.4,221.9,226.4,223.3,224.1,223.1L224.1,223.1z"/>
<path class="st0" d="M208.7,259.6c-2.6,0.1-5.3,0-7.9,0c-5.1,0-10.2-0.5-15.3-1.4c-4.8-0.8-9.5-2.3-13.8-4.4c0,0-1.9-1-2.5-1.2
	c-1.1-0.4-2.2-0.7-3.3-0.8c-2-0.1-4,0.2-5.9,1.1c-2.2,1.1-4.5,2.1-6.8,3h-0.1c-1.4,0.4-2.1,1.9-1.7,3.3c0.3,0.8,0.9,1.5,1.7,1.7
	c3.1,0.8,6.3,0.8,9.4,0.1c0.7-0.2,1.5-0.2,2.3,0.1c0.2,0.1,1.7,1.2,1.7,1.2c5.1,3.5,10.9,5.9,17,7c5.8,1.1,11.8,1.4,17.7,0.9
	c5.9-0.3,11.8-1.4,17.4-3.3c2.1-0.8,3.1-3.1,2.3-5.1c-0.6-1.7-2.4-2.8-4.2-2.6C216.6,259.2,211.3,259.6,208.7,259.6L208.7,259.6z"/>
<path class="st0" d="M286.3,214.1c7-1.8,14.1-3.1,21.3-3.8c7.1-0.9,14.2-1.3,21.3-1.3l10.7,0.1l5.7,0.2c2,0.2,3.9,0.5,5.8,1
	c7.3,1.9,14.2,5.2,20.3,9.7c1.2,0.9,1.5,2.5,0.6,3.7c-0.8,1.1-2.2,1.4-3.4,0.8l-0.2-0.1c-5.8-3.1-12.2-5.2-18.8-6.1
	c-1.6-0.2-3.1-0.2-4.7-0.2l-4.9,0.4l-10.5,1.2c-7,0.9-13.9,1.4-20.9,1.9c-6.9,0.6-13.9,1-20.7,1.5h-0.1c-2.5,0.2-4.8-1.7-5-4.2
	C282.7,216.7,284.1,214.7,286.3,214.1L286.3,214.1z"/>
<path class="st0" d="M303.3,259.6c2.6,0.1,5.3,0,7.9,0c5.1,0,10.2-0.5,15.3-1.4c4.8-0.8,9.5-2.3,13.8-4.4c0,0,1.9-1,2.5-1.2
	c1.1-0.4,2.2-0.7,3.3-0.8c2-0.1,4,0.2,5.9,1.1c2.2,1.1,4.5,2.1,6.8,3h0.1c1.4,0.4,2.1,1.9,1.7,3.3c-0.3,0.8-0.9,1.5-1.7,1.7
	c-3.1,0.8-6.3,0.8-9.4,0.1c-0.7-0.2-1.5-0.2-2.3,0.1c-0.2,0.1-1.7,1.2-1.7,1.2c-5.1,3.5-10.9,5.9-17,7c-5.8,1.1-11.8,1.4-17.7,0.9
	c-5.9-0.3-11.8-1.4-17.4-3.3c-2.1-0.8-3.1-3.1-2.3-5.1c0.6-1.7,2.4-2.8,4.2-2.6C295.4,259.2,300.7,259.6,303.3,259.6L303.3,259.6z"
	/>
<path class="st0" d="M425,245.2c-0.3-0.3-0.6-0.5-0.9-0.8c6.5-36.6,6.2-102.3-11.3-138.5C384.4,46.9,318.5,4.1,256.1,4.1H256
	c-62.4,0-128.4,42.8-156.8,101.8c-17.5,36.2-17.7,101.8-11.3,138.5c-0.3,0.3-0.6,0.5-0.9,0.8c-8.5,9.3-11.9,22.6-9.4,37.4
	c3.8,23.1,27.1,47.9,50.7,48c8,27.1,19.9,48.9,35.5,64c11.7,11.8,24.9,22,39.2,30.5c-2,17.4-10.2,57.7-43.9,71.2
	c-3.1,1.2-4.6,4.7-3.3,7.8c0.9,2.3,3.1,3.8,5.6,3.8c0.8,0,1.5-0.1,2.2-0.4c36.8-14.8,47.6-55.1,50.7-76.4
	c9.7,4.6,19.9,8.2,30.4,10.6c7.5,1.8,15.2,1.8,22.7,0c10.5-2.5,20.7-6,30.4-10.6c3.1,21.3,13.9,61.6,50.7,76.4
	c3.1,1.2,6.6-0.3,7.8-3.3l0,0c1.2-3.1-0.3-6.6-3.3-7.8c-33.7-13.5-41.9-53.8-43.9-71.2c14.3-8.5,27.4-18.7,39.2-30.5
	c15.6-15.2,27.6-37,35.5-64c23.5-0.1,46.8-24.9,50.7-48C436.9,267.7,433.5,254.4,425,245.2L425,245.2z M89.4,280.6
	c-2.2-9.6,0.1-19.7,6.4-27.3c5.5-5.5,13-8.6,20.9-8.6c0.1,7.1,0.3,14,0.7,20.7c-4.3-1.7-9-2.4-13.6-2.1c-3.3,0.3-5.7,3.3-5.4,6.6
	c0.3,3.3,3.2,5.7,6.5,5.4c5.2-0.5,10.2,1.4,13.7,5.3c1.3,12.7,3.4,25.3,6.3,37.7C108.9,315.7,92.1,296.9,89.4,280.6L89.4,280.6z
	 M339.9,386c-18.5,17.9-40.4,35.7-75.3,44c-5.6,1.3-11.5,1.3-17.1,0c-34.9-8.3-56.8-26.1-75.3-44c-30-29.1-45.4-85.6-43.3-159.1
	c1.1-18.2,3.5-36.2,7.2-54.1c34.6-5.1,55.9-34.4,71.8-56.6c11.7-17.3,31.4-27.4,52.3-26.9c17.5,0.3,33.7,9.5,42.9,24.4
	c2.3,3.9,6.4,6.4,10.9,6.7c1.4,0.1,2.8,0.1,4,0.2c2.6-0.1,5.2,0.2,7.7,0.9c11.2,3.9,17.5,13.6,24.3,23.9c2.9,4.7,6.1,9.2,9.6,13.5
	c4.2,5,9.3,9.1,15.1,12c5.2,18.2,8.1,37,8.7,55.9C385.2,300.4,369.8,356.9,339.9,386L339.9,386z M368.3,151.4
	c-3.2-3.9-6.1-8.1-8.8-12.4c-7.1-10.9-15.2-23.3-30.2-28.6c-3.6-1.1-7.4-1.7-11.2-1.6c-1.1,0-2.4-0.1-3.7-0.1
	c-0.7-0.1-1.3-0.6-1.7-1.2c-11.4-18.1-31-29.4-52.4-29.9c-24.7-0.5-48.1,11.4-62.1,31.8c-17.2,24.1-38.7,54-75.4,52.5
	c-3.2-0.2-6,2.2-6.2,5.5c-0.2,3.2,2.2,6,5.5,6.2c0.1,0,0.2,0,0.3,0c0.4,0,0.8,0,1.2,0c-3.5,17.5-5.7,35.2-6.8,52.9
	c-0.1,2.1,0,4.2-0.1,6.2c-6.2,0.1-12.3,1.5-17.9,4c-5.1-35.2-4.2-93.9,11.1-125.6c26.6-55,87.9-95,146-95h0.1
	c58.1,0,119.5,39.9,146,95c15.3,31.8,16.2,90.4,11.1,125.6c-5.6-2.5-11.7-3.9-17.9-4c0-2.1,0-4.1-0.1-6.2
	c-0.5-17.1-2.8-34.1-6.9-50.8c1.3,0.3,2.5,0.5,3.9,0.7c0.3,0,0.6,0.1,0.9,0.1c3.2,0.1,5.9-2.4,6-5.6c0.1-3-2.1-5.6-5.2-6
	C383.9,163.8,374.8,159,368.3,151.4L368.3,151.4z M422.6,280.6c-2.7,16.3-19.5,35.2-35.6,37.7c2.9-12.4,5-25,6.3-37.8
	c3.5-3.9,8.6-5.8,13.7-5.3c3.3,0.3,6.2-2.1,6.5-5.4s-2.1-6.2-5.4-6.6l0,0c-4.7-0.4-9.3,0.4-13.6,2.1c0.4-6.7,0.7-13.7,0.7-20.8
	c7.8-0.1,15.4,3,20.9,8.6C422.4,260.9,424.8,271,422.6,280.6L422.6,280.6z"/>
<g>
	<path class="st1" d="M355.1,423c-1.4,0.8-2.9,1.1-4.5,0.7L295.4,411c-3.2-0.8-5.2-4.1-4.4-7.3c0.8-3.1,3.9-5,7-4.4l55.1,12.7
		c3.2,0.7,5.2,3.9,4.5,7.2C357.4,420.8,356.3,422.2,355.1,423L355.1,423z"/>
	<path class="st1" d="M508.9,426.9c-3.2-0.7-6.4,1.3-7.2,4.5l-1.5,6.5l-28.3-6.5l3.1-13.6c0.7-3.3-1.4-6.4-4.6-7.2
		c-3.1-0.6-6.3,1.3-7,4.4l-1,4.4L364.1,397c-7.1-1.4-14.1,2.9-15.9,10l-4.4,19.3c-1.6,7.2,2.8,14.3,10,15.9l15.4,3.5l82.8,19l-1,4.4
		c-0.7,3.3,1.4,6.4,4.6,7.2c3.1,0.6,6.3-1.3,7-4.4l3.1-13.6l28.3,6.5l-1.5,6.5c-0.7,3.2,1.3,6.4,4.5,7.2c3.2,0.7,6.4-1.3,7.2-4.5
		l0,0l9.1-39.7C514.1,430.9,512.1,427.6,508.9,426.9L508.9,426.9z M356.5,430.5c-0.7-0.2-1.1-0.8-1-1.6l4.4-19.3
		c0.1-0.6,0.6-1.1,1.2-1.1c0.1,0,0.3,0.1,0.4,0.1l9.5,2.2l-5,21.9L356.5,430.5z M459,434.6l-4.2,18.5l-77-17.7l5-21.9l8.5,2
		l-1.4,6.2c-0.7,3.3,1.4,6.4,4.6,7.2c3.1,0.6,6.3-1.3,7-4.4l1.4-6.2L415,421l-1.4,6.2c-0.8,3.2,1.2,6.4,4.4,7.3
		c3.2,0.8,6.4-1.2,7.3-4.4l0-0.1l1.4-6.2l12.1,2.8l-1.4,6.2c-0.7,3.2,1.3,6.4,4.5,7.2c3.2,0.7,6.4-1.3,7.2-4.5l0,0l1.4-6.2l9.1,2.1
		L459,434.6L459,434.6z M496.7,453l-28.2-6.4l0.8-3.4l28.3,6.5L496.7,453z"/>
</g>
<path class="st1" d="M424.2,346.5l-11.3-11.3l-24,24c-3.1,3.1-3.1,8.2,0,11.3l24,24l11.3-11.3l-10.3-10.3h70v-16h-70L424.2,346.5z"
	/>
<path class="st1" d="M350.5,314.5"/>
<path class="st1" d="M48.8,420.9H124l-10.3,10.3l11.3,11.3l24-24c3.1-3.1,3.1-8.2,0-11.3l-24-24l-11.3,11.3l10.3,10.3H48.8V420.9z"
	/>
</svg>
