<?xml version="1.0" encoding="utf-8"?>
<!-- Generator: Adobe Illustrator 26.2.1, SVG Export Plug-In . SVG Version: 6.00 Build 0)  -->
<svg version="1.1" id="Outline" xmlns="http://www.w3.org/2000/svg" xmlns:xlink="http://www.w3.org/1999/xlink" x="0px" y="0px"
	 viewBox="0 0 512 512" style="enable-background:new 0 0 512 512;" xml:space="preserve">
<style type="text/css">
	.st0{fill:#707070;}
	.st1{fill:none;stroke:#AA8453;stroke-width:9.8939;stroke-miterlimit:10;}
</style>
<path class="st0" d="M256,321.2c-7.2-0.4-14-3.2-19.2-8c-2-2-2-5.6,0-8c2-2,5.2-2,7.2-0.4c8,7.2,15.6,7.2,23.6,0c2.4-2,6-1.2,8,1.2
	c1.6,2.4,1.6,5.2-0.4,7.2C270,318,263.2,321.2,256,321.2L256,321.2z"/>
<path class="st0" d="M299.2,346.4c-1.2-2-3.6-2.8-5.6-1.6l-0.8,0.4c-0.8,0.4-2,0.8-2.8,0.8c-1.6,0.4-2.8,0.4-4.4,0.4
	c-3.2,0-6,0-9.2-0.8c-0.8,0-4.4-1.2-4.8-1.2c-3.2-0.8-6.8,0-9.6,2c-2,1.6-4,2-6,2.4c-2,0-4-0.8-5.6-2c-2.8-2-6.4-2.8-9.6-2
	c-0.4,0-4,0.8-4.8,1.2c-3.2,0.4-6,0.8-9.2,0.8c-1.6,0-2.8,0-4.4-0.4c-1.2,0-2-0.4-2.8-0.8l-0.8-0.4c-2-1.2-4.8-0.4-5.6,1.6
	c-0.8,1.6-0.8,4,0.8,5.2c1.6,1.6,4,2.8,6.4,3.6c2,0.8,4,1.2,6,1.2c3.6,0.8,7.6,0.8,11.2,0.4c1.6-0.4,3.6-0.4,5.2-0.4
	c1.2,0.4,2,1.2,3.2,2s2.4,1.2,3.6,1.6c4.4,1.2,9.2,1.2,13.6,0c1.2-0.4,2.4-0.8,3.6-1.6s2-1.6,3.2-2c2,0,3.6,0,5.2,0.4
	c3.6,0.4,7.6,0,11.2-0.4c2-0.4,4-0.8,6-1.2c2.4-0.8,4.4-2,6.4-3.6C299.6,350,300,348,299.2,346.4L299.2,346.4z"/>
<path class="st0" d="M256,382.4c-3.2,0-6.8-0.8-9.6-2.4s-4-5.2-2.4-8s4.8-4,7.6-2.8c2.8,1.6,6,1.6,8.8,0c3.2-1.2,6.4,0,8,3.2
	c1.2,2.8,0,6-2.8,7.6S259.6,382.4,256,382.4L256,382.4z"/>
<path class="st0" d="M224,223.2c-6.8-0.4-13.6-0.8-20.8-1.6c-6.8-0.4-14-1.2-20.8-2c0,0-8-0.8-10.4-1.2c-3.2-0.4-6.4-0.4-9.6-0.4
	c-6.4,0.8-12.8,2.8-18.8,6c-1.2,0.8-2.8,0-3.6-1.2c-0.4-1.2-0.4-2.4,0.8-3.2c6-4.4,12.8-8,20.4-9.6c2-0.4,8.8-1.2,8.8-1.2h2.8h10.8
	c7.2,0,14.4,0.4,21.2,1.2c7.2,0.8,14.4,2,21.2,4c2.4,0.8,4,3.2,3.2,5.6S226.4,223.2,224,223.2L224,223.2z"/>
<path class="st0" d="M303.2,259.6h8c5.2,0,10.4-0.4,15.2-1.6c4.8-0.8,9.6-2.4,14-4.4c0,0,2-1.2,2.4-1.2c1.2-0.4,2-0.8,3.2-0.8
	c2,0,4,0.4,6,1.2c2.4,1.2,4.4,2,6.8,2.8c1.2,0.4,2,2,1.6,3.2c-0.4,0.8-0.8,1.6-1.6,1.6c-3.2,0.8-6.4,0.8-9.2,0c-0.8-0.4-1.6,0-2.4,0
	c-0.4,0-1.6,1.2-1.6,1.2c-5.2,3.6-10.8,6-17.2,6.8c-6,1.2-11.6,1.6-17.6,0.8c-6-0.4-12-1.2-17.6-3.2c-2-0.8-3.2-3.2-2.4-5.2
	c0.8-1.6,2.4-2.8,4-2.4C295.2,259.2,300.8,259.6,303.2,259.6L303.2,259.6z"/>
<path class="st0" d="M208.8,259.6c-2.8,0-5.2,0-8,0c-5.2,0-10.4-0.4-15.2-1.6c-4.8-0.8-9.6-2.4-14-4.4c0,0-2-1.2-2.4-1.2
	c-1.2-0.4-2.4-0.4-3.2-0.8c-2,0-4,0.4-6,1.2c-2.4,1.2-4.4,2-6.8,2.8c-1.2,0.4-2,2-1.6,3.2c0.4,0.8,0.8,1.6,1.6,1.6
	c3.2,0.8,6.4,0.8,9.2,0c0.8-0.4,1.6,0,2.4,0c0.4,0,1.6,1.2,1.6,1.2c5.2,3.6,10.8,6,17.2,6.8c6,1.2,11.6,1.6,17.6,0.8
	c6-0.4,12-1.2,17.6-3.2c2-0.8,3.2-3.2,2.4-5.2c-0.8-1.6-2.4-2.8-4-2.4C216.8,259.2,211.2,259.6,208.8,259.6L208.8,259.6z"/>
<path class="st0" d="M286.4,214c6.8-2,14-3.2,21.2-4s14.4-1.2,21.2-1.2h10.8l5.6,0.4c2,0.4,4,0.4,6,0.8c7.2,2,14.4,5.2,20.4,9.6
	c1.2,0.8,1.6,2.4,0.4,3.6c-0.8,1.2-2.4,1.6-3.6,0.8c-6-3.2-12.4-5.2-18.8-6c-1.6,0-3.2-0.4-4.8-0.4l-4.8,0.8l-10.4,1.2
	c-6.8,0.8-14,1.6-20.8,2c-6.8,0.8-14,0.8-20.8,1.6c-2.4,0-4.8-1.6-4.8-4.4C282.8,216.8,284,214.8,286.4,214L286.4,214z"/>
<path class="st0" d="M329.2,376.8c1.6-1.6,4-1.6,5.6,0.4s1.6,4-0.4,5.6c-2,2-4,3.6-6,5.6c-1.6,1.2-4.4,1.2-5.6-0.8
	c-1.2-1.6-1.2-4,0.4-5.6C325.6,380,327.6,378.4,329.2,376.8z"/>
<path class="st0" d="M277.2,409.6c2.4-0.8,4.8-1.6,7.2-2.8c2-0.8,4.4,0,5.2,2s0,4.4-2,5.2c-2.4,1.2-5.2,2-7.6,2.8
	c-2,0.8-4.4-0.4-5.2-2.4C274,412.8,274.8,410.4,277.2,409.6L277.2,409.6z"/>
<path class="st0" d="M301.6,398c2.4-1.2,4.4-2.8,6.4-4.4c2-1.2,4.4-0.8,5.6,1.2s0.8,4.4-1.2,5.6c-2.4,1.6-4.4,3.2-6.8,4.4
	c-2,1.2-4.4,0.4-5.6-1.2S299.6,399.2,301.6,398z"/>
<path class="st0" d="M380,311.6c1.2-2,3.6-2.8,5.6-1.6s2.8,3.6,1.6,5.6s-1.6,2.8-4,7.2c-1.2,2-3.6,2.8-5.6,1.6s-2.8-3.6-1.6-5.6
	c0,0,0,0,0-0.4C378.8,314,380,311.6,380,311.6L380,311.6z"/>
<path class="st0" d="M365.2,334.8c1.2-2,3.6-2.4,5.6-0.8c2,1.2,2.4,3.6,0.8,5.6s-3.2,4.4-4.8,6.4c-1.2,1.6-3.6,2-5.6,0.8
	s-2-3.6-0.8-5.6C362.4,339.2,364,336.8,365.2,334.8z"/>
<path class="st0" d="M348.4,356.8c1.2-1.6,4-2,5.6-0.8s2,4,0.8,5.6c0,0,0,0-0.4,0.4c-1.6,2-3.6,4-5.2,6c-1.2,1.6-4,2-5.6,0.8
	s-2-4-0.8-5.6l0.4-0.4C344.8,360.8,346.8,358.8,348.4,356.8z"/>
<path class="st0" d="M204,394c2,1.6,4.4,2.8,6.4,4.4c2,1.2,2.4,3.6,1.2,5.6s-3.6,2.4-5.6,1.2c-2.4-1.6-4.8-2.8-6.8-4.4
	c-2-1.2-2.4-3.6-1.2-5.6S202,392.4,204,394L204,394z"/>
<path class="st0" d="M163.6,356.8c1.6,2,3.6,4,5.2,6c1.6,1.6,1.6,4,0,5.6s-4,1.6-5.6,0c-2-2-3.6-4-5.2-6c-1.6-1.6-1.6-4,0-5.6
	C159.2,354.8,162,354.8,163.6,356.8C163.6,356.4,163.6,356.8,163.6,356.8z"/>
<path class="st0" d="M146.8,334.8c1.6,2,2.8,4,4.8,6.4c1.2,1.6,1.2,4.4-0.8,5.6c-1.6,1.2-4.4,1.2-5.6-0.8c-1.6-2.4-3.2-4.4-4.8-6.4
	c-1.2-2-0.8-4.4,0.8-5.6S145.2,333.2,146.8,334.8z"/>
<path class="st0" d="M126.4,310c2-1.2,4.4-0.4,5.6,1.6c0,0,1.2,2.4,4,6.8c1.2,2,0.4,4.4-1.2,5.6c-2,1.2-4.4,0.4-5.6-1.2
	c-2.8-4.4-4-7.2-4-7.2C123.6,313.6,124.4,311.2,126.4,310L126.4,310z"/>
<path class="st0" d="M182.8,376.8c2,1.6,4,3.6,6,5.2c1.6,1.6,1.6,4,0.4,5.6c-1.6,1.6-3.6,1.6-5.6,0.4c-2-1.6-4-3.6-6-5.6
	c-1.6-1.6-2-4-0.4-5.6C178.4,375.2,180.8,375.2,182.8,376.8C182.4,376.4,182.8,376.8,182.8,376.8z"/>
<path class="st0" d="M251.6,414.4h8.8c2-0.4,4.4,1.2,4.4,3.2c0.4,2-1.2,4.4-3.2,4.4c-1.2,0-10,0-10.8,0c-2-0.4-3.6-2.4-3.6-4.4
	S249.2,414,251.6,414.4L251.6,414.4z"/>
<path class="st0" d="M227.6,406.8c2.4,1.2,4.8,2,7.2,2.8c2,0.8,3.2,2.8,2.4,5.2c-0.8,2-2.8,3.2-5.2,2.4c-2.4-0.8-5.2-2-7.6-2.8
	c-2-0.8-2.8-3.2-2-5.2C223.6,407.2,225.6,406,227.6,406.8L227.6,406.8z"/>
<path class="st0" d="M425.2,245.2c-0.4-0.4-0.4-0.4-0.8-0.8c6.4-36.8,6-102.4-11.2-138.4C384.4,46.8,318.4,4,256,4
	S127.6,46.8,99.2,106C81.6,142,81.6,208,88,244.4c-0.4,0.4-0.4,0.4-0.8,0.8c-8.4,9.2-12,22.4-9.6,37.6c4,23.2,27.2,48,50.8,48
	c8,27.2,20,48.8,35.6,64c11.6,11.6,24.8,22,39.2,30.4c-2,17.6-10.4,57.6-44,71.2c-3.2,1.2-4.4,4.8-3.2,8c0.8,2.4,3.2,3.6,5.6,3.6
	c0.8,0,1.6,0,2.4-0.4c36.8-14.8,47.6-55.2,50.8-76.4c9.6,4.4,20,8,30.4,10.8c7.6,1.6,15.2,1.6,22.8,0c10.4-2.4,20.8-6,30.4-10.8
	c3.2,21.2,14,61.6,50.8,76.4c3.2,1.2,6.4-0.4,8-3.2c1.2-3.2-0.4-6.4-3.2-8c-33.6-13.6-42-53.6-44-71.2c14.4-8.4,27.6-18.8,39.2-30.4
	c15.6-15.2,27.6-36.8,35.6-64c23.6,0,46.8-24.8,50.8-48C436.8,267.6,433.6,254.4,425.2,245.2L425.2,245.2z M89.2,280.8
	c-2.4-9.6,0-19.6,6.4-27.2c5.6-5.6,13.2-8.8,20.8-8.4c0,7.2,0.4,14,0.8,20.8c-4.4-1.6-8.8-2.4-13.6-2c-3.2,0.4-5.6,3.2-5.2,6.4
	s3.2,5.6,6.4,5.2c5.2-0.4,10.4,1.6,13.6,5.2c1.2,12.8,3.2,25.2,6.4,37.6C108.8,315.6,92,296.8,89.2,280.8L89.2,280.8z M340,386
	c-18.4,18-40.4,35.6-75.2,44c-5.6,1.2-11.6,1.2-17.2,0c-34.8-8.4-56.8-26-75.2-44c-30-29.2-45.2-85.6-43.2-159.2
	c1.2-18,3.6-36.4,7.2-54c34.8-5.2,56-34.4,71.6-56.8c11.6-17.2,31.6-27.6,52.4-26.8c17.6,0.4,33.6,9.6,42.8,24.4
	c2.4,4,6.4,6.4,10.8,6.8h4c2.4,0,5.2,0.4,7.6,0.8c11.2,4,17.6,13.6,24.4,24c2.8,4.8,6,9.2,9.6,13.6c4,4.8,9.2,9.2,15.2,12
	c5.2,18,8,36.8,8.8,56C385.2,300.4,370,356.8,340,386L340,386z M368.4,151.6c-3.2-4-6-8-8.8-12.4c-7.2-10.8-15.2-23.2-30-28.4
	c-3.6-1.2-7.6-1.6-11.2-1.6c-1.2,0-2.4,0-3.6,0c-0.8,0-1.2-0.4-1.6-1.2C302,90,282,78.8,260.8,78c-24.8-0.4-48,11.6-62,31.6
	c-17.2,24-38.8,54-75.6,52.4c-3.2,0-6,2.4-6,5.6s2.4,6,5.6,6h0.4h1.2c-3.6,17.6-5.6,35.2-6.8,52.8v6.4c-6,0-12.4,1.6-18,4
	c-5.2-35.2-4-94,11.2-125.6C136.4,56,198,16,256,16s119.6,40,146,94.8c15.2,31.6,16.4,90.4,11.2,125.6c-5.6-2.4-11.6-4-18-4
	c0-2,0-4,0-6.4c-0.4-17.2-2.8-34-6.8-50.8c1.2,0.4,2.4,0.4,4,0.8h0.8c3.2,0,6-2.4,6-5.6s-2-5.6-5.2-6
	C384,164,374.8,159.2,368.4,151.6L368.4,151.6z M422.4,280.8c-2.8,16.4-19.6,35.2-35.6,37.6c2.8-12.4,5.2-25.2,6.4-37.6
	c3.6-4,8.4-6,13.6-5.2c3.2,0.4,6-2,6.4-5.2s-2-6.4-5.2-6.4c-4.8-0.4-9.2,0.4-13.6,2c0.4-6.8,0.8-13.6,0.8-20.8
	c8,0,15.2,3.2,20.8,8.4C422.4,260.8,424.8,271.2,422.4,280.8L422.4,280.8z"/>
<g>
	<path class="st1" d="M170.2,439.4c0,0-60.7-15.3-64.7-82.9"/>
	<polyline class="st1" points="129.7,376.5 104,353.8 91.9,381.3 	"/>
</g>
<g>
	<path class="st1" d="M342.5,439.4c0,0,60.7-15.3,64.7-82.9"/>
	<polyline class="st1" points="382.9,376.5 408.7,353.8 420.7,381.3 	"/>
</g>
</svg>
