<?xml version="1.0" encoding="utf-8"?>
<!-- Generator: Adobe Illustrator 26.2.1, SVG Export Plug-In . SVG Version: 6.00 Build 0)  -->
<svg version="1.1" id="Outline" xmlns="http://www.w3.org/2000/svg" xmlns:xlink="http://www.w3.org/1999/xlink" x="0px" y="0px"
	 viewBox="0 0 512 512" style="enable-background:new 0 0 512 512;" xml:space="preserve">
<style type="text/css">
	.st0{fill:#707070;}
</style>
<g>
	<path class="st0" d="M409.7,284.5c-12.1-28.9-23.4-56.3-23.4-97.5c0-9.9,1.6-25.3,3.4-41.6c2-19.3,4.3-41.1,4.3-58.1
		c0-4.2-3.5-7.7-7.7-7.7c-4.2,0-7.7,3.4-7.7,7.7c0,16.1-2.3,37.6-4.2,56.4c-1.7,16.7-3.5,32.5-3.5,43.2c0,44.3,11.9,72.9,24.5,103.3
		c14.3,34.5,29.1,70.2,29.1,134.4c0,4.2,3.5,7.7,7.7,7.7c4.2,0,7.7-3.5,7.7-7.7C440,357.4,423.9,318.7,409.7,284.5z"/>
	<path class="st0" d="M133.3,87.3c0-4.2-3.4-7.7-7.7-7.7s-7.7,3.5-7.7,7.7c0,17,2.3,38.8,4.3,58.1c1.7,16.3,3.4,31.7,3.4,41.6
		c0,41.2-11.3,68.5-23.4,97.5C88.1,318.7,72,357.4,72,424.7c0,4.2,3.4,7.7,7.7,7.7s7.7-3.5,7.7-7.7c0-64.2,14.9-99.9,29.1-134.4
		c12.7-30.4,24.5-59,24.5-103.3c0-10.7-1.6-26.5-3.5-43.2C135.6,124.9,133.3,103.4,133.3,87.3z"/>
	<path class="st0" d="M260.8,277.4c3.3-2.6,3.8-7.4,1.2-10.7c-2.6-3.4-7.5-3.9-10.7-1.3c-1,0.8-9.5,7.7-9.5,17.9
		c0,4.4,1.6,11,9.5,17.2c1.4,1.1,3.1,1.6,4.7,1.6c2.3,0,4.5-1.1,6-3c2.6-3.4,2-8.1-1.3-10.7c-1.6-1.2-3.5-3.2-3.5-5
		C257.2,281,259.5,278.3,260.8,277.4z"/>
</g>
</svg>
