<?xml version="1.0" encoding="utf-8"?>
<!-- Generator: Adobe Illustrator 26.2.1, SVG Export Plug-In . SVG Version: 6.00 Build 0)  -->
<svg version="1.1" id="Outline" xmlns="http://www.w3.org/2000/svg" xmlns:xlink="http://www.w3.org/1999/xlink" x="0px" y="0px"
	 viewBox="0 0 512 512" style="enable-background:new 0 0 512 512;" xml:space="preserve">
<style type="text/css">
	.st0{fill:#707070;}
	.st1{fill:#AA8453;}
</style>
<path class="st0" d="M256,273.1c5.7-0.2,11.1-2.5,15.3-6.4c2.5-2.2,2.8-6,0.6-8.5c-2.2-2.5-6-2.8-8.5-0.6l0,0
	c-3.5,4.1-9.8,4.6-13.9,1c-0.4-0.3-0.7-0.7-1-1c-2.5-2.2-6.3-1.9-8.5,0.6c-2.2,2.5-1.9,6.3,0.6,8.5l0,0
	C244.9,270.7,250.3,272.9,256,273.1L256,273.1z"/>
<path class="st0" d="M285.8,294.5L285.8,294.5c-4.7,0.9-9.4,1.1-14.1,0.4c-1.2-0.2-2.3-0.4-3.6-0.6c-1.9-0.4-3.9-0.5-5.8-0.3
	c-2,0.4-4,1.1-5.7,2.3c-0.4,0.2-0.8,0.2-1.2,0c-1.7-1.2-3.6-2-5.7-2.3c-1.9-0.3-3.9-0.2-5.8,0.3c-1.3,0.3-2.5,0.5-3.6,0.6
	c-4.7,0.7-9.4,0.5-14-0.4h-0.1c-2.3-0.5-4.6,1.1-5.1,3.4c-0.4,2,0.7,4,2.5,4.8c5.5,2.4,11.5,3.5,17.5,3.3c1.5,0,3-0.2,4.3-0.3
	c1.3-0.1,2.6,0.3,3.6,1.2c2,1.2,4.2,1.8,6.5,1.9h0.9c2.3,0,4.5-0.7,6.5-1.9c1-0.8,2.3-1.2,3.6-1.2c1.3,0.1,2.8,0.2,4.3,0.3
	c6,0.2,12-1,17.5-3.3c2.2-0.9,3.2-3.5,2.3-5.6C289.8,295.2,287.8,294.1,285.8,294.5L285.8,294.5z"/>
<path class="st0" d="M259.8,316.2c-2.4,1.3-5.3,1.3-7.7,0c-2.9-1.6-6.6-0.5-8.1,2.4c-1.6,2.9-0.5,6.6,2.4,8.1
	c0.2,0.1,0.3,0.2,0.5,0.2c5.7,2.8,12.4,2.8,18.1,0c2.9-1.6,4-5.2,2.4-8.1C266,316.1,262.7,314.9,259.8,316.2L259.8,316.2z"/>
<path class="st0" d="M291,183.8l0.2,0c10.1-1.5,20.4-2.2,30.6-2c5.3-0.2,10.6,0,15.9,0.5c5.2,0.4,10.3,1.4,15.3,2.8l0.2,0.1
	c1.5,0.5,3-0.3,3.5-1.8c0.4-1.2-0.1-2.6-1.3-3.2c-5.1-2.7-10.5-4.8-16.2-6.2c-5.5-1.4-11.1-2.5-16.7-3.3c-5.7-0.7-11.5-0.8-17.2-0.2
	c-5.9,0.5-11.7,2-17.2,4.4c-2.4,1.1-3.4,3.9-2.3,6.3C286.7,183.1,288.8,184.2,291,183.8L291,183.8z"/>
<path class="st0" d="M342.8,217.6c-1.7-2.8-4.7-4.6-8-4.7c-2.9-0.1-5.8,0.4-8.4,1.6l-1.7,0.8l-1.3,0.6c-0.9,0.4-1.8,0.8-2.7,1.1
	c-1.8,0.7-3.6,1.3-5.5,1.9c-3.6,1.1-7.3,1.9-11,2.2c-3.4,0.4-6.8,0.1-10-0.9l-0.6-0.2c-2.2-0.8-4.7,0.5-5.4,2.7
	c-0.6,1.7,0,3.5,1.3,4.6c4.2,3.3,9.4,5.2,14.8,5.2c4.9,0.1,9.8-0.6,14.5-2.1c2.3-0.7,4.5-1.6,6.7-2.6c1.1-0.5,2.1-1.1,3.2-1.7
	l1.6-0.9c0.5-0.3,0.7-0.5,1.1-0.8c1.2-0.8,2.5-1.5,3.9-2.1c1.2-0.6,2.6-0.8,4-0.6l0.7,0.1c0.6,0.1,1.2,0,1.7-0.3
	C343,220.6,343.5,218.9,342.8,217.6C342.8,217.6,342.8,217.6,342.8,217.6L342.8,217.6z"/>
<path class="st0" d="M223.9,222.6c-0.8-2.2-3.2-3.5-5.4-2.7l-0.5,0.2c-3.2,1-6.6,1.3-10,0.9c-3.7-0.4-7.4-1.1-11-2.2
	c-1.8-0.6-3.7-1.2-5.5-1.9c-0.9-0.3-1.8-0.7-2.7-1.1l-1.3-0.6l-1.7-0.8c-2.7-1.2-5.5-1.7-8.4-1.6c-3.3,0.2-6.3,1.9-8,4.7
	c-0.7,1.4-0.2,3.1,1.2,3.8c0.5,0.3,1.1,0.4,1.7,0.3l0.7-0.1c1.3-0.2,2.7,0,4,0.6c1.4,0.6,2.7,1.2,3.9,2.1c0.4,0.3,0.6,0.5,1.1,0.8
	l1.6,0.9c1.1,0.6,2.1,1.2,3.2,1.7c2.2,1,4.4,1.9,6.7,2.6c4.7,1.5,9.6,2.2,14.5,2.1c5.4,0,10.6-1.8,14.8-5.2
	C223.9,226.1,224.4,224.3,223.9,222.6L223.9,222.6z"/>
<path class="st0" d="M174.4,182.2c5.3-0.5,10.6-0.6,15.8-0.5c10.2-0.1,20.5,0.5,30.6,2l0.2,0c2.6,0.5,5.1-1.2,5.6-3.8
	c0.4-2.1-0.7-4.3-2.7-5.2c-5.5-2.4-11.3-3.9-17.2-4.4c-5.7-0.6-11.5-0.5-17.2,0.2c-5.6,0.8-11.2,1.9-16.7,3.3
	c-5.6,1.4-11.1,3.4-16.2,6.2c-1.3,0.8-1.8,2.4-1,3.8c0.6,1.1,2,1.6,3.2,1.3l0.2-0.1C164,183.6,169.2,182.7,174.4,182.2L174.4,182.2z
	"/>
<path class="st0" d="M451.1,500.4c-6.3-16.5-16.3-31.4-29.2-43.6c-12-11.1-33.7-18.8-53.9-25.5c2.4-11.7,6-23.1,10.8-34
	c1.6-3.8,4.2-7.2,7.5-9.7c10.6-8.3,16-17.9,15.8-37.5c-0.1-6.4-8.2-54.3-25.6-57.5c-3-0.6-6-0.2-8.8,1.1c-0.3-1-0.7-1.9-1-2.8
	c18.5-3.5,36-23.1,39-41c2.5-11.4-0.3-23.3-7.6-32.4c8-38.8,11.7-92.4-3.9-120.7c-31-56.4-84-91.4-138.3-91.5S148.7,40.3,117.7,96.7
	c-15.5,28.3-11.9,81.9-3.9,120.7c-7.3,9.1-10.1,21-7.6,32.4c3,17.9,20.5,37.5,39,41c-0.3,0.9-0.6,1.9-1,2.8
	c-2.7-1.3-5.8-1.6-8.8-1.1c-17.5,3.2-25.6,51.1-25.6,57.5c-0.2,19.6,5.2,29.2,15.8,37.5c3.3,2.5,5.9,5.9,7.6,9.7
	c4.8,10.9,8.4,22.3,10.8,33.9c-20.1,6.6-41.8,14.3-53.9,25.5c-12.9,12.1-22.8,27-29.2,43.6c-1.2,3.1,0.4,6.6,3.5,7.7
	c3,1.1,6.4-0.3,7.6-3.2c5.7-14.9,14.6-28.3,26.2-39.3c9.4-8.7,27.9-15.6,44.9-21.4c-4.2,13.6-17.3,44.2-22.5,56
	c-1.3,3,0.1,6.6,3.1,7.9c3,1.3,6.5,0,7.9-3c0.9-2,21.4-48.3,24.3-62.2c3.7-17.4-13.6-54.8-16.3-60.5c-4.6-14.2-4.4-29.5,0.8-43.5
	l3.4-9.1c4.5-12.2,9.7-26,13.5-37c0.2-0.6,0.6-1.2,1.1-1.6c1-0.7,2.4-0.8,3.5-0.3c1.1,0.5,1.7,1.6,1.7,2.7c0.1,1.4,0,2.9-0.1,4.3
	c-1.4,15-3.6,30-6.6,44.7c-2.2,10,6,20.2,14,29.9c2.6,3.1,5,6.1,6.8,8.7c19.5,28.7,12.2,45,7.4,55.7l-0.9,2.1
	c-4.2,9.6-14.6,56.8-15.8,62.1c-0.7,3.2,1.3,6.4,4.5,7.2c3.2,0.7,6.4-1.3,7.2-4.5c0,0,0,0,0-0.1c4.5-20.5,12.3-53.4,15.1-59.9l0.9-2
	c3.6-7.2,5.7-15,6.3-23c16.9-14.2,19.5-33.6,20.5-48c9.2,4.2,18.9,7.3,28.8,9.2c1.4,0.3,2.7,0.5,4.1,0.6c1.6-0.1,3.1-0.3,4.7-0.6
	c9.8-1.9,19.4-5,28.5-9.1c1,14.4,3.6,33.8,20.5,48c0.6,8,2.8,15.8,6.3,23l0.9,2c2.8,6.5,10.5,39.4,15.1,59.9
	c0.7,3.2,3.9,5.3,7.1,4.6c3.2-0.7,5.3-3.9,4.6-7.1c0,0,0,0,0-0.1c-1.2-5.3-11.6-52.5-15.8-62.1l-0.9-2.1c-4.8-10.8-12.1-27,7.4-55.7
	c1.8-2.6,4.2-5.6,6.8-8.7c8-9.8,16.3-19.9,14-30c-3-14.8-5.2-29.7-6.6-44.7c-0.1-1.5-0.1-3.1,0-4.7c0-1,0.7-2,1.6-2.4
	c1.1-0.5,2.5-0.4,3.5,0.3c0.5,0.4,0.9,1,1.1,1.6c3.8,11,8.9,24.8,13.5,37l3.4,9.1c5.2,14,5.4,29.3,0.8,43.5
	c-2.7,5.7-20,43.2-16.3,60.5c3,13.9,23.5,60.2,24.3,62.2c1.4,3,4.9,4.4,7.9,3c3-1.4,4.3-4.9,3-7.9c-5.2-11.8-18.3-42.3-22.5-55.9
	c17.6,5.9,35.5,12.7,44.9,21.3c11.6,11,20.5,24.4,26.2,39.3c0.9,2.3,3.1,3.7,5.6,3.7c0.8,0,1.5-0.1,2.3-0.4
	C450.8,507,452.3,503.5,451.1,500.4C451.1,500.4,451.1,500.4,451.1,500.4L451.1,500.4z M132.6,325.6l-3.4,9.1
	c-3.9,10.7-5.5,22.1-4.5,33.5c-2.2-5.7-3.2-11.8-2.8-17.9c0.1-10.9,10-43.8,15.8-45.8c0.9-0.2,1.8,0.1,2.4,0.8
	C137.6,312,135,319.1,132.6,325.6L132.6,325.6z M393.9,247.9c-2.1,12.6-15.2,27.7-27.9,30.9c2.5-9.3,4.4-18.8,5.6-28.4
	c1.1-2.8,3.9-4.4,6.8-4.2c3.3,0.3,6.2-2.1,6.6-5.4c0.3-3.3-2.1-6.2-5.4-6.6c0,0,0,0-0.1,0c-2.1-0.2-4.3,0-6.4,0.5
	c0.4-5.3,0.6-10.8,0.7-16.4c5.6,0.2,11,2.5,14.9,6.5C394,231.4,395.8,239.9,393.9,247.9z M128.3,102.5
	c28.4-51.8,78.6-85.2,127.7-85.2s99.3,33.5,127.7,85.2c12.5,22.8,11,68.7,3.7,107.1c-4.4-1.9-9.2-3-14-3.2
	c-3.8-52.4-11.2-93.3-54.2-107.1c-2.6-0.8-4.8-2.3-6.6-4.4c-18.5-22.6-46.7-34.2-72-29.7c-22.1,4-39,19.7-47.5,44.2
	c-9.8,28.5-20.8,36.6-30.4,43.7c-12.1,9-22.5,16.9-24.4,53.3c-4.8,0.2-9.5,1.2-13.8,3.1C117.3,171.2,115.7,125.3,128.3,102.5z
	 M118.1,247.9c-1.9-8-0.1-16.5,5.1-22.9c4-4.1,9.5-6.4,15.2-6.5c0.1,5.6,0.3,11.1,0.7,16.5c-2.2-0.6-4.5-0.8-6.7-0.6
	c-3.3,0.3-5.7,3.2-5.4,6.5s3.2,5.7,6.5,5.4c0,0,0,0,0.1,0c1.2-0.1,4.6-0.4,7.3,4.9c1.3,9.3,3.1,18.6,5.5,27.7
	C133.5,275.9,120.2,260.7,118.1,247.9L118.1,247.9z M211.2,366.3c-0.6,11.1-1.5,25.4-10.2,37c-2.7-10.3-7.2-19.9-13.3-28.6
	c-2.1-3.1-4.7-6.2-7.4-9.6c-5.3-6.5-12.6-15.4-11.6-19.7c0.7-3.1,1.7-8.3,2.6-14.2c2.5,3.2,5.2,6.1,8.1,8.9
	c9.6,9.6,20.3,17.9,31.9,24.9C211.3,365.4,211.2,365.8,211.2,366.3L211.2,366.3z M331.7,365.1c-2.7,3.3-5.3,6.5-7.4,9.6
	c-6.1,8.6-10.7,18.3-13.3,28.5c-8.7-11.6-9.6-25.9-10.2-36.9c0-0.4-0.1-0.8-0.1-1.3c11.6-7,22.3-15.4,31.9-24.9
	c2.9-2.8,5.6-5.8,8.1-9c1,6,2,11.2,2.7,14.2C344.3,349.7,337,358.6,331.7,365.1L331.7,365.1z M345.2,280c-4.9,2.2-8.2,6.8-8.7,12.1
	c0,0-0.2,4,0,6.7c0.3,4.2,0.9,9.6,1.6,15.3c-3.9,6.4-8.5,12.2-13.8,17.5c-16,15.5-35.1,30.7-66,37c-1.5,0.3-3,0.3-4.5,0
	c-31-6.2-50-21.4-66-37c-5.3-5.2-9.9-11.1-13.8-17.5c0.8-5.7,1.4-11.1,1.6-15.2c0.2-2,0.2-4.1,0.1-6.1c0,0,0-0.5-0.1-0.6
	c-0.5-5.3-3.8-9.9-8.7-12.1c-2.5-1.1-5.3-1.6-8-1.3c-5.9-21.6-8.8-43.8-8.5-66.2c0,0,0-0.1,0-0.1c1.1-33.9,8.5-41.2,19.7-49.5
	c10.5-7.8,23.5-17.5,34.6-49.4c9-26,25.8-34.1,38.3-36.3c21-3.8,44.8,6.3,60.6,25.5c3.2,3.8,7.4,6.7,12.2,8.2
	c33.9,10.9,42.1,42.8,46.3,102v0.2c0,0,0,0.1,0,0.2c0,0.4,0.1,0.8,0.1,1.2c0.1,21.7-2.7,43.4-8.5,64.4
	C350.7,278.4,347.8,278.9,345.2,280L345.2,280z M371.9,305.2c0.6-0.6,1.5-1,2.4-0.8c5.9,2,15.8,34.9,15.9,45.8
	c0.4,6.1-0.6,12.2-2.8,17.9c0.9-11.3-0.6-22.7-4.5-33.4l-3.4-9.1C377,319.1,374.4,312,371.9,305.2L371.9,305.2z"/>
<g>
	<path class="st1" d="M167.7,259c-1.4-0.3-2.8-0.6-4.3-0.8c-2.2-0.4-4.2,1.1-4.6,3.3s1.1,4.2,3.3,4.6c0.1,0,0.2,0,0.3,0
		c1.1,0.2,2.3,0.4,3.4,0.6c0.3,0.1,0.6,0.1,1,0.1c2.2,0,4-1.8,4-4C170.7,261,169.5,259.4,167.7,259L167.7,259z"/>
	<path class="st1" d="M198.5,299.1c-2.2,0.1-3.9,2-3.8,4.2c0,0,0,0,0,0c0,0.6,0.1,1.3,0,1.9c0,0.5,0,1.1,0,1.6
		c-0.1,2.2,1.6,4.1,3.8,4.2c0,0,0,0,0,0h0.2c2.1,0,3.9-1.7,4-3.8c0-0.7,0-1.3,0-2c0-0.8,0-1.6-0.1-2.3
		C202.5,300.7,200.7,299,198.5,299.1L198.5,299.1z"/>
	<path class="st1" d="M183.2,266.4c-1.8-1.3-4.3-1-5.6,0.8s-1,4.3,0.8,5.6c0,0,0,0,0,0c0.9,0.7,1.8,1.4,2.7,2.3
		c1.6,1.5,4.2,1.4,5.7-0.3c1.5-1.6,1.4-4.2-0.3-5.7C185.4,268.1,184.3,267.2,183.2,266.4L183.2,266.4z"/>
	<path class="st1" d="M191.4,289.5c0.9,2,3.2,3,5.3,2.1s3-3.2,2.1-5.3c-0.6-1.3-1.2-2.6-1.7-3.6c-0.1-0.1-0.2-0.4-0.3-0.5
		c-1.1-1.8-3.5-2.4-5.4-1.4c-1.9,1.1-2.6,3.5-1.5,5.4C190.4,287.4,191,288.5,191.4,289.5L191.4,289.5z"/>
	<path class="st1" d="M196.7,318.5c-2-1-4.4-0.2-5.4,1.8c0,0,0,0,0,0c-0.5,1-1.1,2-1.7,3c-1.2,1.8-0.7,4.3,1.1,5.5
		c1.8,1.2,4.3,0.7,5.5-1.1c0,0,0-0.1,0.1-0.1c0.8-1.2,1.5-2.5,2.2-3.8C199.4,321.9,198.6,319.5,196.7,318.5L196.7,318.5z"/>
	<path class="st1" d="M329.2,266.4c-1.1,0.8-2.2,1.8-3.3,2.7c-1.6,1.5-1.8,4-0.3,5.7s4,1.8,5.7,0.3l0,0c0.9-0.8,1.8-1.6,2.7-2.3
		c1.8-1.3,2.1-3.8,0.8-5.6S331,265,329.2,266.4C329.2,266.4,329.2,266.4,329.2,266.4L329.2,266.4z"/>
	<path class="st1" d="M348.9,258.2c-1.4,0.2-2.9,0.5-4.3,0.8c-2.1,0.5-3.5,2.7-2.9,4.8c0.4,1.8,2,3,3.9,3c0.3,0,0.6,0,1-0.1
		c1.1-0.3,2.3-0.5,3.4-0.6c2.2-0.2,3.8-2.2,3.6-4.4s-2.2-3.8-4.4-3.6C349.1,258.1,349,258.1,348.9,258.2L348.9,258.2z"/>
	<path class="st1" d="M315.7,291.6c0.5,0.2,1,0.3,1.6,0.3c1.6,0,3-1,3.7-2.4c0.5-1.1,1-2.2,1.5-3.2c1-1.9,0.3-4.3-1.5-5.4
		c-1.9-1.1-4.2-0.5-5.4,1.4c-0.1,0.1-0.2,0.4-0.3,0.5c-0.6,1-1.2,2.3-1.7,3.6C312.7,288.4,313.6,290.8,315.7,291.6
		C315.6,291.6,315.7,291.6,315.7,291.6L315.7,291.6z"/>
	<path class="st1" d="M321,320.3c-0.9-2-3.3-2.9-5.3-1.9c-2,0.9-2.9,3.3-1.9,5.3c0,0.1,0.1,0.1,0.1,0.2c0.6,1.3,1.4,2.6,2.2,3.8
		c1.2,1.8,3.7,2.3,5.5,1.1c1.8-1.2,2.3-3.6,1.2-5.5C322.1,322.4,321.5,321.4,321,320.3z"/>
	<path class="st1" d="M313.9,311c2.2-0.1,3.9-2,3.8-4.2c0,0,0,0,0,0c0-0.5,0-1.1,0-1.6c0-0.7,0-1.3,0-1.9c0.1-2.2-1.6-4.1-3.8-4.2
		c-2.2-0.1-4.1,1.6-4.2,3.8c0,0.8-0.1,1.6-0.1,2.3c0,0.6,0,1.3,0,2c0.1,2.1,1.9,3.8,4,3.8L313.9,311z"/>
</g>
</svg>
