<?xml version="1.0" encoding="utf-8"?>
<!-- Generator: Adobe Illustrator 26.2.1, SVG Export Plug-In . SVG Version: 6.00 Build 0)  -->
<svg version="1.1" id="Outline" xmlns="http://www.w3.org/2000/svg" xmlns:xlink="http://www.w3.org/1999/xlink" x="0px" y="0px"
	 viewBox="0 0 512 512" style="enable-background:new 0 0 512 512;" xml:space="preserve">
<style type="text/css">
	.st0{fill:#707070;}
	.st1{fill:#AA8453;}
</style>
<g>
	<path class="st0" d="M392.9,306.1v40c0,4,3.3,7.2,7.2,7.2c4,0,7.2-3.3,7.2-7.2l0,0v-40c0-37.4-30.3-67.7-67.7-67.7
		s-67.7,30.3-67.7,67.7v99.2c0,29.5-23.9,53.3-53.3,53.3s-53.1-23.9-53.1-53.3v-84.8h1.1c10.7,0,19.5-8.7,19.5-19.5v-14.4
		c12.2-1.2,21.6-11.3,21.6-23.5v-11.3c15-3.8,25.6-17.3,25.6-32.8V72.8c0-18.6-15.2-33.8-33.8-33.8h-82c-18.6,0-33.8,15.2-33.8,33.8
		v146.4c0,15.6,10.5,29,25.6,32.8v11.3c0,12.2,9.4,22.3,21.6,23.5v14.4c0,10.7,8.7,19.5,19.5,19.5h1.1v84.8
		c0,37.4,30.3,67.7,67.7,67.7s67.6-30.3,67.6-67.7v-99.2c0-29.5,23.9-53.3,53.3-53.3C369.3,252.8,392.9,276.8,392.9,306.1z
		 M117.4,53.2h82c10.7,0,19.5,8.7,19.5,19.5v67.6c-16-0.6-50.5-0.3-65.6,15c-9.4,9.5-36.6,10.5-55.3,8.8v-11H124
		c4,0,7.2-3.3,7.2-7.2c0-4-3.3-7.2-7.2-7.2H97.9v-35.6H124c4,0,7.2-3.3,7.2-7.2c0-4-3.3-7.2-7.2-7.2H97.9V72.8
		C97.9,62,106.6,53.2,117.4,53.2z M97.9,219.1V203H124c4,0,7.2-3.3,7.2-7.2c0-4-3.3-7.2-7.2-7.2H97.9v-10.1
		c4.2,0.4,9.6,0.6,15.6,0.6c17,0,38.8-2.5,50-13.9c10.2-10.4,39.1-11.5,55.3-10.7v64.5c0,10.7-8.7,19.5-19.5,19.5h-82
		C106.6,238.5,97.9,229.9,97.9,219.1z M123.5,263.1v-10.2h69.7v10.2c0,5.1-4.2,9.3-9.3,9.3h-51.2
		C127.6,272.3,123.6,268.3,123.5,263.1z M144.9,301.1v-14.3h26.6v14.3c0,2.8-2.3,5.1-5.1,5.1h-16.3
		C147.3,306.1,144.9,303.9,144.9,301.1z"/>
	<path class="st1" d="M406.3,366.2c-2.1-3.4-6.4-4.4-9.9-2.3c-0.9,0.5-1.8,1.4-2.3,2.3c-3.7,6-22.1,36.4-22.1,49.3
		c0,15.6,12.6,28.2,28.2,28.2c15.6,0,28.2-12.6,28.2-28.2C428.4,402.6,410,372.2,406.3,366.2z M400.2,429.5
		c-7.7,0-13.9-6.2-13.9-13.9c0-4.6,6.4-18.3,13.9-31.5c7.4,13.3,13.9,26.8,13.9,31.5C414,423.2,407.9,429.5,400.2,429.5z"/>
</g>
</svg>
