<?xml version="1.0" encoding="utf-8"?>
<!-- Generator: Adobe Illustrator 26.1.0, SVG Export Plug-In . SVG Version: 6.00 Build 0)  -->
<svg version="1.1" id="레이어_1" xmlns="http://www.w3.org/2000/svg" xmlns:xlink="http://www.w3.org/1999/xlink" x="0px"
	 y="0px" viewBox="0 0 785 230.3" style="enable-background:new 0 0 785 230.3;" xml:space="preserve">
<style type="text/css">
	.st0{fill:url(#SVGID_1_);stroke:#FFFFFF;stroke-width:0.3;stroke-miterlimit:10;}
	
		.st1{fill:url(#SVGID_00000182528492630177959780000001574588412591927176_);stroke:#FFFFFF;stroke-width:0.3;stroke-miterlimit:10;}
	
		.st2{fill:url(#SVGID_00000005970455720718691310000016785562896619525022_);stroke:#FFFFFF;stroke-width:0.3;stroke-miterlimit:10;}
	
		.st3{fill:url(#SVGID_00000148627399189078492000000003447581905680942270_);stroke:#FFFFFF;stroke-width:0.3;stroke-miterlimit:10;}
	
		.st4{fill:url(#SVGID_00000026137040987648244850000009512476467211859860_);stroke:#FFFFFF;stroke-width:0.3;stroke-miterlimit:10;}
	
		.st5{fill:url(#SVGID_00000051351528654273128140000006358147142142142619_);stroke:#FFFFFF;stroke-width:0.3;stroke-miterlimit:10;}
	
		.st6{fill:url(#SVGID_00000031905725932856521350000009764494631685926532_);stroke:#FFFFFF;stroke-width:0.3;stroke-miterlimit:10;}
	
		.st7{fill:url(#SVGID_00000088826652283969092070000004363645268970137016_);stroke:#FFFFFF;stroke-width:0.3;stroke-miterlimit:10;}
	
		.st8{fill:url(#SVGID_00000070108739928171961860000017340494176604588930_);stroke:#FFFFFF;stroke-width:0.3;stroke-miterlimit:10;}
	
		.st9{fill:url(#SVGID_00000149339418580143467760000008623666846362089858_);stroke:#FFFFFF;stroke-width:0.3;stroke-miterlimit:10;}
	
		.st10{fill:url(#SVGID_00000038389319351905607850000005811509351737680542_);stroke:#FFFFFF;stroke-width:0.3;stroke-miterlimit:10;}
	
		.st11{fill:url(#SVGID_00000103956458697030549340000018074020725569536186_);stroke:#FFFFFF;stroke-width:0.3;stroke-miterlimit:10;}
	
		.st12{fill:url(#SVGID_00000163032984531287855280000002645287537116336831_);stroke:#FFFFFF;stroke-width:0.3;stroke-miterlimit:10;}
	
		.st13{fill:url(#SVGID_00000095332133135346963440000011122893667117211298_);stroke:#FFFFFF;stroke-width:0.3;stroke-miterlimit:10;}
	
		.st14{fill:url(#SVGID_00000129916547153063961530000004364521201493679511_);stroke:#FFFFFF;stroke-width:0.3;stroke-miterlimit:10;}
	
		.st15{fill:url(#SVGID_00000009551274813085999500000011150471991212172216_);stroke:#FFFFFF;stroke-width:0.3;stroke-miterlimit:10;}
	
		.st16{fill:url(#SVGID_00000123443454708267986250000003164719037751234694_);stroke:#FFFFFF;stroke-width:0.3;stroke-miterlimit:10;}
	
		.st17{fill:url(#SVGID_00000168107219177488380280000014701956104175913879_);stroke:#FFFFFF;stroke-width:0.3;stroke-miterlimit:10;}
	
		.st18{fill:url(#SVGID_00000160157961809638862170000004935314820927937721_);stroke:#FFFFFF;stroke-width:0.3;stroke-miterlimit:10;}
	
		.st19{fill:url(#SVGID_00000134953801839952499150000010489348790271199361_);stroke:#FFFFFF;stroke-width:0.3;stroke-miterlimit:10;}
	
		.st20{fill:url(#SVGID_00000177442673431157733190000009328966212539677628_);stroke:#FFFFFF;stroke-width:0.3;stroke-miterlimit:10;}
</style>
<g>
	<g>
		<g>
			
				<linearGradient id="SVGID_1_" gradientUnits="userSpaceOnUse" x1="41.9881" y1="290.1353" x2="703.4944" y2="-28.6984" gradientTransform="matrix(1 0 0 -1 0 232)">
				<stop  offset="5.380000e-03" style="stop-color:#855624"/>
				<stop  offset="2.659000e-02" style="stop-color:#895B26"/>
				<stop  offset="0.1818" style="stop-color:#A68042"/>
				<stop  offset="0.3205" style="stop-color:#BC9D5E"/>
				<stop  offset="0.4363" style="stop-color:#C9B072"/>
				<stop  offset="0.5151" style="stop-color:#CEB77A"/>
				<stop  offset="0.5924" style="stop-color:#CBB274"/>
				<stop  offset="0.694" style="stop-color:#C0A363"/>
				<stop  offset="0.8092" style="stop-color:#AF8B4A"/>
				<stop  offset="0.9335" style="stop-color:#986C30"/>
				<stop  offset="1" style="stop-color:#8B5A25"/>
			</linearGradient>
			<path class="st0" d="M277.3,76.1h33.9V60.7h-31.5c-1.4,0-3.2-1.2-3.2-3.4c0-1.9,1.6-3.2,3.2-3.2h35.6c2.7,0,3.9,1.6,3.9,4.5v18.5
				c0,3.3-1.5,5.6-4.8,5.6H288v13.2c0,1.9,1.2,2.8,2.8,2.8h32c2.1,0,3.3,1.9,3.3,3.4c0,1.6-1.2,3.3-3.3,3.3h-36.4
				c-4.3,0-6.4-2.6-6.4-7V85.7c0-3.1-1.1-3.9-3.6-4.7c-1-0.3-2.4-0.7-2.4-2.6C274,76.6,275.5,76.1,277.3,76.1z M349.7,45.2v30.5
				h17.7c1.6,0,2.9,1.2,2.9,3.4c0,1.9-1.3,3.2-2.8,3.2h-17.8v42.2c0,7.1-2.3,10.3-5.9,10.3h-2.1V51.3c0-4.3-2.2-5.2-5.8-5.9
				c-3.2-0.5-4.3-1.3-4.3-2.6c0-1.6,1.5-2.5,3.5-2.5h10.3C348.1,40.3,349.7,42.6,349.7,45.2z"/>
			
				<linearGradient id="SVGID_00000011745483959563002110000003531603748108109748_" gradientUnits="userSpaceOnUse" x1="63.1304" y1="334.0005" x2="724.637" y2="15.1667" gradientTransform="matrix(1 0 0 -1 0 232)">
				<stop  offset="5.380000e-03" style="stop-color:#855624"/>
				<stop  offset="2.659000e-02" style="stop-color:#895B26"/>
				<stop  offset="0.1818" style="stop-color:#A68042"/>
				<stop  offset="0.3205" style="stop-color:#BC9D5E"/>
				<stop  offset="0.4363" style="stop-color:#C9B072"/>
				<stop  offset="0.5151" style="stop-color:#CEB77A"/>
				<stop  offset="0.5924" style="stop-color:#CBB274"/>
				<stop  offset="0.694" style="stop-color:#C0A363"/>
				<stop  offset="0.8092" style="stop-color:#AF8B4A"/>
				<stop  offset="0.9335" style="stop-color:#986C30"/>
				<stop  offset="1" style="stop-color:#8B5A25"/>
			</linearGradient>
			
				<path style="fill:url(#SVGID_00000011745483959563002110000003531603748108109748_);stroke:#FFFFFF;stroke-width:0.3;stroke-miterlimit:10;" d="
				M430.6,62.8h-31.7v29.1c0,1.7,1.2,2.7,2.6,2.7h33c2.2,0,3.3,1.7,3.3,3.3c0,1.7-1.1,3.4-3.2,3.4h-36.2c-3.1,0-7.5-1.2-7.5-7.2
				V68.2c0-4.9-0.1-6-3.7-7.1c-1.5-0.4-2.7-1-2.7-2.5c0-2,1.5-2.5,3.1-2.5h42.6c1.5,0,3.1,2,3.1,3.5
				C433.2,61.1,431.9,62.8,430.6,62.8z M462,45.2v79.3c0,7.1-2.4,10.3-6,10.3h-2V51.3c0-4.3-2.2-5.2-5.8-5.9
				c-3.2-0.5-4.3-1.3-4.3-2.6c0-1.6,1.6-2.5,3.5-2.5h10.2C460.3,40.3,462,42.6,462,45.2z"/>
			
				<linearGradient id="SVGID_00000024713096590662170950000001179461757696448141_" gradientUnits="userSpaceOnUse" x1="78.8742" y1="366.6654" x2="740.3809" y2="47.8315" gradientTransform="matrix(1 0 0 -1 0 232)">
				<stop  offset="5.380000e-03" style="stop-color:#855624"/>
				<stop  offset="2.659000e-02" style="stop-color:#895B26"/>
				<stop  offset="0.1818" style="stop-color:#A68042"/>
				<stop  offset="0.3205" style="stop-color:#BC9D5E"/>
				<stop  offset="0.4363" style="stop-color:#C9B072"/>
				<stop  offset="0.5151" style="stop-color:#CEB77A"/>
				<stop  offset="0.5924" style="stop-color:#CBB274"/>
				<stop  offset="0.694" style="stop-color:#C0A363"/>
				<stop  offset="0.8092" style="stop-color:#AF8B4A"/>
				<stop  offset="0.9335" style="stop-color:#986C30"/>
				<stop  offset="1" style="stop-color:#8B5A25"/>
			</linearGradient>
			
				<path style="fill:url(#SVGID_00000024713096590662170950000001179461757696448141_);stroke:#FFFFFF;stroke-width:0.3;stroke-miterlimit:10;" d="
				M490.9,70.3c0-12.2,10.7-21.4,23.3-21.4c12.6,0,23.2,9,23.2,21.4c0,12.8-10.6,21.4-23.2,21.4C501.6,91.7,490.9,82.4,490.9,70.3z
				 M499.3,70.3c0,8.6,6.8,15,14.9,15c8.1,0,14.8-6.2,14.8-15c0-8.3-6.7-15-14.8-15C506.1,55.3,499.3,61.6,499.3,70.3z M516,120.4
				c0-11.5,10.1-21.4,22.8-21.4c12.5,0,22.8,9.9,22.8,21.4c0,11.4-10.4,21.3-22.8,21.3C526.3,141.7,516,131.7,516,120.4z
				 M524.2,120.4c0,7.8,6.9,14.5,14.6,14.5c7.6,0,14.6-6.8,14.6-14.5c0-7.8-7-14.6-14.6-14.6C531.1,105.7,524.2,112.6,524.2,120.4z
				 M563.9,45.2v21.7h17.7c1.6,0,2.9,1.2,2.9,3.3c0,1.9-1.3,3.3-2.8,3.3h-17.8v14.3c0,6.9-2.3,10.2-5.9,10.2h-2.1V51.3
				c0-4.4-2.2-5.2-5.8-5.9c-3.2-0.5-4.3-1.3-4.3-2.6c0-1.7,1.5-2.5,3.5-2.5h10.3C562.2,40.3,563.9,42.6,563.9,45.2z"/>
			
				<linearGradient id="SVGID_00000072984891332747760390000003690565476502047660_" gradientUnits="userSpaceOnUse" x1="101.1087" y1="412.7975" x2="762.6151" y2="93.9638" gradientTransform="matrix(1 0 0 -1 0 232)">
				<stop  offset="5.380000e-03" style="stop-color:#855624"/>
				<stop  offset="2.659000e-02" style="stop-color:#895B26"/>
				<stop  offset="0.1818" style="stop-color:#A68042"/>
				<stop  offset="0.3205" style="stop-color:#BC9D5E"/>
				<stop  offset="0.4363" style="stop-color:#C9B072"/>
				<stop  offset="0.5151" style="stop-color:#CEB77A"/>
				<stop  offset="0.5924" style="stop-color:#CBB274"/>
				<stop  offset="0.694" style="stop-color:#C0A363"/>
				<stop  offset="0.8092" style="stop-color:#AF8B4A"/>
				<stop  offset="0.9335" style="stop-color:#986C30"/>
				<stop  offset="1" style="stop-color:#8B5A25"/>
			</linearGradient>
			
				<path style="fill:url(#SVGID_00000072984891332747760390000003690565476502047660_);stroke:#FFFFFF;stroke-width:0.3;stroke-miterlimit:10;" d="
				M662.5,109.8c-5.6,2.8-17.9,4.5-27.4,4.5h-33.9c-2.3,0-3.5-1.6-3.5-3.3c0-1.6,1.3-3.3,3.6-3.3h33.4c9.2,0,18,0,26.8-2.1
				C665.5,104.8,665.5,108.3,662.5,109.8z M604.7,72.4c0-12.7,10.5-21.9,22.6-21.9c12.1,0,22.7,9.2,22.7,21.9
				c0,13.1-10.6,21.7-22.7,21.7C615.1,94.1,604.7,85,604.7,72.4z M612.9,72.4c0,9.2,6.7,15.4,14.4,15.4c7.6,0,14.5-6.2,14.5-15.4
				c0-9.1-6.9-15.3-14.5-15.3C619.5,57.1,612.9,63.2,612.9,72.4z M676.2,45.2v79.3c0,7.1-2.5,10.3-6,10.3h-2.1V51.3
				c0-4.3-2.2-5.2-5.9-5.9c-3.1-0.5-4.3-1.3-4.3-2.6c0-1.6,1.7-2.5,3.6-2.5h10.3C674.3,40.3,676.2,42.6,676.2,45.2z"/>
			
				<linearGradient id="SVGID_00000095312830702450313250000003630964577005436335_" gradientUnits="userSpaceOnUse" x1="118.6907" y1="449.2757" x2="780.1972" y2="130.4419" gradientTransform="matrix(1 0 0 -1 0 232)">
				<stop  offset="5.380000e-03" style="stop-color:#855624"/>
				<stop  offset="2.659000e-02" style="stop-color:#895B26"/>
				<stop  offset="0.1818" style="stop-color:#A68042"/>
				<stop  offset="0.3205" style="stop-color:#BC9D5E"/>
				<stop  offset="0.4363" style="stop-color:#C9B072"/>
				<stop  offset="0.5151" style="stop-color:#CEB77A"/>
				<stop  offset="0.5924" style="stop-color:#CBB274"/>
				<stop  offset="0.694" style="stop-color:#C0A363"/>
				<stop  offset="0.8092" style="stop-color:#AF8B4A"/>
				<stop  offset="0.9335" style="stop-color:#986C30"/>
				<stop  offset="1" style="stop-color:#8B5A25"/>
			</linearGradient>
			
				<path style="fill:url(#SVGID_00000095312830702450313250000003630964577005436335_);stroke:#FFFFFF;stroke-width:0.3;stroke-miterlimit:10;" d="
				M766.3,89.2c-5.7,2.7-19.1,4.3-28.6,4.3h-2.5v3.8c0,7.2-2.7,10.6-5.7,10.6h-2.4V93.5H705c-2.3,0-3.5-1.5-3.5-3.2
				c0-1.5,1.3-3.4,3.6-3.4h32.2c9.2,0,19.1,0,27.9-1.9C769,84.3,769,87.7,766.3,89.2z M709.4,62.9c0-10.6,9-19.3,21.9-19.3
				c12.3,0,21.7,8.5,21.7,19.3c0,11-9,19.2-21.7,19.2C718.2,82.1,709.4,73.3,709.4,62.9z M717.5,62.9c0,6.8,5.4,12.9,13.8,12.8
				c8.3,0.1,13.7-5.8,13.7-12.8c0-6.9-5.6-12.8-13.7-12.9C722.8,50.1,717.5,55.7,717.5,62.9z M730.6,131.1v-8.4
				c0-4.2-1.5-4.8-5.1-5.7c-3.2-0.7-3.9-1.3-3.9-3.1c0-1.6,2-2.3,3.6-2.3h9.1c2.5,0,4.4,2.1,4.4,4.9v14.6c0,1.9,0.5,2.6,2.3,2.6
				h36.9c2.2,0,3.6,1.5,3.6,3.3c0,1.5-1.3,3.4-3.5,3.4h-36.3C734.2,140.5,730.5,138.6,730.6,131.1z M780.5,45.2v59.8
				c0,7.1-2.5,10.3-6,10.3h-2.1v-9.7h-21.3c-1.3,0-2.6-1.4-2.6-3.4c0-2,1.3-3.3,2.7-3.3h21.2V51.3c0-4.4-2.2-5.2-5.9-5.9
				c-3.1-0.7-4.3-1.4-4.3-2.7c0-1.6,1.7-2.4,3.6-2.4h10.3C778.7,40.3,780.5,42.5,780.5,45.2z"/>
		</g>
		<g>
			
				<linearGradient id="SVGID_00000036240542849572898380000001822934004165520785_" gradientUnits="userSpaceOnUse" x1="5.1146" y1="213.63" x2="666.6223" y2="-105.2043" gradientTransform="matrix(1 0 0 -1 0 232)">
				<stop  offset="5.380000e-03" style="stop-color:#855624"/>
				<stop  offset="2.659000e-02" style="stop-color:#895B26"/>
				<stop  offset="0.1818" style="stop-color:#A68042"/>
				<stop  offset="0.3205" style="stop-color:#BC9D5E"/>
				<stop  offset="0.4363" style="stop-color:#C9B072"/>
				<stop  offset="0.5151" style="stop-color:#CEB77A"/>
				<stop  offset="0.5924" style="stop-color:#CBB274"/>
				<stop  offset="0.694" style="stop-color:#C0A363"/>
				<stop  offset="0.8092" style="stop-color:#AF8B4A"/>
				<stop  offset="0.9335" style="stop-color:#986C30"/>
				<stop  offset="1" style="stop-color:#8B5A25"/>
			</linearGradient>
			
				<path style="fill:url(#SVGID_00000036240542849572898380000001822934004165520785_);stroke:#FFFFFF;stroke-width:0.3;stroke-miterlimit:10;" d="
				M334.5,191.6h-3.7V165h9.6c1.4,0,2.6,0.2,3.6,0.6c1.1,0.4,1.9,0.9,2.7,1.5c0.7,0.6,1.3,1.4,1.6,2.3c0.4,0.9,0.6,1.9,0.6,2.9v1
				c0,1.5-0.4,2.8-1.2,4c-0.8,1.2-1.9,2-3.3,2.6l5.3,11.8h-4l-4.8-11.1h-6.5V191.6z M334.5,177.4h5.1c2.1,0,3.5-0.4,4.4-1.2
				c0.9-0.8,1.3-1.8,1.3-3.1v-0.7c0-1.3-0.4-2.3-1.3-3.1c-0.9-0.8-2.2-1.1-4.1-1.1h-5.5V177.4z"/>
			
				<linearGradient id="SVGID_00000178205274125530033000000001506588902395236233_" gradientUnits="userSpaceOnUse" x1="11.0294" y1="225.9045" x2="672.5365" y2="-92.9296" gradientTransform="matrix(1 0 0 -1 0 232)">
				<stop  offset="5.380000e-03" style="stop-color:#855624"/>
				<stop  offset="2.659000e-02" style="stop-color:#895B26"/>
				<stop  offset="0.1818" style="stop-color:#A68042"/>
				<stop  offset="0.3205" style="stop-color:#BC9D5E"/>
				<stop  offset="0.4363" style="stop-color:#C9B072"/>
				<stop  offset="0.5151" style="stop-color:#CEB77A"/>
				<stop  offset="0.5924" style="stop-color:#CBB274"/>
				<stop  offset="0.694" style="stop-color:#C0A363"/>
				<stop  offset="0.8092" style="stop-color:#AF8B4A"/>
				<stop  offset="0.9335" style="stop-color:#986C30"/>
				<stop  offset="1" style="stop-color:#8B5A25"/>
			</linearGradient>
			
				<path style="fill:url(#SVGID_00000178205274125530033000000001506588902395236233_);stroke:#FFFFFF;stroke-width:0.3;stroke-miterlimit:10;" d="
				M385,191.6h-3.8l-2.8-7.8h-10.2l-2.8,7.8h-3.7l9.9-26.6h3.5L385,191.6z M369.3,180.7h8l-2.2-6.2c-0.2-0.5-0.4-1-0.5-1.4
				c-0.1-0.4-0.3-0.8-0.4-1.2c-0.1-0.4-0.3-0.8-0.4-1.2c-0.1-0.4-0.3-0.9-0.5-1.6c-0.2,0.6-0.4,1.1-0.5,1.6
				c-0.1,0.4-0.2,0.8-0.4,1.2c-0.1,0.4-0.3,0.8-0.4,1.2c-0.1,0.4-0.3,0.9-0.5,1.4L369.3,180.7z"/>
			
				<linearGradient id="SVGID_00000078003650129491208430000016340393690993122192_" gradientUnits="userSpaceOnUse" x1="17.7814" y1="239.9165" x2="679.2911" y2="-78.9189" gradientTransform="matrix(1 0 0 -1 0 232)">
				<stop  offset="5.380000e-03" style="stop-color:#855624"/>
				<stop  offset="2.659000e-02" style="stop-color:#895B26"/>
				<stop  offset="0.1818" style="stop-color:#A68042"/>
				<stop  offset="0.3205" style="stop-color:#BC9D5E"/>
				<stop  offset="0.4363" style="stop-color:#C9B072"/>
				<stop  offset="0.5151" style="stop-color:#CEB77A"/>
				<stop  offset="0.5924" style="stop-color:#CBB274"/>
				<stop  offset="0.694" style="stop-color:#C0A363"/>
				<stop  offset="0.8092" style="stop-color:#AF8B4A"/>
				<stop  offset="0.9335" style="stop-color:#986C30"/>
				<stop  offset="1" style="stop-color:#8B5A25"/>
			</linearGradient>
			
				<path style="fill:url(#SVGID_00000078003650129491208430000016340393690993122192_);stroke:#FFFFFF;stroke-width:0.3;stroke-miterlimit:10;" d="
				M406.9,165c3.7,0,6.5,1,8.4,2.9c1.9,2,2.8,4.8,2.8,8.5v3.8c0,3.7-0.9,6.5-2.8,8.5c-1.8,2-4.7,2.9-8.4,2.9H398V165H406.9z
				 M401.7,188.4h4.8c1.2,0,2.3-0.2,3.2-0.5c1-0.3,1.8-0.8,2.5-1.5c0.7-0.7,1.2-1.5,1.6-2.6c0.4-1.1,0.6-2.3,0.6-3.8v-3.4
				c0-1.5-0.2-2.8-0.6-3.8c-0.4-1.1-0.9-1.9-1.6-2.6c-0.7-0.7-1.5-1.2-2.5-1.5c-1-0.3-2-0.5-3.2-0.5h-4.8V188.4z"/>
			
				<linearGradient id="SVGID_00000023982097679046484340000005885190092947462580_" gradientUnits="userSpaceOnUse" x1="23.5034" y1="251.7853" x2="685.0112" y2="-67.0491" gradientTransform="matrix(1 0 0 -1 0 232)">
				<stop  offset="5.380000e-03" style="stop-color:#855624"/>
				<stop  offset="2.659000e-02" style="stop-color:#895B26"/>
				<stop  offset="0.1818" style="stop-color:#A68042"/>
				<stop  offset="0.3205" style="stop-color:#BC9D5E"/>
				<stop  offset="0.4363" style="stop-color:#C9B072"/>
				<stop  offset="0.5151" style="stop-color:#CEB77A"/>
				<stop  offset="0.5924" style="stop-color:#CBB274"/>
				<stop  offset="0.694" style="stop-color:#C0A363"/>
				<stop  offset="0.8092" style="stop-color:#AF8B4A"/>
				<stop  offset="0.9335" style="stop-color:#986C30"/>
				<stop  offset="1" style="stop-color:#8B5A25"/>
			</linearGradient>
			
				<path style="fill:url(#SVGID_00000023982097679046484340000005885190092947462580_);stroke:#FFFFFF;stroke-width:0.3;stroke-miterlimit:10;" d="
				M436.4,165v26.6h-3.7V165H436.4z"/>
			
				<linearGradient id="SVGID_00000069378076701645936020000004726503361766020229_" gradientUnits="userSpaceOnUse" x1="27.5672" y1="260.2198" x2="689.0757" y2="-58.6149" gradientTransform="matrix(1 0 0 -1 0 232)">
				<stop  offset="5.380000e-03" style="stop-color:#855624"/>
				<stop  offset="2.659000e-02" style="stop-color:#895B26"/>
				<stop  offset="0.1818" style="stop-color:#A68042"/>
				<stop  offset="0.3205" style="stop-color:#BC9D5E"/>
				<stop  offset="0.4363" style="stop-color:#C9B072"/>
				<stop  offset="0.5151" style="stop-color:#CEB77A"/>
				<stop  offset="0.5924" style="stop-color:#CBB274"/>
				<stop  offset="0.694" style="stop-color:#C0A363"/>
				<stop  offset="0.8092" style="stop-color:#AF8B4A"/>
				<stop  offset="0.9335" style="stop-color:#986C30"/>
				<stop  offset="1" style="stop-color:#8B5A25"/>
			</linearGradient>
			
				<path style="fill:url(#SVGID_00000069378076701645936020000004726503361766020229_);stroke:#FFFFFF;stroke-width:0.3;stroke-miterlimit:10;" d="
				M472.8,191.6h-3.8l-2.8-7.8h-10.2l-2.8,7.8h-3.7l9.9-26.6h3.5L472.8,191.6z M457,180.7h8l-2.2-6.2c-0.2-0.5-0.4-1-0.5-1.4
				c-0.1-0.4-0.3-0.8-0.4-1.2c-0.1-0.4-0.3-0.8-0.4-1.2c-0.1-0.4-0.3-0.9-0.5-1.6c-0.2,0.6-0.4,1.1-0.5,1.6
				c-0.1,0.4-0.2,0.8-0.4,1.2c-0.1,0.4-0.3,0.8-0.4,1.2c-0.1,0.4-0.3,0.9-0.5,1.4L457,180.7z"/>
			
				<linearGradient id="SVGID_00000032642278798154579130000008185926535586031489_" gradientUnits="userSpaceOnUse" x1="35.0338" y1="275.7071" x2="696.5416" y2="-43.1274" gradientTransform="matrix(1 0 0 -1 0 232)">
				<stop  offset="5.380000e-03" style="stop-color:#855624"/>
				<stop  offset="2.659000e-02" style="stop-color:#895B26"/>
				<stop  offset="0.1818" style="stop-color:#A68042"/>
				<stop  offset="0.3205" style="stop-color:#BC9D5E"/>
				<stop  offset="0.4363" style="stop-color:#C9B072"/>
				<stop  offset="0.5151" style="stop-color:#CEB77A"/>
				<stop  offset="0.5924" style="stop-color:#CBB274"/>
				<stop  offset="0.694" style="stop-color:#C0A363"/>
				<stop  offset="0.8092" style="stop-color:#AF8B4A"/>
				<stop  offset="0.9335" style="stop-color:#986C30"/>
				<stop  offset="1" style="stop-color:#8B5A25"/>
			</linearGradient>
			
				<path style="fill:url(#SVGID_00000032642278798154579130000008185926535586031489_);stroke:#FFFFFF;stroke-width:0.3;stroke-miterlimit:10;" d="
				M490,165l10.3,18c0.3,0.4,0.6,1,0.9,1.7c0.3,0.7,0.7,1.4,1,2.2V165h3.4v26.6h-4.2l-10.3-17.9c-0.3-0.5-0.6-1.1-0.9-1.7
				c-0.3-0.7-0.7-1.4-1-2.2v21.8h-3.4V165H490z"/>
			
				<linearGradient id="SVGID_00000029757966671049526230000002765040586631370640_" gradientUnits="userSpaceOnUse" x1="41.9707" y1="290.1048" x2="703.4781" y2="-28.7294" gradientTransform="matrix(1 0 0 -1 0 232)">
				<stop  offset="5.380000e-03" style="stop-color:#855624"/>
				<stop  offset="2.659000e-02" style="stop-color:#895B26"/>
				<stop  offset="0.1818" style="stop-color:#A68042"/>
				<stop  offset="0.3205" style="stop-color:#BC9D5E"/>
				<stop  offset="0.4363" style="stop-color:#C9B072"/>
				<stop  offset="0.5151" style="stop-color:#CEB77A"/>
				<stop  offset="0.5924" style="stop-color:#CBB274"/>
				<stop  offset="0.694" style="stop-color:#C0A363"/>
				<stop  offset="0.8092" style="stop-color:#AF8B4A"/>
				<stop  offset="0.9335" style="stop-color:#986C30"/>
				<stop  offset="1" style="stop-color:#8B5A25"/>
			</linearGradient>
			
				<path style="fill:url(#SVGID_00000029757966671049526230000002765040586631370640_);stroke:#FFFFFF;stroke-width:0.3;stroke-miterlimit:10;" d="
				M526.6,191.6v-23.5h-8.1V165h19.9v3.1h-8.1v23.5H526.6z"/>
			
				<linearGradient id="SVGID_00000034074479574852704320000001672068537355582376_" gradientUnits="userSpaceOnUse" x1="50.9176" y1="308.6593" x2="712.4227" y2="-10.1739" gradientTransform="matrix(1 0 0 -1 0 232)">
				<stop  offset="5.380000e-03" style="stop-color:#855624"/>
				<stop  offset="2.659000e-02" style="stop-color:#895B26"/>
				<stop  offset="0.1818" style="stop-color:#A68042"/>
				<stop  offset="0.3205" style="stop-color:#BC9D5E"/>
				<stop  offset="0.4363" style="stop-color:#C9B072"/>
				<stop  offset="0.5151" style="stop-color:#CEB77A"/>
				<stop  offset="0.5924" style="stop-color:#CBB274"/>
				<stop  offset="0.694" style="stop-color:#C0A363"/>
				<stop  offset="0.8092" style="stop-color:#AF8B4A"/>
				<stop  offset="0.9335" style="stop-color:#986C30"/>
				<stop  offset="1" style="stop-color:#8B5A25"/>
			</linearGradient>
			
				<path style="fill:url(#SVGID_00000034074479574852704320000001672068537355582376_);stroke:#FFFFFF;stroke-width:0.3;stroke-miterlimit:10;" d="
				M589,188.7c-1.3,1.3-2.8,2.2-4.4,2.7c-1.6,0.5-3.3,0.7-5.1,0.7c-1.6,0-3.1-0.2-4.4-0.7c-1.3-0.5-2.4-1.2-3.4-2.2
				c-0.9-1-1.7-2.2-2.2-3.7c-0.5-1.5-0.8-3.2-0.8-5.1v-4c0-1.9,0.3-3.6,0.8-5.1c0.5-1.5,1.3-2.7,2.2-3.7c0.9-1,2.1-1.7,3.4-2.2
				c1.3-0.5,2.7-0.7,4.3-0.7c1.8,0,3.5,0.2,4.8,0.7c1.4,0.5,2.7,1.2,4,2.2l-1.9,3c-1.2-1-2.4-1.6-3.5-2c-1.1-0.3-2.2-0.5-3.5-0.5
				c-1,0-1.9,0.2-2.8,0.5c-0.8,0.3-1.6,0.9-2.2,1.6c-0.6,0.7-1.1,1.6-1.5,2.7c-0.3,1.1-0.5,2.4-0.5,4v3.1c0,1.5,0.2,2.8,0.5,4
				c0.3,1.1,0.8,2,1.5,2.7c0.6,0.7,1.4,1.2,2.2,1.6c0.9,0.3,1.8,0.5,2.8,0.5c1.3,0,2.6-0.2,3.8-0.6c1.3-0.4,2.5-1.1,3.6-2.2
				L589,188.7z"/>
			
				<linearGradient id="SVGID_00000178178470897553181730000004922863782241781685_" gradientUnits="userSpaceOnUse" x1="55.5643" y1="318.3051" x2="717.0707" y2="-0.5286" gradientTransform="matrix(1 0 0 -1 0 232)">
				<stop  offset="5.380000e-03" style="stop-color:#855624"/>
				<stop  offset="2.659000e-02" style="stop-color:#895B26"/>
				<stop  offset="0.1818" style="stop-color:#A68042"/>
				<stop  offset="0.3205" style="stop-color:#BC9D5E"/>
				<stop  offset="0.4363" style="stop-color:#C9B072"/>
				<stop  offset="0.5151" style="stop-color:#CEB77A"/>
				<stop  offset="0.5924" style="stop-color:#CBB274"/>
				<stop  offset="0.694" style="stop-color:#C0A363"/>
				<stop  offset="0.8092" style="stop-color:#AF8B4A"/>
				<stop  offset="0.9335" style="stop-color:#986C30"/>
				<stop  offset="1" style="stop-color:#8B5A25"/>
			</linearGradient>
			
				<path style="fill:url(#SVGID_00000178178470897553181730000004922863782241781685_);stroke:#FFFFFF;stroke-width:0.3;stroke-miterlimit:10;" d="
				M606.4,165v23.5h12.7v3.1h-16.4V165H606.4z"/>
			
				<linearGradient id="SVGID_00000174585115039570785160000012714404492288165052_" gradientUnits="userSpaceOnUse" x1="61.1084" y1="329.8113" x2="722.6163" y2="10.9769" gradientTransform="matrix(1 0 0 -1 0 232)">
				<stop  offset="5.380000e-03" style="stop-color:#855624"/>
				<stop  offset="2.659000e-02" style="stop-color:#895B26"/>
				<stop  offset="0.1818" style="stop-color:#A68042"/>
				<stop  offset="0.3205" style="stop-color:#BC9D5E"/>
				<stop  offset="0.4363" style="stop-color:#C9B072"/>
				<stop  offset="0.5151" style="stop-color:#CEB77A"/>
				<stop  offset="0.5924" style="stop-color:#CBB274"/>
				<stop  offset="0.694" style="stop-color:#C0A363"/>
				<stop  offset="0.8092" style="stop-color:#AF8B4A"/>
				<stop  offset="0.9335" style="stop-color:#986C30"/>
				<stop  offset="1" style="stop-color:#8B5A25"/>
			</linearGradient>
			
				<path style="fill:url(#SVGID_00000174585115039570785160000012714404492288165052_);stroke:#FFFFFF;stroke-width:0.3;stroke-miterlimit:10;" d="
				M635.8,165v26.6h-3.7V165H635.8z"/>
			
				<linearGradient id="SVGID_00000103958541447438604660000014232535870100818598_" gradientUnits="userSpaceOnUse" x1="66.2105" y1="340.3907" x2="727.7182" y2="21.5563" gradientTransform="matrix(1 0 0 -1 0 232)">
				<stop  offset="5.380000e-03" style="stop-color:#855624"/>
				<stop  offset="2.659000e-02" style="stop-color:#895B26"/>
				<stop  offset="0.1818" style="stop-color:#A68042"/>
				<stop  offset="0.3205" style="stop-color:#BC9D5E"/>
				<stop  offset="0.4363" style="stop-color:#C9B072"/>
				<stop  offset="0.5151" style="stop-color:#CEB77A"/>
				<stop  offset="0.5924" style="stop-color:#CBB274"/>
				<stop  offset="0.694" style="stop-color:#C0A363"/>
				<stop  offset="0.8092" style="stop-color:#AF8B4A"/>
				<stop  offset="0.9335" style="stop-color:#986C30"/>
				<stop  offset="1" style="stop-color:#8B5A25"/>
			</linearGradient>
			
				<path style="fill:url(#SVGID_00000103958541447438604660000014232535870100818598_);stroke:#FFFFFF;stroke-width:0.3;stroke-miterlimit:10;" d="
				M655.4,165l10.3,18c0.3,0.4,0.6,1,0.9,1.7c0.3,0.7,0.7,1.4,1,2.2V165h3.4v26.6h-4.2l-10.3-17.9c-0.3-0.5-0.6-1.1-0.9-1.7
				c-0.3-0.7-0.7-1.4-1-2.2v21.8h-3.4V165H655.4z"/>
			
				<linearGradient id="SVGID_00000091711156709152959870000003573234225309794217_" gradientUnits="userSpaceOnUse" x1="71.3082" y1="350.9725" x2="732.816" y2="32.1381" gradientTransform="matrix(1 0 0 -1 0 232)">
				<stop  offset="5.380000e-03" style="stop-color:#855624"/>
				<stop  offset="2.659000e-02" style="stop-color:#895B26"/>
				<stop  offset="0.1818" style="stop-color:#A68042"/>
				<stop  offset="0.3205" style="stop-color:#BC9D5E"/>
				<stop  offset="0.4363" style="stop-color:#C9B072"/>
				<stop  offset="0.5151" style="stop-color:#CEB77A"/>
				<stop  offset="0.5924" style="stop-color:#CBB274"/>
				<stop  offset="0.694" style="stop-color:#C0A363"/>
				<stop  offset="0.8092" style="stop-color:#AF8B4A"/>
				<stop  offset="0.9335" style="stop-color:#986C30"/>
				<stop  offset="1" style="stop-color:#8B5A25"/>
			</linearGradient>
			
				<path style="fill:url(#SVGID_00000091711156709152959870000003573234225309794217_);stroke:#FFFFFF;stroke-width:0.3;stroke-miterlimit:10;" d="
				M690,165v26.6h-3.7V165H690z"/>
			
				<linearGradient id="SVGID_00000170966752466676698490000004323611642295683724_" gradientUnits="userSpaceOnUse" x1="76.4625" y1="361.6646" x2="737.9693" y2="42.8306" gradientTransform="matrix(1 0 0 -1 0 232)">
				<stop  offset="5.380000e-03" style="stop-color:#855624"/>
				<stop  offset="2.659000e-02" style="stop-color:#895B26"/>
				<stop  offset="0.1818" style="stop-color:#A68042"/>
				<stop  offset="0.3205" style="stop-color:#BC9D5E"/>
				<stop  offset="0.4363" style="stop-color:#C9B072"/>
				<stop  offset="0.5151" style="stop-color:#CEB77A"/>
				<stop  offset="0.5924" style="stop-color:#CBB274"/>
				<stop  offset="0.694" style="stop-color:#C0A363"/>
				<stop  offset="0.8092" style="stop-color:#AF8B4A"/>
				<stop  offset="0.9335" style="stop-color:#986C30"/>
				<stop  offset="1" style="stop-color:#8B5A25"/>
			</linearGradient>
			
				<path style="fill:url(#SVGID_00000170966752466676698490000004323611642295683724_);stroke:#FFFFFF;stroke-width:0.3;stroke-miterlimit:10;" d="
				M724.5,188.7c-1.3,1.3-2.8,2.2-4.4,2.7c-1.6,0.5-3.3,0.7-5.1,0.7c-1.6,0-3.1-0.2-4.4-0.7c-1.3-0.5-2.4-1.2-3.4-2.2
				c-0.9-1-1.7-2.2-2.2-3.7c-0.5-1.5-0.8-3.2-0.8-5.1v-4c0-1.9,0.3-3.6,0.8-5.1c0.5-1.5,1.3-2.7,2.2-3.7c0.9-1,2.1-1.7,3.4-2.2
				c1.3-0.5,2.7-0.7,4.3-0.7c1.8,0,3.5,0.2,4.8,0.7c1.4,0.5,2.7,1.2,4,2.2l-1.9,3c-1.2-1-2.4-1.6-3.5-2c-1.1-0.3-2.2-0.5-3.5-0.5
				c-1,0-1.9,0.2-2.8,0.5c-0.8,0.3-1.6,0.9-2.2,1.6c-0.6,0.7-1.1,1.6-1.5,2.7c-0.3,1.1-0.5,2.4-0.5,4v3.1c0,1.5,0.2,2.8,0.5,4
				c0.3,1.1,0.8,2,1.5,2.7c0.6,0.7,1.4,1.2,2.2,1.6c0.9,0.3,1.8,0.5,2.8,0.5c1.3,0,2.6-0.2,3.8-0.6c1.3-0.4,2.5-1.1,3.6-2.2
				L724.5,188.7z"/>
		</g>
	</g>
	<g>
		
			<linearGradient id="SVGID_00000135667799070314172240000012512068167318555563_" gradientUnits="userSpaceOnUse" x1="-45.7206" y1="175.4532" x2="266.0403" y2="25.1903" gradientTransform="matrix(1 0 0 -1 0 232)">
			<stop  offset="5.380000e-03" style="stop-color:#855624"/>
			<stop  offset="2.659000e-02" style="stop-color:#895B26"/>
			<stop  offset="0.1818" style="stop-color:#A68042"/>
			<stop  offset="0.3205" style="stop-color:#BC9D5E"/>
			<stop  offset="0.4363" style="stop-color:#C9B072"/>
			<stop  offset="0.5151" style="stop-color:#CEB77A"/>
			<stop  offset="0.5924" style="stop-color:#CBB274"/>
			<stop  offset="0.694" style="stop-color:#C0A363"/>
			<stop  offset="0.8092" style="stop-color:#AF8B4A"/>
			<stop  offset="0.9335" style="stop-color:#986C30"/>
			<stop  offset="1" style="stop-color:#8B5A25"/>
		</linearGradient>
		
			<path style="fill:url(#SVGID_00000135667799070314172240000012512068167318555563_);stroke:#FFFFFF;stroke-width:0.3;stroke-miterlimit:10;" d="
			M176.2,157.4c0,0.1-0.1,0.1-0.1,0.2c-2.8,4.4-5.9,8.2-9.1,11.3c-0.1,0.1-0.3,0.3-0.5,0.5c-1.8,1.7-3.6,3.1-5.4,4.2
			c-8.9,6.2-20.7,7.4-27.2,2.6c-9.7-7.1-12.1-20.3-3.5-36.6c7.2-13.7,5.2-21.4,2.5-24.8c0,0,0,0,0,0c-0.8-1.1-1.8-1.6-3.1-2.3
			c-1.3-0.7-0.8-2-0.8-2s0.2-0.7,0.9-1c0,0,0.1,0,0.1,0c0.1,0,0.1,0,0.2,0c0.1,0,0.1,0,0.2,0l0.8-0.1c4.1-0.6,31.8-5.7,34.7-33.8
			c1.2-11.4-2.8-20.5-11.7-26.9c-7.1-5.1-14.7-6.7-18-7.3c-3.5-0.6-6-0.9-8.6-1c-10.6-0.4-35.9,1-54.1,20.9
			c9.2,7.3,12.6,12.3,12.8,12.6c0.1,0.1,1.1,1.6,1.3,1.9c11.9,17.6,1.1,34-0.3,35.9c-0.6,1-6.6,10.1-19.4,12.6
			c-8,1.6-15.8-1.2-20.7-7.4c-6.4-6.8-13.2-32.8,16.2-58.8C55,52.7,43.6,47.2,28.9,44.5C13.1,63.7,3.6,88.3,3.6,115.2
			c0,21.3,6,41.2,16.3,58.1c11.5,5.1,26.2,9.2,39.6,5.1c27.1-8.2,36.9-34.4,40.1-45.3c3.1-10.9,7.3-35,18-53.1c2.9-4.9,6-8.6,9-11.3
			c7.8-7.2,14.5-7.6,14.5-7.6c0.9-0.2,1.6,0.7,1.6,1.6c0,0.9-0.7,1.6-1.6,1.6c-0.2,0-4.4,0.2-10,4.6l-0.2,0.2
			c-5.3,4.6-15,16.3-19.9,42.1c-0.5,2.4-0.9,4.9-1.3,7.5c-3.6,20.8-9.7,50.4-32.3,65.8c-9.8,6.7-22,11.4-36.8,13.6
			c19.7,17.8,45.9,28.6,74.5,28.6c54.8,0,100.4-39.6,109.7-91.7c-2.4-0.4-5-0.7-7.8-0.8C190,132.7,176.2,157.4,176.2,157.4z"/>
		
			<linearGradient id="SVGID_00000127043532387395780650000003218069537335965611_" gradientUnits="userSpaceOnUse" x1="-22.759" y1="223.093" x2="289.002" y2="72.83" gradientTransform="matrix(1 0 0 -1 0 232)">
			<stop  offset="5.380000e-03" style="stop-color:#855624"/>
			<stop  offset="2.659000e-02" style="stop-color:#895B26"/>
			<stop  offset="0.1818" style="stop-color:#A68042"/>
			<stop  offset="0.3205" style="stop-color:#BC9D5E"/>
			<stop  offset="0.4363" style="stop-color:#C9B072"/>
			<stop  offset="0.5151" style="stop-color:#CEB77A"/>
			<stop  offset="0.5924" style="stop-color:#CBB274"/>
			<stop  offset="0.694" style="stop-color:#C0A363"/>
			<stop  offset="0.8092" style="stop-color:#AF8B4A"/>
			<stop  offset="0.9335" style="stop-color:#986C30"/>
			<stop  offset="1" style="stop-color:#8B5A25"/>
		</linearGradient>
		
			<path style="fill:url(#SVGID_00000127043532387395780650000003218069537335965611_);stroke:#FFFFFF;stroke-width:0.3;stroke-miterlimit:10;" d="
			M131.9,37.4c3.2,0.3,6.4,0.8,9.6,1.4c28.7,5.3,40.3,25.5,38.8,40.2c-0.9,8.3-5.2,16.2-13.3,22.8c-9.2,7.5-20.2,9.3-28.9,10.5
			l-2,0.2c0,0,7.6,5.4,9,13.6c1.5,8.2-0.4,15-4.5,24.4c-2.7,6.3-3.2,16.9,0.8,20.9c0.2,0.2,0.4,0.4,0.6,0.6c0.6,0.5,1.2,0.9,1.9,1.3
			c10.6,5.1,23.9-7.5,31.7-21.3c0.2-0.4,5.9-10.6,16.7-19c7.7-6,19.2-11.9,33.8-10.6c0.2-2.4,0.2-4.8,0.2-7.2
			c0-61.6-49.9-111.5-111.5-111.5c-33.4,0-63.4,14.7-83.8,38c14.8,3,26.3,8.7,34.4,14C92,34.2,123.4,36.3,131.9,37.4z"/>
		
			<linearGradient id="SVGID_00000058561168474225252170000001335202704725711758_" gradientUnits="userSpaceOnUse" x1="-37.5325" y1="192.4414" x2="274.2292" y2="42.1781" gradientTransform="matrix(1 0 0 -1 0 232)">
			<stop  offset="5.380000e-03" style="stop-color:#855624"/>
			<stop  offset="2.659000e-02" style="stop-color:#895B26"/>
			<stop  offset="0.1818" style="stop-color:#A68042"/>
			<stop  offset="0.3205" style="stop-color:#BC9D5E"/>
			<stop  offset="0.4363" style="stop-color:#C9B072"/>
			<stop  offset="0.5151" style="stop-color:#CEB77A"/>
			<stop  offset="0.5924" style="stop-color:#CBB274"/>
			<stop  offset="0.694" style="stop-color:#C0A363"/>
			<stop  offset="0.8092" style="stop-color:#AF8B4A"/>
			<stop  offset="0.9335" style="stop-color:#986C30"/>
			<stop  offset="1" style="stop-color:#8B5A25"/>
		</linearGradient>
		
			<path style="fill:url(#SVGID_00000058561168474225252170000001335202704725711758_);stroke:#FFFFFF;stroke-width:0.3;stroke-miterlimit:10;" d="
			M69.5,65.5c-15.9,21-16.7,33.9-14.6,41c1.5,5.1,5.1,8.9,9.8,10.6c10.7,3.7,19.2-7,19.6-7.5c0.5-0.7,12.2-16.7-0.9-33.9
			c-1.7-2.2-5.8-7-12.4-12.2C70.5,64.2,70,64.8,69.5,65.5z"/>
	</g>
</g>
</svg>
